G04 DipTrace 3.1.0.0*
G04 BottomSilk.gbr*
%MOIN*%
G04 #@! TF.FileFunction,Legend,Bot*
G04 #@! TF.Part,Single*
%ADD12C,0.002992*%
%ADD70C,0.004632*%
%FSLAX26Y26*%
G04*
G70*
G90*
G75*
G01*
G04 BotSilk*
%LPD*%
X527346Y1119478D2*
D12*
X533331D1*
X527943Y1117982D2*
X536365D1*
X530004Y1116486D2*
X538764D1*
X532939Y1114990D2*
X539768D1*
X536323Y1113493D2*
X539315D1*
X497425Y1111997D2*
X498921D1*
X525850D2*
X527346D1*
X496820Y1110501D2*
X499849D1*
X525149D2*
X531363D1*
X496928Y1109005D2*
X500702D1*
X524354D2*
X534344D1*
X497322Y1107509D2*
X501503D1*
X528146D2*
X536508D1*
X497906Y1106013D2*
X502273D1*
X532172D2*
X537253D1*
X498588Y1104517D2*
X503031D1*
X536323D2*
X537819D1*
X499309Y1103021D2*
X503781D1*
X500049Y1101525D2*
X504526D1*
X500792Y1100029D2*
X505226D1*
X501540Y1098533D2*
X505832D1*
X502287Y1097037D2*
X506364D1*
X503030Y1095541D2*
X506944D1*
X503730Y1094045D2*
X507599D1*
X504336Y1092549D2*
X508301D1*
X504868Y1091052D2*
X509026D1*
X505448Y1089556D2*
X509719D1*
X506097Y1088060D2*
X510321D1*
X506753Y1086564D2*
X510847D1*
X507339Y1085068D2*
X511374D1*
X507858Y1083572D2*
X511827D1*
X508383Y1082076D2*
X512061D1*
X508845Y1080580D2*
X512109D1*
X509160Y1079084D2*
X511571D1*
X509394Y1077588D2*
X510890D1*
X461520Y1070108D2*
X536323D1*
X461520Y1068612D2*
X536323D1*
X461520Y1067115D2*
X536323D1*
X461520Y1065619D2*
X536323D1*
X500417Y1029714D2*
X504906D1*
X500417Y1028218D2*
X504906D1*
X500417Y1026722D2*
X504906D1*
X500417Y1025226D2*
X504906D1*
X500423Y1023730D2*
X504900D1*
X500476Y1022234D2*
X504847D1*
X500666Y1020738D2*
X504656D1*
X501025Y1019241D2*
X504298D1*
X501408Y1017745D2*
X503915D1*
X501669Y1016249D2*
X503654D1*
X501808Y1014753D2*
X503515D1*
X501871Y1013257D2*
X503451D1*
X501898Y1011761D2*
X503425D1*
X501908Y1010265D2*
X503415D1*
X501911Y1008769D2*
X503411D1*
X501913Y1007273D2*
X503410D1*
X501913Y1005777D2*
X503410D1*
X501913Y1004281D2*
X503410D1*
X501913Y1002785D2*
X503409D1*
X501913Y1001289D2*
X503409D1*
X501913Y999793D2*
X503409D1*
X501913Y998297D2*
X503409D1*
X501913Y996801D2*
X503409D1*
X501913Y995304D2*
X503409D1*
X501913Y993808D2*
X503409D1*
X501913Y992312D2*
X503409D1*
X501913Y990816D2*
X503409D1*
X501913Y989320D2*
X503409D1*
X501913Y987824D2*
X503409D1*
X501913Y986328D2*
X503409D1*
X501913Y984832D2*
X503409D1*
X501913Y983336D2*
X503409D1*
X501913Y981840D2*
X503409D1*
X501913Y980344D2*
X503415D1*
X501908Y978848D2*
X503468D1*
X501855Y977352D2*
X503659D1*
X501664Y975856D2*
X504017D1*
X501306Y974360D2*
X504400D1*
X500922Y972864D2*
X504661D1*
X500661Y971367D2*
X504800D1*
X500523Y969871D2*
X504864D1*
X500459Y968375D2*
X504890D1*
X500433Y966879D2*
X504900D1*
X500423Y965383D2*
X504904D1*
X500417Y963887D2*
X504906D1*
X527346Y947430D2*
X531835D1*
X516874Y945934D2*
X521362D1*
X527919D2*
X535248D1*
X474984Y944438D2*
X476480D1*
X516874D2*
X521362D1*
X529719D2*
X538177D1*
X474459Y942942D2*
X479704D1*
X516874D2*
X521362D1*
X532136D2*
X540811D1*
X473951Y941446D2*
X483067D1*
X516874D2*
X521362D1*
X534827D2*
X539315D1*
X473488Y939950D2*
X486446D1*
X516874D2*
X521362D1*
X477402Y938454D2*
X489700D1*
X516874D2*
X521362D1*
X525850D2*
X530339D1*
X481195Y936958D2*
X492820D1*
X516874D2*
X521362D1*
X526271D2*
X533255D1*
X484792Y935462D2*
X495753D1*
X516874D2*
X521362D1*
X527906D2*
X535781D1*
X488142Y933966D2*
X498217D1*
X516874D2*
X521362D1*
X530382D2*
X536921D1*
X491313Y932470D2*
X500154D1*
X516874D2*
X521362D1*
X533331D2*
X537819D1*
X494386Y930974D2*
X500931D1*
X516874D2*
X521362D1*
X497425Y929478D2*
X500417D1*
X516874D2*
X521362D1*
X516874Y927982D2*
X521362D1*
X516874Y926486D2*
X521362D1*
X516874Y924990D2*
X521362D1*
X516874Y923493D2*
X521362D1*
X516874Y921997D2*
X521362D1*
X516874Y920501D2*
X521362D1*
X516874Y919005D2*
X521362D1*
X516874Y917509D2*
X521362D1*
X516874Y916013D2*
X521362D1*
X516874Y914517D2*
X521362D1*
X467504Y913021D2*
X537819D1*
X465380Y911525D2*
X537819D1*
X463705Y910029D2*
X537819D1*
X462410Y908533D2*
X537819D1*
X461893Y907037D2*
X466302D1*
X516874D2*
X521362D1*
X461454Y905541D2*
X465427D1*
X516874D2*
X521362D1*
X460984Y904045D2*
X464926D1*
X516874D2*
X521362D1*
X460555Y902549D2*
X464683D1*
X516874D2*
X521362D1*
X460277Y901052D2*
X464578D1*
X516874D2*
X521362D1*
X460138Y899556D2*
X464536D1*
X516874D2*
X521362D1*
X460125Y898060D2*
X464520D1*
X516874D2*
X521362D1*
X460290Y896564D2*
X464515D1*
X516874D2*
X521362D1*
X460650Y895068D2*
X464513D1*
X516874D2*
X521362D1*
X461092Y893572D2*
X464512D1*
X516874D2*
X521362D1*
X461520Y892076D2*
X464512D1*
X516874D2*
X521362D1*
X516874Y890580D2*
X521362D1*
X516874Y889084D2*
X521362D1*
X497425Y887588D2*
X501913D1*
X516874D2*
X521362D1*
X493511Y886092D2*
X501341D1*
X516874D2*
X521362D1*
X489719Y884596D2*
X499486D1*
X516874D2*
X521362D1*
X486127Y883100D2*
X496870D1*
X516874D2*
X521362D1*
X482835Y881604D2*
X493732D1*
X516874D2*
X521362D1*
X479920Y880108D2*
X490424D1*
X516874D2*
X521362D1*
X477521Y878612D2*
X487197D1*
X516874D2*
X521362D1*
X475536Y877115D2*
X484128D1*
X516874D2*
X521362D1*
X474584Y875619D2*
X481304D1*
X516874D2*
X521362D1*
X474537Y874123D2*
X478797D1*
X516874D2*
X521362D1*
X474984Y872627D2*
X476480D1*
X501913Y859163D2*
X504906D1*
X501970Y857667D2*
X505474D1*
X502168Y856171D2*
X506117D1*
X522858D2*
D3*
X469000Y854675D2*
X473488D1*
X486953D2*
X489945D1*
X502579D2*
X506812D1*
X522621D2*
X524354D1*
X467107Y853178D2*
X474984D1*
X486953D2*
X489945D1*
X503159D2*
X507538D1*
X522198D2*
X525850D1*
X465585Y851682D2*
X472471D1*
X486953D2*
X489945D1*
X503831D2*
X508282D1*
X521614D2*
X527346D1*
X465024Y850186D2*
X470143D1*
X486953D2*
X489945D1*
X504544D2*
X509075D1*
X520941D2*
X525856D1*
X464673Y848690D2*
X468329D1*
X486953D2*
X489945D1*
X505227D2*
X509964D1*
X520222D2*
X524413D1*
X464348Y847194D2*
X466942D1*
X486953D2*
X489945D1*
X505780D2*
X510939D1*
X519475D2*
X523107D1*
X463936Y845698D2*
X466459D1*
X486953D2*
X489945D1*
X506140D2*
X511964D1*
X518620D2*
X521975D1*
X463532Y844202D2*
X466199D1*
X486953D2*
X489945D1*
X503409D2*
X513229D1*
X517451D2*
X520921D1*
X533331D2*
X534827D1*
X463264Y842706D2*
X466082D1*
X486953D2*
X489945D1*
X503409D2*
X514922D1*
X515806D2*
X519941D1*
X532403D2*
X535408D1*
X463122Y841210D2*
X466035D1*
X486953D2*
X489945D1*
X503409D2*
X506402D1*
X509394D2*
X519098D1*
X531544D2*
X535250D1*
X463064Y839714D2*
X466023D1*
X486953D2*
X489945D1*
X503409D2*
X506402D1*
X510890D2*
X518861D1*
X530696D2*
X534315D1*
X463090Y838218D2*
X466075D1*
X486953D2*
X489945D1*
X503409D2*
X506402D1*
X512386D2*
X519257D1*
X529777D2*
X533170D1*
X463270Y836722D2*
X466322D1*
X486953D2*
X489945D1*
X503409D2*
X506402D1*
X513882D2*
X520418D1*
X528743D2*
X531998D1*
X463631Y835226D2*
X466923D1*
X486953D2*
X489945D1*
X503409D2*
X506402D1*
X515384D2*
X522131D1*
X527552D2*
X530915D1*
X464072Y833730D2*
X467880D1*
X486953D2*
X489945D1*
X503409D2*
X506402D1*
X516932D2*
X524535D1*
X526067D2*
X529827D1*
X464581Y832234D2*
X506402D1*
X518625D2*
X528621D1*
X465322Y830738D2*
X506402D1*
X520538D2*
X527346D1*
X466345Y829241D2*
X506402D1*
X522666D2*
X529984D1*
X467504Y827745D2*
X506402D1*
X525026D2*
X532128D1*
X486953Y826249D2*
X489945D1*
X503409D2*
X506402D1*
X527626D2*
X533647D1*
X486953Y824753D2*
X489945D1*
X503409D2*
X506402D1*
X530339D2*
X534827D1*
X486953Y823257D2*
X489945D1*
X503409D2*
X506402D1*
X486953Y821761D2*
X489945D1*
X503409D2*
X506402D1*
X486953Y820265D2*
X489945D1*
X503409D2*
X506402D1*
X486953Y818769D2*
X489945D1*
X503409D2*
X506402D1*
X486953Y817273D2*
X489945D1*
X503409D2*
X506402D1*
X486929Y815777D2*
X489945D1*
X503409D2*
X506402D1*
X531835D2*
X533331D1*
X486859Y814281D2*
X489945D1*
X503409D2*
X506402D1*
X528899D2*
X533331D1*
X486158Y812785D2*
X489945D1*
X503409D2*
X506402D1*
X526105D2*
X533331D1*
X483801Y811289D2*
X506402D1*
X523530D2*
X533331D1*
X480819Y809793D2*
X506402D1*
X521170D2*
X527109D1*
X530339D2*
X533331D1*
X477808Y808297D2*
X506402D1*
X519047D2*
X525190D1*
X530339D2*
X533331D1*
X475117Y806801D2*
X489945D1*
X503409D2*
X506402D1*
X517184D2*
X523122D1*
X530339D2*
X533331D1*
X472810Y805304D2*
X481557D1*
X486953D2*
X489945D1*
X503409D2*
X506402D1*
X515508D2*
X521064D1*
X530339D2*
X533331D1*
X470863Y803808D2*
X478311D1*
X486953D2*
X489945D1*
X503409D2*
X506407D1*
X513926D2*
X519300D1*
X530339D2*
X533331D1*
X469157Y802312D2*
X475812D1*
X486953D2*
X489945D1*
X503409D2*
X506464D1*
X512342D2*
X517902D1*
X530339D2*
X533331D1*
X467620Y800816D2*
X473830D1*
X486953D2*
X489945D1*
X503421D2*
X506696D1*
X510602D2*
X517476D1*
X530339D2*
X533331D1*
X466278Y799320D2*
X472130D1*
X486953D2*
X489945D1*
X503535D2*
X507207D1*
X508590D2*
X517799D1*
X530339D2*
X533331D1*
X465133Y797824D2*
X470603D1*
X486953D2*
X489945D1*
X503807D2*
X518810D1*
X530339D2*
X533331D1*
X464068Y796328D2*
X469266D1*
X486953D2*
X489945D1*
X504973D2*
X512392D1*
X515372D2*
X519996D1*
X530339D2*
X533331D1*
X463023Y794832D2*
X468123D1*
X486953D2*
X489945D1*
X506402D2*
X510948D1*
X516816D2*
X521185D1*
X530339D2*
X533331D1*
X462036Y793336D2*
X467064D1*
X486953D2*
X489945D1*
X505423D2*
X509649D1*
X518120D2*
X522264D1*
X530339D2*
X533331D1*
X461051Y791840D2*
X466060D1*
X486953D2*
X489945D1*
X504425D2*
X508563D1*
X519245D2*
X523297D1*
X530339D2*
X533331D1*
X460024Y790344D2*
X465221D1*
X486953D2*
X489945D1*
X503409D2*
X507648D1*
X520296D2*
X524354D1*
X530339D2*
X533331D1*
X463016Y788848D2*
X464512D1*
X486953D2*
X489945D1*
X502470D2*
X506823D1*
X521362D2*
X522858D1*
X530339D2*
X533331D1*
X486953Y787352D2*
X489945D1*
X501615D2*
X506046D1*
X530339D2*
X533331D1*
X486953Y785856D2*
X489945D1*
X500779D2*
X505290D1*
X530339D2*
X533331D1*
X486953Y784360D2*
X489945D1*
X499886D2*
X504578D1*
X498921Y782864D2*
X503953D1*
X500417Y781367D2*
X503409D1*
X464512Y764911D2*
X533331D1*
X463253Y763415D2*
X533331D1*
X462186Y761919D2*
X533331D1*
X461326Y760423D2*
X466302D1*
X510890D2*
X513882D1*
X521362D2*
X522858D1*
X530339D2*
X533331D1*
X460712Y758927D2*
X465427D1*
X510890D2*
X513882D1*
X521362D2*
X522858D1*
X530339D2*
X533331D1*
X460308Y757430D2*
X464926D1*
X486953D2*
X488449D1*
X510890D2*
X513882D1*
X521362D2*
X522858D1*
X530339D2*
X533331D1*
X460510Y755934D2*
X464682D1*
X486953D2*
X488449D1*
X510890D2*
X513882D1*
X521362D2*
X522858D1*
X530339D2*
X533331D1*
X461624Y754438D2*
X464574D1*
X486953D2*
X488449D1*
X510890D2*
X513882D1*
X521362D2*
X522858D1*
X530339D2*
X533331D1*
X463016Y752942D2*
X464512D1*
X486953D2*
X488449D1*
X501913D2*
X503409D1*
X510890D2*
X513882D1*
X521362D2*
X522858D1*
X530339D2*
X533331D1*
X486953Y751446D2*
X488449D1*
X501913D2*
X503409D1*
X510890D2*
X513882D1*
X521362D2*
X522858D1*
X530339D2*
X533331D1*
X486953Y749950D2*
X488449D1*
X501913D2*
X503409D1*
X510890D2*
X513882D1*
X521362D2*
X522858D1*
X530339D2*
X533331D1*
X486953Y748454D2*
X488449D1*
X501913D2*
X503409D1*
X510890D2*
X513882D1*
X521362D2*
X522858D1*
X530339D2*
X533331D1*
X486953Y746958D2*
X488449D1*
X501913D2*
X503409D1*
X510890D2*
X513905D1*
X521339D2*
X522882D1*
X530315D2*
X533331D1*
X486953Y745462D2*
X488449D1*
X501913D2*
X503409D1*
X510890D2*
X513975D1*
X521269D2*
X522952D1*
X530245D2*
X533331D1*
X467504Y743966D2*
X503409D1*
X510890D2*
X514677D1*
X520567D2*
X523653D1*
X529544D2*
X533331D1*
X467504Y742470D2*
X503409D1*
X510890D2*
X517008D1*
X518236D2*
X525985D1*
X527212D2*
X533331D1*
X467504Y740974D2*
X503409D1*
X510890D2*
X533331D1*
X486953Y739478D2*
X488449D1*
X501913D2*
X503409D1*
X510890D2*
X533331D1*
X486953Y737982D2*
X488449D1*
X501913D2*
X503409D1*
X510890D2*
X533331D1*
X486953Y736486D2*
X488449D1*
X501913D2*
X503409D1*
X486953Y734990D2*
X488449D1*
X501913D2*
X503409D1*
X486953Y733493D2*
X488449D1*
X501913D2*
X503409D1*
X486941Y731997D2*
X488449D1*
X501913D2*
X503409D1*
X486818Y730501D2*
X488449D1*
X501913D2*
X503409D1*
X486520Y729005D2*
X488449D1*
X501913D2*
X503409D1*
X484925Y727509D2*
X488449D1*
X501913D2*
X503409D1*
X482543Y726013D2*
X503409D1*
X510890D2*
X533331D1*
X479703Y724517D2*
X503409D1*
X510890D2*
X533331D1*
X476912Y723021D2*
X503409D1*
X510890D2*
X533331D1*
X474525Y721525D2*
X481263D1*
X486953D2*
X488449D1*
X501913D2*
X503409D1*
X510890D2*
X513882D1*
X521362D2*
X522858D1*
X530339D2*
X533331D1*
X472682Y720029D2*
X478892D1*
X486953D2*
X488449D1*
X501913D2*
X503409D1*
X510890D2*
X513882D1*
X521362D2*
X522858D1*
X530339D2*
X533331D1*
X471291Y718533D2*
X476894D1*
X486953D2*
X488449D1*
X501913D2*
X503409D1*
X510890D2*
X513882D1*
X521362D2*
X522858D1*
X530339D2*
X533331D1*
X470125Y717037D2*
X475161D1*
X486953D2*
X488449D1*
X501913D2*
X503409D1*
X510890D2*
X513882D1*
X521362D2*
X522858D1*
X530339D2*
X533331D1*
X469101Y715541D2*
X473619D1*
X486953D2*
X488449D1*
X501913D2*
X503409D1*
X510890D2*
X513882D1*
X521362D2*
X522858D1*
X530339D2*
X533331D1*
X468237Y714045D2*
X472329D1*
X486953D2*
X488449D1*
X501913D2*
X503409D1*
X510890D2*
X513882D1*
X521362D2*
X522858D1*
X530339D2*
X533331D1*
X467990Y712549D2*
X471420D1*
X486953D2*
X488449D1*
X510890D2*
X513882D1*
X521362D2*
X522858D1*
X530339D2*
X533331D1*
X468408Y711052D2*
X470875D1*
X486953D2*
X488449D1*
X510890D2*
X513882D1*
X521362D2*
X522858D1*
X530339D2*
X533331D1*
X469000Y709556D2*
X470496D1*
X486953D2*
X488449D1*
X510890D2*
X513882D1*
X521362D2*
X522858D1*
X530339D2*
X533331D1*
X510890Y708060D2*
X513905D1*
X521339D2*
X522882D1*
X530315D2*
X533331D1*
X510890Y706564D2*
X513975D1*
X521269D2*
X522952D1*
X530245D2*
X533331D1*
X510890Y705068D2*
X514677D1*
X520567D2*
X523653D1*
X529544D2*
X533331D1*
X510890Y703572D2*
X517008D1*
X518236D2*
X525985D1*
X527212D2*
X533331D1*
X460024Y702076D2*
X533331D1*
X460024Y700580D2*
X533331D1*
X460024Y699084D2*
X533331D1*
X1160866Y1300551D2*
X1205748D1*
X1153859Y1297559D2*
X1223600D1*
X1146972Y1294567D2*
X1239388D1*
X1140328Y1291575D2*
X1253622D1*
X1133786Y1288583D2*
X1188521D1*
X1199764D2*
X1249227D1*
X1127451Y1285591D2*
X1178412D1*
X1214724D2*
X1244646D1*
X1307480D2*
X1358346D1*
X1121872Y1282598D2*
X1170147D1*
X1298745D2*
X1371466D1*
X1117432Y1279606D2*
X1163881D1*
X1291148D2*
X1383009D1*
X1114060Y1276614D2*
X1159181D1*
X1190787D2*
X1199764D1*
X1284675D2*
X1393197D1*
X1111561Y1273622D2*
X1155417D1*
X1187909D2*
X1207141D1*
X1278998D2*
X1402487D1*
X1109697Y1270630D2*
X1152216D1*
X1185301D2*
X1214099D1*
X1273397D2*
X1411478D1*
X1108390Y1267638D2*
X1149584D1*
X1183026D2*
X1220981D1*
X1266953D2*
X1420973D1*
X1107638Y1264646D2*
X1147655D1*
X1180801D2*
X1228188D1*
X1259194D2*
X1431328D1*
X1107270Y1261654D2*
X1146247D1*
X1178331D2*
X1235669D1*
X1250630D2*
X1466063D1*
X1107110Y1258661D2*
X1145037D1*
X1175616D2*
X1479300D1*
X1107045Y1255669D2*
X1144057D1*
X1172762D2*
X1488734D1*
X1107021Y1252677D2*
X1143450D1*
X1169928D2*
X1319574D1*
X1330704D2*
X1495984D1*
X1107012Y1249685D2*
X1143141D1*
X1167337D2*
X1311087D1*
X1340941D2*
X1486408D1*
X1107009Y1246693D2*
X1143015D1*
X1165069D2*
X1303209D1*
X1349809D2*
X1476084D1*
X1107008Y1243701D2*
X1143064D1*
X1162847D2*
X1295716D1*
X1357694D2*
X1464725D1*
X1107008Y1240709D2*
X1143426D1*
X1160377D2*
X1288029D1*
X1365322D2*
X1452411D1*
X1107008Y1237717D2*
X1144160D1*
X1157664D2*
X1279855D1*
X1373301D2*
X1439416D1*
X1107008Y1234724D2*
X1145047D1*
X1154804D2*
X1211858D1*
X1223701D2*
X1271304D1*
X1382016D2*
X1425944D1*
X1513937D2*
X1516929D1*
X1564803D2*
X1576772D1*
X1107008Y1231732D2*
X1145906D1*
X1151890D2*
X1212358D1*
X1238661D2*
X1262598D1*
X1391260D2*
X1412205D1*
X1508552D2*
X1576646D1*
X1068110Y1228740D2*
X1095039D1*
X1107008D2*
X1213574D1*
X1503916D2*
X1576146D1*
X1063863Y1225748D2*
X1215556D1*
X1500291D2*
X1574930D1*
X1060511Y1222756D2*
X1218095D1*
X1364331D2*
X1397244D1*
X1497424D2*
X1572948D1*
X1023228Y1219764D2*
X1032205D1*
X1057921D2*
X1221262D1*
X1353961D2*
X1406220D1*
X1494596D2*
X1570444D1*
X1020236Y1216772D2*
X1035197D1*
X1056999D2*
X1226015D1*
X1344009D2*
X1415197D1*
X1491211D2*
X1567651D1*
X1017244Y1213780D2*
X1038189D1*
X1056478D2*
X1234112D1*
X1334100D2*
X1424173D1*
X1487229D2*
X1564614D1*
X1014252Y1210787D2*
X1041181D1*
X1056142D2*
X1246643D1*
X1323726D2*
X1433150D1*
X1482767D2*
X1561042D1*
X1011260Y1207795D2*
X1262813D1*
X1312756D2*
X1442126D1*
X1478031D2*
X1556395D1*
X1008268Y1204803D2*
X1550470D1*
X1005276Y1201811D2*
X1508552D1*
X1519921D2*
X1543858D1*
X1002283Y1198819D2*
X1139921D1*
X1157874D2*
X1500924D1*
X999291Y1195827D2*
X1127953D1*
X1199164D2*
X1494319D1*
X996264Y1192835D2*
X1132534D1*
X1212766D2*
X1374009D1*
X1411628D2*
X1488565D1*
X992875Y1189843D2*
X1136929D1*
X1225226D2*
X1366670D1*
X1419477D2*
X1483138D1*
X987991Y1186850D2*
X1062126D1*
X1236349D2*
X1360518D1*
X1426928D2*
X1477594D1*
X980074Y1183858D2*
X1056142D1*
X1110000D2*
X1127953D1*
X1246048D2*
X1355313D1*
X1434445D2*
X1471871D1*
X969395Y1180866D2*
X1074094D1*
X1092047D2*
X1134844D1*
X1254381D2*
X1350867D1*
X1442126D2*
X1466063D1*
X958867Y1177874D2*
X1140829D1*
X1261618D2*
X1347164D1*
X1561811D2*
X1576772D1*
X951121Y1174882D2*
X1145964D1*
X1268185D2*
X1344162D1*
X1549395D2*
X1582642D1*
X945613Y1171890D2*
X1150288D1*
X1274416D2*
X1341742D1*
X1539961D2*
X1588231D1*
X943646Y1168898D2*
X1114078D1*
X1126853D2*
X1153630D1*
X1280485D2*
X1339571D1*
X1532947D2*
X1593440D1*
X942992Y1165906D2*
X1011260D1*
X1040594D2*
X1101443D1*
X1139713D2*
X1156009D1*
X1286399D2*
X1337402D1*
X1527125D2*
X1598743D1*
X942662Y1162913D2*
X1005276D1*
X1051331D2*
X1090639D1*
X1151890D2*
X1157874D1*
X1292015D2*
X1349393D1*
X1442126D2*
X1472047D1*
X1521341D2*
X1605478D1*
X942523Y1159921D2*
X1014252D1*
X1061378D2*
X1081800D1*
X1297275D2*
X1364230D1*
X1431550D2*
X1480837D1*
X1514882D2*
X1615226D1*
X942470Y1156929D2*
X1074094D1*
X1302389D2*
X1381662D1*
X1420506D2*
X1490000D1*
X1507953D2*
X1628165D1*
X942427Y1153937D2*
X1080079D1*
X1307459D2*
X1660551D1*
X942187Y1150945D2*
X1086051D1*
X1312332D2*
X1660107D1*
X941623Y1147953D2*
X1091930D1*
X1316924D2*
X1658538D1*
X938867Y1144961D2*
X1097510D1*
X1321131D2*
X1547324D1*
X1573180D2*
X1654394D1*
X934821Y1141969D2*
X1102549D1*
X1324941D2*
X1542199D1*
X1580800D2*
X1648470D1*
X929805Y1138976D2*
X1059134D1*
X1080629D2*
X1106834D1*
X1328668D2*
X1537476D1*
X1587327D2*
X1640717D1*
X924354Y1135984D2*
X1044173D1*
X1093647D2*
X1110205D1*
X1332533D2*
X1533116D1*
X1592798D2*
X1631527D1*
X919034Y1132992D2*
X1002283D1*
X1107008D2*
X1112992D1*
X1336355D2*
X1528927D1*
X1597717D2*
X1621654D1*
X914327Y1130000D2*
X953183D1*
X1339892D2*
X1460781D1*
X1475039D2*
X1524533D1*
X910347Y1127008D2*
X974142D1*
X1343171D2*
X1450450D1*
X1490000D2*
X1519921D1*
X906886Y1124016D2*
X989913D1*
X1346293D2*
X1441305D1*
X903791Y1121024D2*
X1002727D1*
X1349338D2*
X1433120D1*
X901109Y1118031D2*
X1014573D1*
X1077087D2*
X1083071D1*
X1352351D2*
X1425775D1*
X898919Y1115039D2*
X1026220D1*
X1056142D2*
X1078352D1*
X1355350D2*
X1419380D1*
X897181Y1112047D2*
X1072325D1*
X1358345D2*
X1413948D1*
X895934Y1109055D2*
X1065254D1*
X1361338D2*
X1409493D1*
X895305Y1106063D2*
X1057126D1*
X1364331D2*
X1406052D1*
X1466063D2*
X1484016D1*
X895325Y1103071D2*
X1047704D1*
X1367323D2*
X1403228D1*
X1460643D2*
X1491504D1*
X1570787D2*
X1594724D1*
X895883Y1100079D2*
X953433D1*
X969370D2*
X1037198D1*
X1370303D2*
X1408312D1*
X1455673D2*
X1498815D1*
X1561811D2*
X1603578D1*
X896563Y1097087D2*
X940207D1*
X1014252D2*
X1026220D1*
X1373190D2*
X1413863D1*
X1450751D2*
X1506280D1*
X1552835D2*
X1612090D1*
X1678504D2*
X1690472D1*
X897076Y1094094D2*
X930655D1*
X1375801D2*
X1420257D1*
X1445204D2*
X1513937D1*
X1543858D2*
X1620043D1*
X1660364D2*
X1688748D1*
X896592Y1091102D2*
X924176D1*
X1378077D2*
X1427165D1*
X1439134D2*
X1627638D1*
X1642598D2*
X1686220D1*
X893928Y1088110D2*
X919508D1*
X1380290D2*
X1682828D1*
X890029Y1085118D2*
X915512D1*
X948425D2*
X990315D1*
X1382655D2*
X1678763D1*
X885411Y1082126D2*
X1002529D1*
X1086063D2*
X1124961D1*
X1384988D2*
X1674113D1*
X880683Y1079134D2*
X1015427D1*
X1074645D2*
X1134229D1*
X1387137D2*
X1668891D1*
X876133Y1076142D2*
X1029442D1*
X1063726D2*
X1142031D1*
X1389298D2*
X1576307D1*
X1603575D2*
X1663267D1*
X871961Y1073150D2*
X1044173D1*
X1053150D2*
X1148898D1*
X1391642D2*
X1478745D1*
X1495434D2*
X1566564D1*
X1612052D2*
X1657331D1*
X868375Y1070157D2*
X1126043D1*
X1393968D2*
X1471511D1*
X1506353D2*
X1556689D1*
X1619823D2*
X1650949D1*
X865516Y1067165D2*
X1108415D1*
X1396103D2*
X1465740D1*
X1516929D2*
X1546850D1*
X1626886D2*
X1643967D1*
X863478Y1064173D2*
X1096296D1*
X1398169D2*
X1461252D1*
X1633622D2*
X1636614D1*
X862024Y1061181D2*
X1088040D1*
X1400238D2*
X1457561D1*
X860795Y1058189D2*
X1081902D1*
X1402217D2*
X1454264D1*
X1469055D2*
X1487008D1*
X859808Y1055197D2*
X1076816D1*
X1404207D2*
X1451102D1*
X1460079D2*
X1492751D1*
X859200Y1052205D2*
X981915D1*
X1008513D2*
X1072122D1*
X1406231D2*
X1497356D1*
X858890Y1049213D2*
X974076D1*
X1021411D2*
X1066976D1*
X1408103D2*
X1500837D1*
X858751Y1046220D2*
X966696D1*
X1035426D2*
X1060527D1*
X1409801D2*
X1503510D1*
X858695Y1043228D2*
X959393D1*
X1050157D2*
X1053150D1*
X1411394D2*
X1506008D1*
X858673Y1040236D2*
X951933D1*
X1412927D2*
X1509035D1*
X858665Y1037244D2*
X944116D1*
X1414441D2*
X1512974D1*
X1555827D2*
X1576772D1*
X858663Y1034252D2*
X935748D1*
X1415941D2*
X1517755D1*
X1546850D2*
X1585283D1*
X858650Y1031260D2*
X926846D1*
X1417429D2*
X1522913D1*
X1537874D2*
X1593493D1*
X858498Y1028268D2*
X917688D1*
X1418830D2*
X1601571D1*
X1645591D2*
X1675512D1*
X858112Y1025276D2*
X908736D1*
X1420041D2*
X1609685D1*
X1633622D2*
X1682403D1*
X855921Y1022283D2*
X900145D1*
X999291D2*
X1035197D1*
X1421106D2*
X1688388D1*
X850404Y1019291D2*
X891943D1*
X991926D2*
X1040707D1*
X1422266D2*
X1693546D1*
X844022Y1016299D2*
X884563D1*
X985094D2*
X1045844D1*
X1283543D2*
X1325433D1*
X1423565D2*
X1698089D1*
X838207Y1013307D2*
X878566D1*
X978792D2*
X1050661D1*
X1275132D2*
X1331292D1*
X1424876D2*
X1702273D1*
X833806Y1010315D2*
X874149D1*
X973113D2*
X1005978D1*
X1019762D2*
X1055299D1*
X1267164D2*
X1336776D1*
X1426049D2*
X1472161D1*
X1485908D2*
X1706373D1*
X830729Y1007323D2*
X870630D1*
X968265D2*
X998639D1*
X1024888D2*
X1059857D1*
X1259193D2*
X1341556D1*
X1427087D2*
X1469564D1*
X1498769D2*
X1537874D1*
X1567105D2*
X1710289D1*
X828496Y1004331D2*
X878186D1*
X964233D2*
X992486D1*
X1029599D2*
X1064487D1*
X1250421D2*
X1296214D1*
X1309770D2*
X1345663D1*
X1428148D2*
X1467406D1*
X1510945D2*
X1519921D1*
X1574568D2*
X1654444D1*
X1665947D2*
X1713742D1*
X826698Y1001339D2*
X885081D1*
X960754D2*
X987282D1*
X1033856D2*
X1069480D1*
X1240878D2*
X1288851D1*
X1317109D2*
X1349537D1*
X1429169D2*
X1465680D1*
X1581277D2*
X1645003D1*
X1676674D2*
X1716425D1*
X825187Y998346D2*
X890821D1*
X957653D2*
X982824D1*
X1037709D2*
X1075176D1*
X1231504D2*
X1282454D1*
X1323262D2*
X1353562D1*
X1430132D2*
X1464424D1*
X1587903D2*
X1635003D1*
X1686655D2*
X1718383D1*
X824037Y995354D2*
X895260D1*
X954968D2*
X979004D1*
X1041712D2*
X1081540D1*
X1223017D2*
X1276136D1*
X1328466D2*
X1357774D1*
X1431161D2*
X1463715D1*
X1594724D2*
X1624646D1*
X1696141D2*
X1718124D1*
X823349Y992362D2*
X898427D1*
X952778D2*
X975502D1*
X1046891D2*
X1088141D1*
X1215321D2*
X1268750D1*
X1332924D2*
X1361920D1*
X1432168D2*
X1463342D1*
X1546850D2*
X1555827D1*
X1705433D2*
X1717402D1*
X823005Y989370D2*
X900728D1*
X951039D2*
X971843D1*
X1054276D2*
X1094575D1*
X1208086D2*
X1259775D1*
X1336733D2*
X1365458D1*
X1433127D2*
X1463951D1*
X1539959D2*
X1563639D1*
X822853Y986378D2*
X902576D1*
X949771D2*
X967579D1*
X1063800D2*
X1100697D1*
X1201454D2*
X1249529D1*
X1340117D2*
X1368258D1*
X1434142D2*
X1466259D1*
X1533951D2*
X1570248D1*
X822792Y983386D2*
X904209D1*
X948985D2*
X962647D1*
X1073772D2*
X1106302D1*
X1195685D2*
X1238916D1*
X1343291D2*
X1369157D1*
X1435055D2*
X1471315D1*
X1528576D2*
X1575742D1*
X822780Y980394D2*
X905749D1*
X948425D2*
X957402D1*
X1082321D2*
X1111121D1*
X1190753D2*
X1228983D1*
X1346465D2*
X1368642D1*
X1435738D2*
X1478105D1*
X1523204D2*
X1580921D1*
X822877Y977402D2*
X907167D1*
X1088924D2*
X1115154D1*
X1186758D2*
X1220449D1*
X1349944D2*
X1367596D1*
X1436417D2*
X1486617D1*
X1517301D2*
X1586315D1*
X1672520D2*
X1684488D1*
X823256Y974409D2*
X908396D1*
X1029213D2*
X1047165D1*
X1094122D2*
X1118735D1*
X1183797D2*
X1213510D1*
X1253622D2*
X1280551D1*
X1353969D2*
X1366096D1*
X1437269D2*
X1495984D1*
X1510945D2*
X1591979D1*
X1665361D2*
X1690484D1*
X823971Y971417D2*
X909580D1*
X1016029D2*
X1056461D1*
X1098567D2*
X1122216D1*
X1181582D2*
X1208057D1*
X1246382D2*
X1289528D1*
X1301496D2*
X1304488D1*
X1358346D2*
X1364331D1*
X1438091D2*
X1597815D1*
X1656913D2*
X1696597D1*
X824750Y968425D2*
X911251D1*
X987323D2*
X990315D1*
X1002283D2*
X1064196D1*
X1102295D2*
X1125617D1*
X1179779D2*
X1203765D1*
X1240039D2*
X1301496D1*
X1316457D2*
X1319449D1*
X1438646D2*
X1603736D1*
X1647086D2*
X1703150D1*
X825377Y965433D2*
X913881D1*
X988923D2*
X996299D1*
X1005276D2*
X1070344D1*
X1105229D2*
X1128574D1*
X1178252D2*
X1200183D1*
X1234835D2*
X1317507D1*
X1439036D2*
X1710379D1*
X826035Y962441D2*
X917661D1*
X990990D2*
X1050146D1*
X1054966D2*
X1075256D1*
X1107781D2*
X1130846D1*
X1176993D2*
X1197055D1*
X1230640D2*
X1248112D1*
X1256626D2*
X1315532D1*
X1439547D2*
X1717568D1*
X826879Y959449D2*
X922447D1*
X972362D2*
X978346D1*
X993307D2*
X1053021D1*
X1061458D2*
X1079164D1*
X1110396D2*
X1132488D1*
X1175922D2*
X1194451D1*
X1227094D2*
X1242986D1*
X1253751D2*
X1277559D1*
X1283543D2*
X1292394D1*
X1298618D2*
X1313465D1*
X1325433D2*
X1331417D1*
X1440317D2*
X1723986D1*
X827710Y956457D2*
X927868D1*
X974331D2*
X1005162D1*
X1014378D2*
X1023228D1*
X1029213D2*
X1055515D1*
X1066454D2*
X1082249D1*
X1113157D2*
X1133730D1*
X1174861D2*
X1192532D1*
X1223966D2*
X1238287D1*
X1251257D2*
X1294886D1*
X1302005D2*
X1330367D1*
X1441104D2*
X1727127D1*
X828358Y953465D2*
X933612D1*
X963386D2*
D3*
X976425D2*
X1001786D1*
X1011886D2*
X1057292D1*
X1070418D2*
X1084713D1*
X1115939D2*
X1134861D1*
X1173942D2*
X1191127D1*
X1221272D2*
X1234146D1*
X1249479D2*
X1296663D1*
X1305808D2*
X1329350D1*
X1340394D2*
X1343386D1*
X1441634D2*
X1549956D1*
X1564215D2*
X1728098D1*
X829024Y950472D2*
X939503D1*
X964997D2*
X969370D1*
X978804D2*
X998076D1*
X1010109D2*
X1058302D1*
X1073819D2*
X1086911D1*
X1118494D2*
X1135807D1*
X1173359D2*
X1189918D1*
X1219067D2*
X1230815D1*
X1248469D2*
X1297673D1*
X1309837D2*
X1328425D1*
X1334409D2*
X1341775D1*
X1441914D2*
X1544356D1*
X1571949D2*
X1727131D1*
X829881Y947480D2*
X877226D1*
X881999D2*
X945440D1*
X967130D2*
X975354D1*
X981339D2*
X994309D1*
X1009099D2*
X1058791D1*
X1076861D2*
X1089018D1*
X1120647D2*
X1136411D1*
X1173058D2*
X1188938D1*
X1217223D2*
X1228295D1*
X1247993D2*
X1298161D1*
X1313633D2*
X1339642D1*
X1442053D2*
X1539089D1*
X1578947D2*
X1724015D1*
X830816Y944488D2*
X869714D1*
X889628D2*
X951295D1*
X969698D2*
X990750D1*
X1008623D2*
X1058990D1*
X1079419D2*
X1090921D1*
X1122472D2*
X1136821D1*
X1172923D2*
X1188332D1*
X1215570D2*
X1226410D1*
X1247887D2*
X1298372D1*
X1316786D2*
X1337085D1*
X1442211D2*
X1533872D1*
X1585534D2*
X1720394D1*
X831823Y941496D2*
X863618D1*
X896221D2*
X956777D1*
X972603D2*
X987323D1*
X1008529D2*
X1058960D1*
X1081229D2*
X1092630D1*
X1124107D2*
X1137339D1*
X1172868D2*
X1188023D1*
X1214014D2*
X1225082D1*
X1248187D2*
X1298456D1*
X1319449D2*
X1334274D1*
X1442613D2*
X1528409D1*
X1592250D2*
X1669528D1*
X833147Y938504D2*
X859197D1*
X901893D2*
X961545D1*
X975910D2*
X992268D1*
X1008942D2*
X1058529D1*
X1082316D2*
X1094227D1*
X1125555D2*
X1138111D1*
X1172846D2*
X1187885D1*
X1212504D2*
X1224272D1*
X1248897D2*
X1298488D1*
X1313465D2*
X1331243D1*
X1443337D2*
X1522691D1*
X1599761D2*
X1663543D1*
X834724Y935512D2*
X855851D1*
X907164D2*
X965550D1*
X979694D2*
X997692D1*
X1010115D2*
X1035197D1*
X1041181D2*
X1057517D1*
X1083071D2*
X1095762D1*
X1126683D2*
X1138899D1*
X1172839D2*
X1187817D1*
X1211107D2*
X1223701D1*
X1249776D2*
X1265591D1*
X1271575D2*
X1298504D1*
X1307480D2*
X1327771D1*
X1444107D2*
X1516728D1*
X1608680D2*
X1657559D1*
X827154Y932520D2*
X854145D1*
X912891D2*
X969053D1*
X983848D2*
X1003094D1*
X1012017D2*
X1056142D1*
X1071102D2*
X1097266D1*
X1127364D2*
X1139429D1*
X1172836D2*
X1187690D1*
X1209998D2*
X1241654D1*
X1250630D2*
X1323469D1*
X1444629D2*
X1510415D1*
X1619202D2*
X1651575D1*
X821063Y929528D2*
X853604D1*
X919770D2*
X972362D1*
X988308D2*
X1008268D1*
X1014252D2*
X1098688D1*
X1127705D2*
X1139709D1*
X1172835D2*
X1187301D1*
X1209323D2*
X1318082D1*
X1444907D2*
X1503735D1*
X1630630D2*
X1645591D1*
X818462Y926535D2*
X854246D1*
X927480D2*
X966378D1*
X993339D2*
X1099937D1*
X1127856D2*
X1139837D1*
X1172835D2*
X1186582D1*
X1208967D2*
X1311529D1*
X1445034D2*
X1496990D1*
X817554Y923543D2*
X855395D1*
X999390D2*
X1101024D1*
X1127917D2*
X1139890D1*
X1172835D2*
X1185814D1*
X1208740D2*
X1303594D1*
X1445087D2*
X1490485D1*
X817090Y920551D2*
X857189D1*
X1006556D2*
X1056142D1*
X1127940D2*
X1139910D1*
X1172835D2*
X1185292D1*
X1253622D2*
X1294060D1*
X1445107D2*
X1484208D1*
X1561811D2*
X1579764D1*
X816891Y917559D2*
X859934D1*
X1014252D2*
X1047165D1*
X1127948D2*
X1139917D1*
X1172835D2*
X1185014D1*
X1262598D2*
X1283543D1*
X1445114D2*
X1589522D1*
X816814Y914567D2*
X863885D1*
X1127940D2*
X1139920D1*
X1172835D2*
X1184887D1*
X1445117D2*
X1598022D1*
X816786Y911575D2*
X869156D1*
X1127835D2*
X1139921D1*
X1172835D2*
X1184835D1*
X1445118D2*
X1605173D1*
X1693465D2*
X1708425D1*
X816776Y908583D2*
X875585D1*
X912520D2*
X933465D1*
X1127443D2*
X1139933D1*
X1172835D2*
X1184814D1*
X1445118D2*
X1611558D1*
X1682546D2*
X1716139D1*
X816773Y905591D2*
X882598D1*
X900551D2*
X940716D1*
X1126621D2*
X1140038D1*
X1172835D2*
X1184807D1*
X1445118D2*
X1617973D1*
X1671595D2*
X1723341D1*
X816772Y902598D2*
X947176D1*
X1125473D2*
X1140419D1*
X1172835D2*
X1184804D1*
X1445118D2*
X1624646D1*
X1660551D2*
X1729794D1*
X816772Y899606D2*
X952878D1*
X1124222D2*
X1141136D1*
X1172835D2*
X1184804D1*
X1445118D2*
X1735494D1*
X816772Y896614D2*
X958288D1*
X1123073D2*
X1141903D1*
X1172835D2*
X1184803D1*
X1445118D2*
X1740317D1*
X816772Y893622D2*
X963828D1*
X1122043D2*
X1142425D1*
X1172835D2*
X1184803D1*
X1445118D2*
X1744291D1*
X816783Y890630D2*
X969576D1*
X1121008D2*
X1142703D1*
X1172835D2*
X1184803D1*
X1445118D2*
X1574379D1*
X1591144D2*
X1745848D1*
X816889Y887638D2*
X975558D1*
X1041181D2*
X1044173D1*
X1120199D2*
X1142818D1*
X1172835D2*
X1184803D1*
X1445118D2*
X1566750D1*
X1598878D2*
X1681496D1*
X1723386D2*
X1746740D1*
X817282Y884646D2*
X981956D1*
X1033047D2*
X1043585D1*
X1119755D2*
X1142742D1*
X1172846D2*
X1184815D1*
X1445118D2*
X1560145D1*
X1605865D2*
X1672520D1*
X1747323D2*
D3*
X818103Y881654D2*
X988944D1*
X1023945D2*
X1042331D1*
X1120477D2*
X1142452D1*
X1172952D2*
X1184920D1*
X1445106D2*
X1554380D1*
X1612336D2*
X1663543D1*
X819264Y878661D2*
X996299D1*
X1014252D2*
X1040224D1*
X1121627D2*
X1140957D1*
X1173333D2*
X1185301D1*
X1445001D2*
X1548813D1*
X1618538D2*
X1654567D1*
X820607Y875669D2*
X1037208D1*
X1123172D2*
X1137674D1*
X1174049D2*
X1186018D1*
X1444620D2*
X1542499D1*
X1624646D2*
X1645591D1*
X822045Y872677D2*
X925778D1*
X929896D2*
X1033095D1*
X1124961D2*
X1133937D1*
X1174828D2*
X1186785D1*
X1443903D2*
X1534223D1*
X823527Y869685D2*
X916654D1*
X940737D2*
X1027707D1*
X1175455D2*
X1187307D1*
X1443136D2*
X1522678D1*
X825111Y866693D2*
X909126D1*
X951180D2*
X1021039D1*
X1176114D2*
X1187584D1*
X1442614D2*
X1507594D1*
X826889Y863701D2*
X901742D1*
X961689D2*
X1013371D1*
X1176969D2*
X1187711D1*
X1442337D2*
X1490200D1*
X828827Y860709D2*
X892819D1*
X972362D2*
X1005276D1*
X1177903D2*
X1187764D1*
X1442198D2*
X1472047D1*
X1540866D2*
X1552835D1*
X830753Y857717D2*
X882396D1*
X1178910D2*
X1187784D1*
X1442041D2*
X1474925D1*
X1533963D2*
X1557796D1*
X832710Y854724D2*
X872641D1*
X1180233D2*
X1187792D1*
X1441639D2*
X1477546D1*
X1527861D2*
X1562890D1*
X834622Y851732D2*
X864579D1*
X1181811D2*
X1187795D1*
X1440915D2*
X1479934D1*
X1522217D2*
X1568304D1*
X1624646D2*
X1645591D1*
X836098Y848740D2*
X861248D1*
X1440145D2*
X1482614D1*
X1516566D2*
X1573980D1*
X1614080D2*
X1655246D1*
X836973Y845748D2*
X912520D1*
X1439611D2*
X1486062D1*
X1510795D2*
X1579764D1*
X1603701D2*
X1663456D1*
X837406Y842756D2*
X918748D1*
X1115984D2*
X1118976D1*
X1439228D2*
X1490000D1*
X1504961D2*
X1670160D1*
X837584Y839764D2*
X924318D1*
X1113118D2*
X1122050D1*
X1438720D2*
X1676049D1*
X837555Y836772D2*
X929453D1*
X1110614D2*
X1123329D1*
X1437950D2*
X1681764D1*
X1711417D2*
X1717402D1*
X837203Y833780D2*
X934569D1*
X1108732D2*
X1122646D1*
X1437151D2*
X1687480D1*
X1696457D2*
X1715791D1*
X836496Y830787D2*
X939975D1*
X1011260D2*
X1017244D1*
X1107341D2*
X1120320D1*
X1436517D2*
X1713658D1*
X835733Y827795D2*
X945641D1*
X984331D2*
X1018693D1*
X1106136D2*
X1117937D1*
X1435856D2*
X1711089D1*
X835212Y824803D2*
X1016704D1*
X1105158D2*
X1115933D1*
X1127953D2*
X1133937D1*
X1184803D2*
X1190787D1*
X1435000D2*
X1636491D1*
X1651101D2*
X1708184D1*
X834935Y821811D2*
X1012523D1*
X1104564D2*
X1114499D1*
X1126572D2*
X1135906D1*
X1183192D2*
X1192169D1*
X1434074D2*
X1561588D1*
X1577872D2*
X1630043D1*
X1656238D2*
X1704889D1*
X834820Y818819D2*
X1007515D1*
X1104369D2*
X1113688D1*
X1125712D2*
X1138008D1*
X1181048D2*
X1193028D1*
X1433151D2*
X1552754D1*
X1588948D2*
X1623035D1*
X1661078D2*
X1701210D1*
X834873Y815827D2*
X1001863D1*
X1104693D2*
X1113393D1*
X1125289D2*
X1140444D1*
X1178385D2*
X1193451D1*
X1432138D2*
X1544935D1*
X1600709D2*
X1615669D1*
X1665935D2*
X1697461D1*
X835246Y812835D2*
X995541D1*
X1105658D2*
X1113612D1*
X1125210D2*
X1143257D1*
X1175203D2*
X1193530D1*
X1431136D2*
X1538173D1*
X1671328D2*
X1693949D1*
X836060Y809843D2*
X988184D1*
X1107008D2*
X1114376D1*
X1125594D2*
X1146580D1*
X1171547D2*
X1193146D1*
X1208740D2*
X1211732D1*
X1430179D2*
X1531830D1*
X1677636D2*
X1690665D1*
X837218Y806850D2*
X979321D1*
X1104478D2*
X1115614D1*
X1126587D2*
X1150539D1*
X1167694D2*
X1192153D1*
X1206665D2*
X1213332D1*
X1429153D2*
X1525323D1*
X1684488D2*
X1687480D1*
X838572Y803858D2*
X886190D1*
X906535D2*
X968819D1*
X1102228D2*
X1117333D1*
X1127953D2*
X1130945D1*
X1142913D2*
X1154882D1*
X1163858D2*
X1178819D1*
X1190787D2*
D3*
X1203768D2*
X1215359D1*
X1428146D2*
X1518308D1*
X840103Y800866D2*
X881562D1*
X930472D2*
X957402D1*
X1100022D2*
X1119537D1*
X1200335D2*
X1217523D1*
X1427176D2*
X1453518D1*
X1472047D2*
X1510945D1*
X841861Y797874D2*
X878027D1*
X909528D2*
X915512D1*
X1097659D2*
X1121969D1*
X1157874D2*
D3*
X1196772D2*
X1219501D1*
X1426056D2*
X1455385D1*
X843780Y794882D2*
X875549D1*
X898962D2*
X922301D1*
X1095329D2*
X1112663D1*
X1155470D2*
X1160866D1*
X1203767D2*
X1221255D1*
X1424773D2*
X1456873D1*
X845609Y791890D2*
X873622D1*
X888583D2*
X928007D1*
X1093206D2*
X1104823D1*
X1153720D2*
X1163270D1*
X1210528D2*
X1222864D1*
X1423468D2*
X1458469D1*
X847302Y788898D2*
X932818D1*
X1091158D2*
X1098209D1*
X1152718D2*
X1165020D1*
X1216619D2*
X1224330D1*
X1422297D2*
X1460280D1*
X848983Y785906D2*
X937217D1*
X1089055D2*
X1092047D1*
X1152232D2*
X1166022D1*
X1221890D2*
X1225597D1*
X1421247D2*
X1462151D1*
X1558819D2*
X1576772D1*
X850802Y782913D2*
X941370D1*
X1152034D2*
X1166496D1*
X1226693D2*
D3*
X1420093D2*
X1464208D1*
X1548896D2*
X1581619D1*
X1654567D2*
X1669528D1*
X852744Y779921D2*
X945437D1*
X1152064D2*
X1166593D1*
X1418785D2*
X1466720D1*
X1538709D2*
X1586329D1*
X1648685D2*
X1680401D1*
X854570Y776929D2*
X950050D1*
X1152495D2*
X1166214D1*
X1417381D2*
X1469868D1*
X1527879D2*
X1591029D1*
X1642972D2*
X1690412D1*
X856160Y773937D2*
X956407D1*
X1153506D2*
X1165223D1*
X1415920D2*
X1473741D1*
X1516529D2*
X1595944D1*
X1637268D2*
X1698259D1*
X857460Y770945D2*
X965690D1*
X1139921D2*
D3*
X1154882D2*
X1163858D1*
X1414442D2*
X1478031D1*
X1504961D2*
X1601224D1*
X1631152D2*
X1703484D1*
X858552Y767953D2*
X977268D1*
X1129003D2*
X1145906D1*
X1178819D2*
X1187795D1*
X1412949D2*
X1606693D1*
X1624646D2*
X1707239D1*
X859633Y764961D2*
X988666D1*
X1119019D2*
X1148898D1*
X1172835D2*
X1197120D1*
X1411445D2*
X1703061D1*
X860661Y761969D2*
X998055D1*
X1109827D2*
X1151890D1*
X1166850D2*
X1206455D1*
X1409854D2*
X1697816D1*
X861638Y758976D2*
X1005171D1*
X1101005D2*
X1215477D1*
X1408073D2*
X1652751D1*
X1666535D2*
X1691447D1*
X862761Y755984D2*
X1010428D1*
X1092618D2*
X1224070D1*
X1406145D2*
X1646259D1*
X1678504D2*
X1684488D1*
X864045Y752992D2*
X921034D1*
X927603D2*
X1014222D1*
X1085128D2*
X1232077D1*
X1404313D2*
X1546862D1*
X1576298D2*
X1641263D1*
X865351Y750000D2*
X917300D1*
X934052D2*
X1017244D1*
X1079076D2*
X1238774D1*
X1402620D2*
X1436142D1*
X1445706D2*
X1540983D1*
X1581446D2*
X1637287D1*
X866522Y747008D2*
X913533D1*
X941060D2*
X1002283D1*
X1074636D2*
X1243713D1*
X1400927D2*
X1436142D1*
X1449952D2*
X1535368D1*
X1586386D2*
X1633761D1*
X867560Y744016D2*
X910014D1*
X948425D2*
X987323D1*
X1071102D2*
X1247638D1*
X1399014D2*
X1436153D1*
X1455063D2*
X1529984D1*
X1591565D2*
X1630138D1*
X868621Y741024D2*
X906729D1*
X1083071D2*
X1118976D1*
X1145906D2*
X1175827D1*
X1199764D2*
X1234080D1*
X1396784D2*
X1436259D1*
X1461173D2*
X1524269D1*
X1597388D2*
X1626059D1*
X869653Y738031D2*
X903543D1*
X1095039D2*
X1107008D1*
X1211732D2*
X1220709D1*
X1394506D2*
X1436652D1*
X1468613D2*
X1517605D1*
X1603701D2*
X1621654D1*
X870721Y735039D2*
X914492D1*
X1026220D2*
X1038189D1*
X1392379D2*
X1437497D1*
X1477448D2*
X1510000D1*
X872131Y732047D2*
X928742D1*
X1016763D2*
X1042562D1*
X1390214D2*
X1438879D1*
X1487008D2*
X1501969D1*
X873890Y729055D2*
X945511D1*
X1007358D2*
X1046425D1*
X1387779D2*
X1441126D1*
X875932Y726063D2*
X963293D1*
X997515D2*
X1049958D1*
X1385177D2*
X1444752D1*
X878613Y723071D2*
X981339D1*
X987323D2*
X1053524D1*
X1127953D2*
D3*
X1382696D2*
X1450204D1*
X881954Y720079D2*
X1057311D1*
X1126790D2*
X1136929D1*
X1193780D2*
X1202756D1*
X1380474D2*
X1458132D1*
X1513937D2*
X1540866D1*
X885064Y717087D2*
X1061100D1*
X1127106D2*
X1145906D1*
X1178819D2*
X1201271D1*
X1378270D2*
X1468814D1*
X1500566D2*
X1547399D1*
X887362Y714094D2*
X1064624D1*
X1128851D2*
X1199638D1*
X1375807D2*
X1481024D1*
X1487008D2*
X1553427D1*
X889078Y711102D2*
X1067898D1*
X1130641D2*
X1198296D1*
X1373095D2*
X1558822D1*
X1618661D2*
X1636614D1*
X890393Y708110D2*
X1071006D1*
X1132120D2*
X1197491D1*
X1370242D2*
X1563859D1*
X1612677D2*
X1647285D1*
X891489Y705118D2*
X1073946D1*
X1131927D2*
X1197186D1*
X1367408D2*
X1568922D1*
X1606693D2*
X1656326D1*
X892658Y702126D2*
X1020350D1*
X1035095D2*
X1076565D1*
X1131147D2*
X1197398D1*
X1364806D2*
X1574262D1*
X1600709D2*
X1663428D1*
X893970Y699134D2*
X1014752D1*
X1046791D2*
X1078734D1*
X1129982D2*
X1159513D1*
X1181811D2*
X1198156D1*
X1362433D2*
X1579764D1*
X1594724D2*
X1669528D1*
X895375Y696142D2*
X1009510D1*
X1058480D2*
X1080491D1*
X1128629D2*
X1150770D1*
X1187795D2*
X1199365D1*
X1359829D2*
X1659334D1*
X896835Y693150D2*
X1004416D1*
X1070581D2*
X1081894D1*
X1127264D2*
X1143558D1*
X1193780D2*
X1200945D1*
X1356643D2*
X1513569D1*
X1531878D2*
X1648544D1*
X898314Y690157D2*
X965162D1*
X990315D2*
X999291D1*
X1083071D2*
D3*
X1126037D2*
X1137125D1*
X1199764D2*
X1202756D1*
X1353161D2*
X1500207D1*
X1537745D2*
X1638373D1*
X899807Y687165D2*
X959811D1*
X1124961D2*
X1130945D1*
X1349774D2*
X1485168D1*
X1543243D2*
X1630141D1*
X901311Y684173D2*
X955824D1*
X1346557D2*
X1469055D1*
X1548141D2*
X1624119D1*
X902914Y681181D2*
X956448D1*
X1343447D2*
X1418189D1*
X1552755D2*
X1619439D1*
X904824Y678189D2*
X957402D1*
X981339D2*
X987323D1*
X1340304D2*
X1388268D1*
X1557903D2*
X1614890D1*
X907377Y675197D2*
X1044173D1*
X1336913D2*
X1395400D1*
X1564050D2*
X1609593D1*
X910993Y672205D2*
X1058304D1*
X1333186D2*
X1402776D1*
X1570787D2*
X1603701D1*
X915914Y669213D2*
X1070632D1*
X1329320D2*
X1410542D1*
X921314Y666220D2*
X1080971D1*
X1325412D2*
X1418799D1*
X1481024D2*
X1513937D1*
X926259Y663228D2*
X1089490D1*
X1321320D2*
X1427402D1*
X1467466D2*
X1517517D1*
X928754Y660236D2*
X1096392D1*
X1317041D2*
X1436142D1*
X1454094D2*
X1521763D1*
X929680Y657244D2*
X1102012D1*
X1312641D2*
X1526859D1*
X930270Y654252D2*
X1020359D1*
X1086063D2*
X1107008D1*
X1308097D2*
X1532819D1*
X930985Y651260D2*
X1014839D1*
X1303340D2*
X1539609D1*
X1573780D2*
X1576772D1*
X932056Y648268D2*
X1009878D1*
X1298414D2*
X1546850D1*
X1561811D2*
X1601501D1*
X934822Y645276D2*
X1005276D1*
X1293475D2*
X1624230D1*
X938662Y642283D2*
X1011260D1*
X1288304D2*
X1645591D1*
X943912Y639291D2*
X1017256D1*
X1282521D2*
X1482788D1*
X1486420D2*
X1643380D1*
X951319Y636299D2*
X1023345D1*
X1276109D2*
X1471542D1*
X1497134D2*
X1639888D1*
X961879Y633307D2*
X1029734D1*
X1269376D2*
X1382432D1*
X1396657D2*
X1462438D1*
X1507008D2*
X1634842D1*
X975420Y630315D2*
X1036657D1*
X1262427D2*
X1362215D1*
X1404402D2*
X1454530D1*
X1516087D2*
X1628322D1*
X990315Y627323D2*
X1044300D1*
X1254960D2*
X1343400D1*
X1411456D2*
X1446870D1*
X1524531D2*
X1558269D1*
X1576772D2*
X1620648D1*
X990315Y624331D2*
X1052866D1*
X1246746D2*
X1326414D1*
X1418189D2*
X1439134D1*
X1532703D2*
X1551235D1*
X1585748D2*
X1612299D1*
X990315Y621339D2*
X1062515D1*
X1237558D2*
X1310472D1*
X1540866D2*
X1543858D1*
X1594724D2*
X1603701D1*
X990315Y618346D2*
X1073599D1*
X1226709D2*
X1317850D1*
X990327Y615354D2*
X1086886D1*
X1213121D2*
X1324798D1*
X990432Y612362D2*
X1102816D1*
X1196079D2*
X1331601D1*
X1409213D2*
X1427165D1*
X990825Y609370D2*
X1120903D1*
X1176118D2*
X1338520D1*
X1398844D2*
X1434519D1*
X991647Y606378D2*
X1345475D1*
X1388943D2*
X1441258D1*
X992807Y603386D2*
X1352362D1*
X1379291D2*
X1447295D1*
X994162Y600394D2*
X1452744D1*
X995693Y597402D2*
X1457934D1*
X997452Y594409D2*
X1032679D1*
X1049683D2*
X1463138D1*
X999382Y591417D2*
X1033526D1*
X1051828D2*
X1235669D1*
X1245096D2*
X1469051D1*
X1001317Y588425D2*
X1034694D1*
X1053653D2*
X1238661D1*
X1260682D2*
X1477861D1*
X1003391Y585433D2*
X1036039D1*
X1055299D2*
X1241654D1*
X1275907D2*
X1491653D1*
X1005800Y582441D2*
X1037478D1*
X1056865D2*
X1095039D1*
X1104466D2*
X1244657D1*
X1290049D2*
X1509375D1*
X1008491Y579449D2*
X1038960D1*
X1058480D2*
X1095051D1*
X1111076D2*
X1164321D1*
X1169843D2*
X1247766D1*
X1302702D2*
X1528169D1*
X1011336Y576457D2*
X1040544D1*
X1060269D2*
X1095156D1*
X1117336D2*
X1165074D1*
X1172835D2*
X1251268D1*
X1313701D2*
X1400813D1*
X1421169D2*
X1546850D1*
X1014156Y573465D2*
X1042322D1*
X1062200D2*
X1095538D1*
X1122630D2*
X1165966D1*
X1175827D2*
X1255581D1*
X1323348D2*
X1392964D1*
X1430041D2*
X1544640D1*
X1016630Y570472D2*
X1044249D1*
X1064033D2*
X1096254D1*
X1126899D2*
X1166976D1*
X1178819D2*
X1260936D1*
X1332606D2*
X1385513D1*
X1438636D2*
X1541148D1*
X1018410Y567480D2*
X1046080D1*
X1065726D2*
X1097033D1*
X1130389D2*
X1168364D1*
X1181811D2*
X1267137D1*
X1342296D2*
X1377996D1*
X1446884D2*
X1536102D1*
X1019486Y564488D2*
X1047762D1*
X1067419D2*
X1097672D1*
X1133146D2*
X1170080D1*
X1184815D2*
X1273549D1*
X1352362D2*
X1370315D1*
X1454988D2*
X1529570D1*
X1026220Y561496D2*
X1049350D1*
X1069344D2*
X1098447D1*
X1135040D2*
X1171815D1*
X1187912D2*
X1279368D1*
X1463059D2*
X1521778D1*
X1027843Y558504D2*
X1050881D1*
X1071679D2*
X1099789D1*
X1136194D2*
X1173468D1*
X1191297D2*
X1284002D1*
X1471015D2*
X1512942D1*
X1030081Y555512D2*
X1052394D1*
X1074338D2*
X1101824D1*
X1137089D2*
X1175145D1*
X1195135D2*
X1287403D1*
X1478969D2*
X1503204D1*
X1033020Y552520D2*
X1053894D1*
X1077194D2*
X1104348D1*
X1138126D2*
X1177075D1*
X1199532D2*
X1290165D1*
X1487008D2*
X1492992D1*
X1036536Y549528D2*
X1055394D1*
X1080231D2*
X1107136D1*
X1139372D2*
X1179548D1*
X1205016D2*
X1292865D1*
X1040228Y546535D2*
X1056888D1*
X1083593D2*
X1110059D1*
X1140747D2*
X1182927D1*
X1212666D2*
X1295682D1*
X1043830Y543543D2*
X1058375D1*
X1087411D2*
X1113126D1*
X1142196D2*
X1187865D1*
X1223206D2*
X1298695D1*
X1340394D2*
X1367323D1*
X1047586Y540551D2*
X1059764D1*
X1091665D2*
X1116500D1*
X1143683D2*
X1194687D1*
X1235715D2*
X1302109D1*
X1333017D2*
X1376299D1*
X1436142D2*
X1451102D1*
X1051906Y537559D2*
X1060878D1*
X1096393D2*
X1120310D1*
X1145279D2*
X1202687D1*
X1247638D2*
X1306108D1*
X1326108D2*
X1385276D1*
X1409213D2*
X1449480D1*
X1056864Y534567D2*
X1061601D1*
X1101644D2*
X1124461D1*
X1147175D2*
X1210587D1*
X1257100D2*
X1310472D1*
X1319449D2*
X1447230D1*
X1062126Y531575D2*
D3*
X1107279D2*
X1128796D1*
X1149609D2*
X1217495D1*
X1264164D2*
X1444163D1*
X1113222Y528583D2*
X1133214D1*
X1152724D2*
X1223235D1*
X1269604D2*
X1440032D1*
X1119640Y525591D2*
X1137572D1*
X1156583D2*
X1227980D1*
X1274166D2*
X1434639D1*
X1126804Y522598D2*
X1141670D1*
X1160866D2*
X1187795D1*
X1200980D2*
X1231921D1*
X1278414D2*
X1427969D1*
X1134693Y519606D2*
X1145382D1*
X1212097D2*
X1235360D1*
X1282397D2*
X1358821D1*
X1373307D2*
X1420300D1*
X1142913Y516614D2*
X1148898D1*
X1220601D2*
X1238531D1*
X1286010D2*
X1353683D1*
X1382283D2*
X1412205D1*
X1226943Y513622D2*
X1241485D1*
X1289425D2*
X1348857D1*
X1232042Y510630D2*
X1244043D1*
X1293018D2*
X1344141D1*
X1236826Y507638D2*
X1246022D1*
X1297091D2*
X1339341D1*
X1241654Y504646D2*
X1247638D1*
X1301496D2*
X1334409D1*
X527346Y1119478D2*
X527943Y1117982D1*
X530004Y1116486D1*
X532939Y1114990D1*
X536323Y1113493D1*
X533331Y1119478D2*
X536365Y1117982D1*
X538764Y1116486D1*
X539768Y1114990D1*
X539315Y1113493D1*
X497425Y1111997D2*
X496820Y1110501D1*
X496928Y1109005D1*
X497322Y1107509D1*
X497906Y1106013D1*
X498588Y1104517D1*
X499309Y1103021D1*
X500049Y1101525D1*
X500792Y1100029D1*
X501540Y1098533D1*
X502287Y1097037D1*
X503030Y1095541D1*
X503730Y1094045D1*
X504336Y1092549D1*
X504868Y1091052D1*
X505448Y1089556D1*
X506097Y1088060D1*
X506753Y1086564D1*
X507339Y1085068D1*
X507858Y1083572D1*
X508383Y1082076D1*
X508845Y1080580D1*
X509160Y1079084D1*
X509394Y1077588D1*
X498921Y1111997D2*
X499849Y1110501D1*
X500702Y1109005D1*
X501503Y1107509D1*
X502273Y1106013D1*
X503031Y1104517D1*
X503781Y1103021D1*
X504526Y1101525D1*
X505226Y1100029D1*
X505832Y1098533D1*
X506364Y1097037D1*
X506944Y1095541D1*
X507599Y1094045D1*
X508301Y1092549D1*
X509026Y1091052D1*
X509719Y1089556D1*
X510321Y1088060D1*
X510847Y1086564D1*
X511374Y1085068D1*
X511827Y1083572D1*
X512061Y1082076D1*
X512109Y1080580D1*
X511571Y1079084D1*
X510890Y1077588D1*
X525850Y1111997D2*
X525149Y1110501D1*
X524354Y1109005D1*
X528146Y1107509D1*
X532172Y1106013D1*
X536323Y1104517D1*
X527346Y1111997D2*
X531363Y1110501D1*
X534344Y1109005D1*
X536508Y1107509D1*
X537253Y1106013D1*
X537819Y1104517D1*
X461520Y1070108D2*
Y1068612D1*
Y1067115D1*
Y1065619D1*
X536323Y1070108D2*
Y1068612D1*
Y1067115D1*
Y1065619D1*
X500417Y1029714D2*
Y1028218D1*
Y1026722D1*
Y1025226D1*
X500423Y1023730D1*
X500476Y1022234D1*
X500666Y1020738D1*
X501025Y1019241D1*
X501408Y1017745D1*
X501669Y1016249D1*
X501808Y1014753D1*
X501871Y1013257D1*
X501898Y1011761D1*
X501908Y1010265D1*
X501911Y1008769D1*
X501913Y1007273D1*
Y1005777D1*
Y1004281D1*
Y1002785D1*
Y1001289D1*
Y999793D1*
Y998297D1*
Y996801D1*
Y995304D1*
Y993808D1*
Y992312D1*
Y990816D1*
Y989320D1*
Y987824D1*
Y986328D1*
Y984832D1*
Y983336D1*
Y981840D1*
Y980344D1*
X501908Y978848D1*
X501855Y977352D1*
X501664Y975856D1*
X501306Y974360D1*
X500922Y972864D1*
X500661Y971367D1*
X500523Y969871D1*
X500459Y968375D1*
X500433Y966879D1*
X500423Y965383D1*
X500417Y963887D1*
X504906Y1029714D2*
Y1028218D1*
Y1026722D1*
Y1025226D1*
X504900Y1023730D1*
X504847Y1022234D1*
X504656Y1020738D1*
X504298Y1019241D1*
X503915Y1017745D1*
X503654Y1016249D1*
X503515Y1014753D1*
X503451Y1013257D1*
X503425Y1011761D1*
X503415Y1010265D1*
X503411Y1008769D1*
X503410Y1007273D1*
Y1005777D1*
Y1004281D1*
X503409Y1002785D1*
Y1001289D1*
Y999793D1*
Y998297D1*
Y996801D1*
Y995304D1*
Y993808D1*
Y992312D1*
Y990816D1*
Y989320D1*
Y987824D1*
Y986328D1*
Y984832D1*
Y983336D1*
Y981840D1*
X503415Y980344D1*
X503468Y978848D1*
X503659Y977352D1*
X504017Y975856D1*
X504400Y974360D1*
X504661Y972864D1*
X504800Y971367D1*
X504864Y969871D1*
X504890Y968375D1*
X504900Y966879D1*
X504904Y965383D1*
X504906Y963887D1*
X527346Y947430D2*
X527919Y945934D1*
X529719Y944438D1*
X532136Y942942D1*
X534827Y941446D1*
X531835Y947430D2*
X535248Y945934D1*
X538177Y944438D1*
X540811Y942942D1*
X539315Y941446D1*
X516874Y945934D2*
Y944438D1*
Y942942D1*
Y941446D1*
Y939950D1*
Y938454D1*
Y936958D1*
Y935462D1*
Y933966D1*
Y932470D1*
Y930974D1*
Y929478D1*
Y927982D1*
Y926486D1*
Y924990D1*
Y923493D1*
Y921997D1*
Y920501D1*
Y919005D1*
Y917509D1*
Y916013D1*
Y914517D1*
Y913021D1*
X521362Y945934D2*
Y944438D1*
Y942942D1*
Y941446D1*
Y939950D1*
Y938454D1*
Y936958D1*
Y935462D1*
Y933966D1*
Y932470D1*
Y930974D1*
Y929478D1*
Y927982D1*
Y926486D1*
Y924990D1*
Y923493D1*
Y921997D1*
Y920501D1*
Y919005D1*
Y917509D1*
Y916013D1*
Y914517D1*
Y913021D1*
X537819D1*
Y911525D1*
Y910029D1*
Y908533D1*
Y907037D1*
X521362D1*
Y905541D1*
Y904045D1*
Y902549D1*
Y901052D1*
Y899556D1*
Y898060D1*
Y896564D1*
Y895068D1*
Y893572D1*
Y892076D1*
Y890580D1*
Y889084D1*
Y887588D1*
Y886092D1*
Y884596D1*
Y883100D1*
Y881604D1*
Y880108D1*
Y878612D1*
Y877115D1*
Y875619D1*
Y874123D1*
X474984Y944438D2*
X474459Y942942D1*
X473951Y941446D1*
X473488Y939950D1*
X477402Y938454D1*
X481195Y936958D1*
X484792Y935462D1*
X488142Y933966D1*
X491313Y932470D1*
X494386Y930974D1*
X497425Y929478D1*
X476480Y944438D2*
X479704Y942942D1*
X483067Y941446D1*
X486446Y939950D1*
X489700Y938454D1*
X492820Y936958D1*
X495753Y935462D1*
X498217Y933966D1*
X500154Y932470D1*
X500931Y930974D1*
X500417Y929478D1*
X525850Y938454D2*
X526271Y936958D1*
X527906Y935462D1*
X530382Y933966D1*
X533331Y932470D1*
X530339Y938454D2*
X533255Y936958D1*
X535781Y935462D1*
X536921Y933966D1*
X537819Y932470D1*
X467504Y913021D2*
X465380Y911525D1*
X463705Y910029D1*
X462410Y908533D1*
X461893Y907037D1*
X461454Y905541D1*
X460984Y904045D1*
X460555Y902549D1*
X460277Y901052D1*
X460138Y899556D1*
X460125Y898060D1*
X460290Y896564D1*
X460650Y895068D1*
X461092Y893572D1*
X461520Y892076D1*
X467504Y908533D2*
X466302Y907037D1*
X465427Y905541D1*
X464926Y904045D1*
X464683Y902549D1*
X464578Y901052D1*
X464536Y899556D1*
X464520Y898060D1*
X464515Y896564D1*
X464513Y895068D1*
X464512Y893572D1*
Y892076D1*
X516874Y908533D2*
Y907037D1*
Y905541D1*
Y904045D1*
Y902549D1*
Y901052D1*
Y899556D1*
Y898060D1*
Y896564D1*
Y895068D1*
Y893572D1*
Y892076D1*
Y890580D1*
Y889084D1*
Y887588D1*
Y886092D1*
Y884596D1*
Y883100D1*
Y881604D1*
Y880108D1*
Y878612D1*
Y877115D1*
Y875619D1*
Y874123D1*
X497425Y887588D2*
X493511Y886092D1*
X489719Y884596D1*
X486127Y883100D1*
X482835Y881604D1*
X479920Y880108D1*
X477521Y878612D1*
X475536Y877115D1*
X474584Y875619D1*
X474537Y874123D1*
X474984Y872627D1*
X501913Y887588D2*
X501341Y886092D1*
X499486Y884596D1*
X496870Y883100D1*
X493732Y881604D1*
X490424Y880108D1*
X487197Y878612D1*
X484128Y877115D1*
X481304Y875619D1*
X478797Y874123D1*
X476480Y872627D1*
X501913Y859163D2*
X501970Y857667D1*
X502168Y856171D1*
X502579Y854675D1*
X503159Y853178D1*
X503831Y851682D1*
X504544Y850186D1*
X505227Y848690D1*
X505780Y847194D1*
X506140Y845698D1*
X506402Y844202D1*
X503409D1*
Y842706D1*
Y841210D1*
Y839714D1*
Y838218D1*
Y836722D1*
Y835226D1*
Y833730D1*
X491441Y832234D1*
X504906Y859163D2*
X505474Y857667D1*
X506117Y856171D1*
X506812Y854675D1*
X507538Y853178D1*
X508282Y851682D1*
X509075Y850186D1*
X509964Y848690D1*
X510939Y847194D1*
X511964Y845698D1*
X513229Y844202D1*
X514922Y842706D1*
X516874Y841210D1*
X522858Y856171D2*
X522621Y854675D1*
X522198Y853178D1*
X521614Y851682D1*
X520941Y850186D1*
X520222Y848690D1*
X519475Y847194D1*
X518620Y845698D1*
X517451Y844202D1*
X515806Y842706D1*
X513882Y841210D1*
X469000Y854675D2*
X467107Y853178D1*
X465585Y851682D1*
X465024Y850186D1*
X464673Y848690D1*
X464348Y847194D1*
X463936Y845698D1*
X463532Y844202D1*
X463264Y842706D1*
X463122Y841210D1*
X463064Y839714D1*
X463090Y838218D1*
X463270Y836722D1*
X463631Y835226D1*
X464072Y833730D1*
X464581Y832234D1*
X465322Y830738D1*
X466345Y829241D1*
X467504Y827745D1*
X473488Y854675D2*
X474984Y853178D1*
X472471Y851682D1*
X470143Y850186D1*
X468329Y848690D1*
X466942Y847194D1*
X466459Y845698D1*
X466199Y844202D1*
X466082Y842706D1*
X466035Y841210D1*
X466023Y839714D1*
X466075Y838218D1*
X466322Y836722D1*
X466923Y835226D1*
X467880Y833730D1*
X469000Y832234D1*
X486953Y854675D2*
Y853178D1*
Y851682D1*
Y850186D1*
Y848690D1*
Y847194D1*
Y845698D1*
Y844202D1*
Y842706D1*
Y841210D1*
Y839714D1*
Y838218D1*
Y836722D1*
Y835226D1*
Y833730D1*
Y832234D1*
X489945Y854675D2*
Y853178D1*
Y851682D1*
Y850186D1*
Y848690D1*
Y847194D1*
Y845698D1*
Y844202D1*
Y842706D1*
Y841210D1*
Y839714D1*
Y838218D1*
Y836722D1*
Y835226D1*
Y833730D1*
X501913Y832234D1*
X524354Y854675D2*
X525850Y853178D1*
X527346Y851682D1*
X525856Y850186D1*
X524413Y848690D1*
X523107Y847194D1*
X521975Y845698D1*
X520921Y844202D1*
X519941Y842706D1*
X519098Y841210D1*
X518861Y839714D1*
X519257Y838218D1*
X520418Y836722D1*
X522131Y835226D1*
X524535Y833730D1*
X527346Y832234D1*
X533331Y844202D2*
X532403Y842706D1*
X531544Y841210D1*
X530696Y839714D1*
X529777Y838218D1*
X528743Y836722D1*
X527552Y835226D1*
X526067Y833730D1*
X524354Y832234D1*
X534827Y844202D2*
X535408Y842706D1*
X535250Y841210D1*
X534315Y839714D1*
X533170Y838218D1*
X531998Y836722D1*
X530915Y835226D1*
X529827Y833730D1*
X528621Y832234D1*
X527346Y830738D1*
X529984Y829241D1*
X532128Y827745D1*
X533647Y826249D1*
X534827Y824753D1*
X506402Y842706D2*
Y841210D1*
Y839714D1*
Y838218D1*
Y836722D1*
Y835226D1*
Y833730D1*
Y832234D1*
Y830738D1*
Y829241D1*
Y827745D1*
Y826249D1*
Y824753D1*
Y823257D1*
Y821761D1*
Y820265D1*
Y818769D1*
Y817273D1*
Y815777D1*
Y814281D1*
Y812785D1*
Y811289D1*
Y809793D1*
Y808297D1*
Y806801D1*
Y805304D1*
X506407Y803808D1*
X506464Y802312D1*
X506696Y800816D1*
X507207Y799320D1*
X507898Y797824D1*
Y842706D2*
X509394Y841210D1*
X510890Y839714D1*
X512386Y838218D1*
X513882Y836722D1*
X515384Y835226D1*
X516932Y833730D1*
X518625Y832234D1*
X520538Y830738D1*
X522666Y829241D1*
X525026Y827745D1*
X527626Y826249D1*
X530339Y824753D1*
X486953Y827745D2*
Y826249D1*
Y824753D1*
Y823257D1*
Y821761D1*
Y820265D1*
Y818769D1*
Y817273D1*
X486929Y815777D1*
X486859Y814281D1*
X486158Y812785D1*
X483801Y811289D1*
X480819Y809793D1*
X477808Y808297D1*
X475117Y806801D1*
X472810Y805304D1*
X470863Y803808D1*
X469157Y802312D1*
X467620Y800816D1*
X466278Y799320D1*
X465133Y797824D1*
X464068Y796328D1*
X463023Y794832D1*
X462036Y793336D1*
X461051Y791840D1*
X460024Y790344D1*
X463016Y788848D1*
X489945Y827745D2*
Y826249D1*
Y824753D1*
Y823257D1*
Y821761D1*
Y820265D1*
Y818769D1*
Y817273D1*
Y815777D1*
Y814281D1*
Y812785D1*
X501913Y811289D1*
X503409Y827745D2*
Y826249D1*
Y824753D1*
Y823257D1*
Y821761D1*
Y820265D1*
Y818769D1*
Y817273D1*
Y815777D1*
Y814281D1*
Y812785D1*
X491441Y811289D1*
X531835Y815777D2*
X528899Y814281D1*
X526105Y812785D1*
X523530Y811289D1*
X521170Y809793D1*
X519047Y808297D1*
X517184Y806801D1*
X515508Y805304D1*
X513926Y803808D1*
X512342Y802312D1*
X510602Y800816D1*
X508590Y799320D1*
X506402Y797824D1*
X533331Y815777D2*
Y814281D1*
Y812785D1*
Y811289D1*
Y809793D1*
Y808297D1*
Y806801D1*
Y805304D1*
Y803808D1*
Y802312D1*
Y800816D1*
Y799320D1*
Y797824D1*
Y796328D1*
Y794832D1*
Y793336D1*
Y791840D1*
Y790344D1*
Y788848D1*
Y787352D1*
Y785856D1*
X528843Y811289D2*
X527109Y809793D1*
X525190Y808297D1*
X523122Y806801D1*
X521064Y805304D1*
X519300Y803808D1*
X517902Y802312D1*
X517476Y800816D1*
X517799Y799320D1*
X518810Y797824D1*
X519996Y796328D1*
X521185Y794832D1*
X522264Y793336D1*
X523297Y791840D1*
X524354Y790344D1*
X522858Y788848D1*
X530339Y811289D2*
Y809793D1*
Y808297D1*
Y806801D1*
Y805304D1*
Y803808D1*
Y802312D1*
Y800816D1*
Y799320D1*
Y797824D1*
Y796328D1*
Y794832D1*
Y793336D1*
Y791840D1*
Y790344D1*
Y788848D1*
Y787352D1*
Y785856D1*
X489945Y808297D2*
Y806801D1*
Y805304D1*
Y803808D1*
Y802312D1*
Y800816D1*
Y799320D1*
Y797824D1*
Y796328D1*
Y794832D1*
Y793336D1*
Y791840D1*
Y790344D1*
Y788848D1*
Y787352D1*
Y785856D1*
Y784360D1*
X503409Y808297D2*
Y806801D1*
Y805304D1*
Y803808D1*
Y802312D1*
X503421Y800816D1*
X503535Y799320D1*
X503807Y797824D1*
X504973Y796328D1*
X506402Y794832D1*
X505423Y793336D1*
X504425Y791840D1*
X503409Y790344D1*
X502470Y788848D1*
X501615Y787352D1*
X500779Y785856D1*
X499886Y784360D1*
X498921Y782864D1*
X500417Y781367D1*
X485457Y806801D2*
X481557Y805304D1*
X478311Y803808D1*
X475812Y802312D1*
X473830Y800816D1*
X472130Y799320D1*
X470603Y797824D1*
X469266Y796328D1*
X468123Y794832D1*
X467064Y793336D1*
X466060Y791840D1*
X465221Y790344D1*
X464512Y788848D1*
X486953Y806801D2*
Y805304D1*
Y803808D1*
Y802312D1*
Y800816D1*
Y799320D1*
Y797824D1*
Y796328D1*
Y794832D1*
Y793336D1*
Y791840D1*
Y790344D1*
Y788848D1*
Y787352D1*
Y785856D1*
Y784360D1*
X513882Y797824D2*
X512392Y796328D1*
X510948Y794832D1*
X509649Y793336D1*
X508563Y791840D1*
X507648Y790344D1*
X506823Y788848D1*
X506046Y787352D1*
X505290Y785856D1*
X504578Y784360D1*
X503953Y782864D1*
X503409Y781367D1*
X513882Y797824D2*
X515372Y796328D1*
X516816Y794832D1*
X518120Y793336D1*
X519245Y791840D1*
X520296Y790344D1*
X521362Y788848D1*
X464512Y764911D2*
X463253Y763415D1*
X462186Y761919D1*
X461326Y760423D1*
X460712Y758927D1*
X460308Y757430D1*
X460510Y755934D1*
X461624Y754438D1*
X463016Y752942D1*
X533331Y764911D2*
Y763415D1*
Y761919D1*
Y760423D1*
Y758927D1*
Y757430D1*
Y755934D1*
Y754438D1*
Y752942D1*
Y751446D1*
Y749950D1*
Y748454D1*
Y746958D1*
Y745462D1*
Y743966D1*
Y742470D1*
Y740974D1*
Y739478D1*
Y737982D1*
X467504Y761919D2*
X466302Y760423D1*
X465427Y758927D1*
X464926Y757430D1*
X464682Y755934D1*
X464574Y754438D1*
X464512Y752942D1*
X510890Y761919D2*
Y760423D1*
Y758927D1*
Y757430D1*
Y755934D1*
Y754438D1*
Y752942D1*
Y751446D1*
Y749950D1*
Y748454D1*
Y746958D1*
Y745462D1*
Y743966D1*
Y742470D1*
Y740974D1*
Y739478D1*
Y737982D1*
X513882Y761919D2*
Y760423D1*
Y758927D1*
Y757430D1*
Y755934D1*
Y754438D1*
Y752942D1*
Y751446D1*
Y749950D1*
Y748454D1*
X513905Y746958D1*
X513975Y745462D1*
X514677Y743966D1*
X517008Y742470D1*
X519866Y740974D1*
X521362Y761919D2*
Y760423D1*
Y758927D1*
Y757430D1*
Y755934D1*
Y754438D1*
Y752942D1*
Y751446D1*
Y749950D1*
Y748454D1*
X521339Y746958D1*
X521269Y745462D1*
X520567Y743966D1*
X518236Y742470D1*
X515378Y740974D1*
X522858Y761919D2*
Y760423D1*
Y758927D1*
Y757430D1*
Y755934D1*
Y754438D1*
Y752942D1*
Y751446D1*
Y749950D1*
Y748454D1*
X522882Y746958D1*
X522952Y745462D1*
X523653Y743966D1*
X525985Y742470D1*
X528843Y740974D1*
X530339Y761919D2*
Y760423D1*
Y758927D1*
Y757430D1*
Y755934D1*
Y754438D1*
Y752942D1*
Y751446D1*
Y749950D1*
Y748454D1*
X530315Y746958D1*
X530245Y745462D1*
X529544Y743966D1*
X527212Y742470D1*
X524354Y740974D1*
X486953Y757430D2*
Y755934D1*
Y754438D1*
Y752942D1*
Y751446D1*
Y749950D1*
Y748454D1*
Y746958D1*
Y745462D1*
Y743966D1*
X488449Y757430D2*
Y755934D1*
Y754438D1*
Y752942D1*
Y751446D1*
Y749950D1*
Y748454D1*
Y746958D1*
Y745462D1*
X500417Y743966D1*
X501913Y752942D2*
Y751446D1*
Y749950D1*
Y748454D1*
Y746958D1*
Y745462D1*
X489945Y743966D1*
X503409Y752942D2*
Y751446D1*
Y749950D1*
Y748454D1*
Y746958D1*
Y745462D1*
Y743966D1*
Y742470D1*
Y740974D1*
Y739478D1*
Y737982D1*
Y736486D1*
Y734990D1*
Y733493D1*
Y731997D1*
Y730501D1*
Y729005D1*
Y727509D1*
Y726013D1*
Y724517D1*
Y723021D1*
Y721525D1*
Y720029D1*
Y718533D1*
Y717037D1*
Y715541D1*
Y714045D1*
X467504Y743966D2*
Y742470D1*
Y740974D1*
X486953D2*
Y739478D1*
Y737982D1*
Y736486D1*
Y734990D1*
Y733493D1*
X486941Y731997D1*
X486818Y730501D1*
X486520Y729005D1*
X484925Y727509D1*
X482543Y726013D1*
X479703Y724517D1*
X476912Y723021D1*
X474525Y721525D1*
X472682Y720029D1*
X471291Y718533D1*
X470125Y717037D1*
X469101Y715541D1*
X468237Y714045D1*
X467990Y712549D1*
X468408Y711052D1*
X469000Y709556D1*
X488449Y740974D2*
Y739478D1*
Y737982D1*
Y736486D1*
Y734990D1*
Y733493D1*
Y731997D1*
Y730501D1*
Y729005D1*
Y727509D1*
X500417Y726013D1*
X501913Y740974D2*
Y739478D1*
Y737982D1*
Y736486D1*
Y734990D1*
Y733493D1*
Y731997D1*
Y730501D1*
Y729005D1*
Y727509D1*
X489945Y726013D1*
X510890D2*
Y724517D1*
Y723021D1*
Y721525D1*
Y720029D1*
Y718533D1*
Y717037D1*
Y715541D1*
Y714045D1*
Y712549D1*
Y711052D1*
Y709556D1*
Y708060D1*
Y706564D1*
Y705068D1*
Y703572D1*
Y702076D1*
X533331Y726013D2*
Y724517D1*
Y723021D1*
Y721525D1*
Y720029D1*
Y718533D1*
Y717037D1*
Y715541D1*
Y714045D1*
Y712549D1*
Y711052D1*
Y709556D1*
Y708060D1*
Y706564D1*
Y705068D1*
Y703572D1*
Y702076D1*
Y700580D1*
Y699084D1*
X483961Y723021D2*
X481263Y721525D1*
X478892Y720029D1*
X476894Y718533D1*
X475161Y717037D1*
X473619Y715541D1*
X472329Y714045D1*
X471420Y712549D1*
X470875Y711052D1*
X470496Y709556D1*
X486953Y723021D2*
Y721525D1*
Y720029D1*
Y718533D1*
Y717037D1*
Y715541D1*
Y714045D1*
Y712549D1*
Y711052D1*
Y709556D1*
X488449Y723021D2*
Y721525D1*
Y720029D1*
Y718533D1*
Y717037D1*
Y715541D1*
Y714045D1*
Y712549D1*
Y711052D1*
Y709556D1*
X501913Y723021D2*
Y721525D1*
Y720029D1*
Y718533D1*
Y717037D1*
Y715541D1*
Y714045D1*
X513882Y723021D2*
Y721525D1*
Y720029D1*
Y718533D1*
Y717037D1*
Y715541D1*
Y714045D1*
Y712549D1*
Y711052D1*
Y709556D1*
X513905Y708060D1*
X513975Y706564D1*
X514677Y705068D1*
X517008Y703572D1*
X519866Y702076D1*
X521362Y723021D2*
Y721525D1*
Y720029D1*
Y718533D1*
Y717037D1*
Y715541D1*
Y714045D1*
Y712549D1*
Y711052D1*
Y709556D1*
X521339Y708060D1*
X521269Y706564D1*
X520567Y705068D1*
X518236Y703572D1*
X515378Y702076D1*
X522858Y723021D2*
Y721525D1*
Y720029D1*
Y718533D1*
Y717037D1*
Y715541D1*
Y714045D1*
Y712549D1*
Y711052D1*
Y709556D1*
X522882Y708060D1*
X522952Y706564D1*
X523653Y705068D1*
X525985Y703572D1*
X528843Y702076D1*
X530339Y723021D2*
Y721525D1*
Y720029D1*
Y718533D1*
Y717037D1*
Y715541D1*
Y714045D1*
Y712549D1*
Y711052D1*
Y709556D1*
X530315Y708060D1*
X530245Y706564D1*
X529544Y705068D1*
X527212Y703572D1*
X524354Y702076D1*
X460024D2*
Y700580D1*
Y699084D1*
X1160866Y1300551D2*
X1153859Y1297559D1*
X1146972Y1294567D1*
X1140328Y1291575D1*
X1133786Y1288583D1*
X1127451Y1285591D1*
X1121872Y1282598D1*
X1117432Y1279606D1*
X1114060Y1276614D1*
X1111561Y1273622D1*
X1109697Y1270630D1*
X1108390Y1267638D1*
X1107638Y1264646D1*
X1107270Y1261654D1*
X1107110Y1258661D1*
X1107045Y1255669D1*
X1107021Y1252677D1*
X1107012Y1249685D1*
X1107009Y1246693D1*
X1107008Y1243701D1*
Y1240709D1*
Y1237717D1*
Y1234724D1*
Y1231732D1*
Y1228740D1*
X1205748Y1300551D2*
X1223600Y1297559D1*
X1239388Y1294567D1*
X1253622Y1291575D1*
X1249227Y1288583D1*
X1244646Y1285591D1*
X1199764Y1291575D2*
X1188521Y1288583D1*
X1178412Y1285591D1*
X1170147Y1282598D1*
X1163881Y1279606D1*
X1159181Y1276614D1*
X1155417Y1273622D1*
X1152216Y1270630D1*
X1149584Y1267638D1*
X1147655Y1264646D1*
X1146247Y1261654D1*
X1145037Y1258661D1*
X1144057Y1255669D1*
X1143450Y1252677D1*
X1143141Y1249685D1*
X1143015Y1246693D1*
X1143064Y1243701D1*
X1143426Y1240709D1*
X1144160Y1237717D1*
X1145047Y1234724D1*
X1145906Y1231732D1*
X1184803Y1291575D2*
X1199764Y1288583D1*
X1214724Y1285591D1*
X1307480D2*
X1298745Y1282598D1*
X1291148Y1279606D1*
X1284675Y1276614D1*
X1278998Y1273622D1*
X1273397Y1270630D1*
X1266953Y1267638D1*
X1259194Y1264646D1*
X1250630Y1261654D1*
X1358346Y1285591D2*
X1371466Y1282598D1*
X1383009Y1279606D1*
X1393197Y1276614D1*
X1402487Y1273622D1*
X1411478Y1270630D1*
X1420973Y1267638D1*
X1431328Y1264646D1*
X1442126Y1261654D1*
X1190787Y1276614D2*
X1187909Y1273622D1*
X1185301Y1270630D1*
X1183026Y1267638D1*
X1180801Y1264646D1*
X1178331Y1261654D1*
X1175616Y1258661D1*
X1172762Y1255669D1*
X1169928Y1252677D1*
X1167337Y1249685D1*
X1165069Y1246693D1*
X1162847Y1243701D1*
X1160377Y1240709D1*
X1157664Y1237717D1*
X1154804Y1234724D1*
X1151890Y1231732D1*
X1199764Y1276614D2*
X1207141Y1273622D1*
X1214099Y1270630D1*
X1220981Y1267638D1*
X1228188Y1264646D1*
X1235669Y1261654D1*
X1466063D2*
X1479300Y1258661D1*
X1488734Y1255669D1*
X1495984Y1252677D1*
X1486408Y1249685D1*
X1476084Y1246693D1*
X1464725Y1243701D1*
X1452411Y1240709D1*
X1439416Y1237717D1*
X1425944Y1234724D1*
X1412205Y1231732D1*
X1328425Y1255669D2*
X1319574Y1252677D1*
X1311087Y1249685D1*
X1303209Y1246693D1*
X1295716Y1243701D1*
X1288029Y1240709D1*
X1279855Y1237717D1*
X1271304Y1234724D1*
X1262598Y1231732D1*
X1319449Y1255669D2*
X1330704Y1252677D1*
X1340941Y1249685D1*
X1349809Y1246693D1*
X1357694Y1243701D1*
X1365322Y1240709D1*
X1373301Y1237717D1*
X1382016Y1234724D1*
X1391260Y1231732D1*
X1211732Y1237717D2*
X1211858Y1234724D1*
X1212358Y1231732D1*
X1213574Y1228740D1*
X1215556Y1225748D1*
X1218095Y1222756D1*
X1221262Y1219764D1*
X1226015Y1216772D1*
X1234112Y1213780D1*
X1246643Y1210787D1*
X1262813Y1207795D1*
X1280551Y1204803D1*
X1208740Y1237717D2*
X1223701Y1234724D1*
X1238661Y1231732D1*
X1513937Y1234724D2*
X1508552Y1231732D1*
X1503916Y1228740D1*
X1500291Y1225748D1*
X1497424Y1222756D1*
X1494596Y1219764D1*
X1491211Y1216772D1*
X1487229Y1213780D1*
X1482767Y1210787D1*
X1478031Y1207795D1*
X1516929Y1234724D2*
Y1231732D1*
X1564803Y1234724D2*
Y1231732D1*
X1576772Y1234724D2*
X1576646Y1231732D1*
X1576146Y1228740D1*
X1574930Y1225748D1*
X1572948Y1222756D1*
X1570444Y1219764D1*
X1567651Y1216772D1*
X1564614Y1213780D1*
X1561042Y1210787D1*
X1556395Y1207795D1*
X1550470Y1204803D1*
X1543858Y1201811D1*
X1068110Y1228740D2*
X1063863Y1225748D1*
X1060511Y1222756D1*
X1057921Y1219764D1*
X1056999Y1216772D1*
X1056478Y1213780D1*
X1056142Y1210787D1*
X1095039Y1228740D2*
X1364331Y1222756D2*
X1353961Y1219764D1*
X1344009Y1216772D1*
X1334100Y1213780D1*
X1323726Y1210787D1*
X1312756Y1207795D1*
X1301496Y1204803D1*
X1397244Y1222756D2*
X1406220Y1219764D1*
X1415197Y1216772D1*
X1424173Y1213780D1*
X1433150Y1210787D1*
X1442126Y1207795D1*
X1023228Y1219764D2*
X1020236Y1216772D1*
X1017244Y1213780D1*
X1014252Y1210787D1*
X1011260Y1207795D1*
X1008268Y1204803D1*
X1005276Y1201811D1*
X1002283Y1198819D1*
X999291Y1195827D1*
X996264Y1192835D1*
X992875Y1189843D1*
X987991Y1186850D1*
X980074Y1183858D1*
X969395Y1180866D1*
X958867Y1177874D1*
X951121Y1174882D1*
X945613Y1171890D1*
X943646Y1168898D1*
X942992Y1165906D1*
X942662Y1162913D1*
X942523Y1159921D1*
X942470Y1156929D1*
X942427Y1153937D1*
X942187Y1150945D1*
X941623Y1147953D1*
X938867Y1144961D1*
X934821Y1141969D1*
X929805Y1138976D1*
X924354Y1135984D1*
X919034Y1132992D1*
X914327Y1130000D1*
X910347Y1127008D1*
X906886Y1124016D1*
X903791Y1121024D1*
X901109Y1118031D1*
X898919Y1115039D1*
X897181Y1112047D1*
X895934Y1109055D1*
X895305Y1106063D1*
X895325Y1103071D1*
X895883Y1100079D1*
X896563Y1097087D1*
X897076Y1094094D1*
X896592Y1091102D1*
X893928Y1088110D1*
X890029Y1085118D1*
X885411Y1082126D1*
X880683Y1079134D1*
X876133Y1076142D1*
X871961Y1073150D1*
X868375Y1070157D1*
X865516Y1067165D1*
X863478Y1064173D1*
X862024Y1061181D1*
X860795Y1058189D1*
X859808Y1055197D1*
X859200Y1052205D1*
X858890Y1049213D1*
X858751Y1046220D1*
X858695Y1043228D1*
X858673Y1040236D1*
X858665Y1037244D1*
X858663Y1034252D1*
X858650Y1031260D1*
X858498Y1028268D1*
X858112Y1025276D1*
X855921Y1022283D1*
X850404Y1019291D1*
X844022Y1016299D1*
X838207Y1013307D1*
X833806Y1010315D1*
X830729Y1007323D1*
X828496Y1004331D1*
X826698Y1001339D1*
X825187Y998346D1*
X824037Y995354D1*
X823349Y992362D1*
X823005Y989370D1*
X822853Y986378D1*
X822792Y983386D1*
X822780Y980394D1*
X822877Y977402D1*
X823256Y974409D1*
X823971Y971417D1*
X824750Y968425D1*
X825377Y965433D1*
X826035Y962441D1*
X826879Y959449D1*
X827710Y956457D1*
X828358Y953465D1*
X829024Y950472D1*
X829881Y947480D1*
X830816Y944488D1*
X831823Y941496D1*
X833147Y938504D1*
X834724Y935512D1*
X827154Y932520D1*
X821063Y929528D1*
X818462Y926535D1*
X817554Y923543D1*
X817090Y920551D1*
X816891Y917559D1*
X816814Y914567D1*
X816786Y911575D1*
X816776Y908583D1*
X816773Y905591D1*
X816772Y902598D1*
Y899606D1*
Y896614D1*
Y893622D1*
X816783Y890630D1*
X816889Y887638D1*
X817282Y884646D1*
X818103Y881654D1*
X819264Y878661D1*
X820607Y875669D1*
X822045Y872677D1*
X823527Y869685D1*
X825111Y866693D1*
X826889Y863701D1*
X828827Y860709D1*
X830753Y857717D1*
X832710Y854724D1*
X834622Y851732D1*
X836098Y848740D1*
X836973Y845748D1*
X837406Y842756D1*
X837584Y839764D1*
X837555Y836772D1*
X837203Y833780D1*
X836496Y830787D1*
X835733Y827795D1*
X835212Y824803D1*
X834935Y821811D1*
X834820Y818819D1*
X834873Y815827D1*
X835246Y812835D1*
X836060Y809843D1*
X837218Y806850D1*
X838572Y803858D1*
X840103Y800866D1*
X841861Y797874D1*
X843780Y794882D1*
X845609Y791890D1*
X847302Y788898D1*
X848983Y785906D1*
X850802Y782913D1*
X852744Y779921D1*
X854570Y776929D1*
X856160Y773937D1*
X857460Y770945D1*
X858552Y767953D1*
X859633Y764961D1*
X860661Y761969D1*
X861638Y758976D1*
X862761Y755984D1*
X864045Y752992D1*
X865351Y750000D1*
X866522Y747008D1*
X867560Y744016D1*
X868621Y741024D1*
X869653Y738031D1*
X870721Y735039D1*
X872131Y732047D1*
X873890Y729055D1*
X875932Y726063D1*
X878613Y723071D1*
X881954Y720079D1*
X885064Y717087D1*
X887362Y714094D1*
X889078Y711102D1*
X890393Y708110D1*
X891489Y705118D1*
X892658Y702126D1*
X893970Y699134D1*
X895375Y696142D1*
X896835Y693150D1*
X898314Y690157D1*
X899807Y687165D1*
X901311Y684173D1*
X902914Y681181D1*
X904824Y678189D1*
X907377Y675197D1*
X910993Y672205D1*
X915914Y669213D1*
X921314Y666220D1*
X926259Y663228D1*
X928754Y660236D1*
X929680Y657244D1*
X930270Y654252D1*
X930985Y651260D1*
X932056Y648268D1*
X934822Y645276D1*
X938662Y642283D1*
X943912Y639291D1*
X951319Y636299D1*
X961879Y633307D1*
X975420Y630315D1*
X990315Y627323D1*
Y624331D1*
Y621339D1*
Y618346D1*
X990327Y615354D1*
X990432Y612362D1*
X990825Y609370D1*
X991647Y606378D1*
X992807Y603386D1*
X994162Y600394D1*
X995693Y597402D1*
X997452Y594409D1*
X999382Y591417D1*
X1001317Y588425D1*
X1003391Y585433D1*
X1005800Y582441D1*
X1008491Y579449D1*
X1011336Y576457D1*
X1014156Y573465D1*
X1016630Y570472D1*
X1018410Y567480D1*
X1019486Y564488D1*
X1020236Y561496D1*
X1026220D1*
X1027843Y558504D1*
X1030081Y555512D1*
X1033020Y552520D1*
X1036536Y549528D1*
X1040228Y546535D1*
X1043830Y543543D1*
X1047586Y540551D1*
X1051906Y537559D1*
X1056864Y534567D1*
X1062126Y531575D1*
X1032205Y1219764D2*
X1035197Y1216772D1*
X1038189Y1213780D1*
X1041181Y1210787D1*
X1516929Y1204803D2*
X1508552Y1201811D1*
X1500924Y1198819D1*
X1494319Y1195827D1*
X1488565Y1192835D1*
X1483138Y1189843D1*
X1477594Y1186850D1*
X1471871Y1183858D1*
X1466063Y1180866D1*
X1516929Y1204803D2*
X1519921Y1201811D1*
X1151890D2*
X1139921Y1198819D1*
X1127953Y1195827D1*
X1132534Y1192835D1*
X1136929Y1189843D1*
X1154882Y1201811D2*
X1157874Y1198819D1*
X1184803D2*
X1199164Y1195827D1*
X1212766Y1192835D1*
X1225226Y1189843D1*
X1236349Y1186850D1*
X1246048Y1183858D1*
X1254381Y1180866D1*
X1261618Y1177874D1*
X1268185Y1174882D1*
X1274416Y1171890D1*
X1280485Y1168898D1*
X1286399Y1165906D1*
X1292015Y1162913D1*
X1297275Y1159921D1*
X1302389Y1156929D1*
X1307459Y1153937D1*
X1312332Y1150945D1*
X1316924Y1147953D1*
X1321131Y1144961D1*
X1324941Y1141969D1*
X1328668Y1138976D1*
X1332533Y1135984D1*
X1336355Y1132992D1*
X1339892Y1130000D1*
X1343171Y1127008D1*
X1346293Y1124016D1*
X1349338Y1121024D1*
X1352351Y1118031D1*
X1355350Y1115039D1*
X1358345Y1112047D1*
X1361338Y1109055D1*
X1364331Y1106063D1*
X1367323Y1103071D1*
X1370303Y1100079D1*
X1373190Y1097087D1*
X1375801Y1094094D1*
X1378077Y1091102D1*
X1380290Y1088110D1*
X1382655Y1085118D1*
X1384988Y1082126D1*
X1387137Y1079134D1*
X1389298Y1076142D1*
X1391642Y1073150D1*
X1393968Y1070157D1*
X1396103Y1067165D1*
X1398169Y1064173D1*
X1400238Y1061181D1*
X1402217Y1058189D1*
X1404207Y1055197D1*
X1406231Y1052205D1*
X1408103Y1049213D1*
X1409801Y1046220D1*
X1411394Y1043228D1*
X1412927Y1040236D1*
X1414441Y1037244D1*
X1415941Y1034252D1*
X1417429Y1031260D1*
X1418830Y1028268D1*
X1420041Y1025276D1*
X1421106Y1022283D1*
X1422266Y1019291D1*
X1423565Y1016299D1*
X1424876Y1013307D1*
X1426049Y1010315D1*
X1427087Y1007323D1*
X1428148Y1004331D1*
X1429169Y1001339D1*
X1430132Y998346D1*
X1431161Y995354D1*
X1432168Y992362D1*
X1433127Y989370D1*
X1434142Y986378D1*
X1435055Y983386D1*
X1435738Y980394D1*
X1436417Y977402D1*
X1437269Y974409D1*
X1438091Y971417D1*
X1438646Y968425D1*
X1439036Y965433D1*
X1439547Y962441D1*
X1440317Y959449D1*
X1441104Y956457D1*
X1441634Y953465D1*
X1441914Y950472D1*
X1442053Y947480D1*
X1442211Y944488D1*
X1442613Y941496D1*
X1443337Y938504D1*
X1444107Y935512D1*
X1444629Y932520D1*
X1444907Y929528D1*
X1445034Y926535D1*
X1445087Y923543D1*
X1445107Y920551D1*
X1445114Y917559D1*
X1445117Y914567D1*
X1445118Y911575D1*
Y908583D1*
Y905591D1*
Y902598D1*
Y899606D1*
Y896614D1*
Y893622D1*
Y890630D1*
Y887638D1*
Y884646D1*
X1445106Y881654D1*
X1445001Y878661D1*
X1444620Y875669D1*
X1443903Y872677D1*
X1443136Y869685D1*
X1442614Y866693D1*
X1442337Y863701D1*
X1442198Y860709D1*
X1442041Y857717D1*
X1441639Y854724D1*
X1440915Y851732D1*
X1440145Y848740D1*
X1439611Y845748D1*
X1439228Y842756D1*
X1438720Y839764D1*
X1437950Y836772D1*
X1437151Y833780D1*
X1436517Y830787D1*
X1435856Y827795D1*
X1435000Y824803D1*
X1434074Y821811D1*
X1433151Y818819D1*
X1432138Y815827D1*
X1431136Y812835D1*
X1430179Y809843D1*
X1429153Y806850D1*
X1428146Y803858D1*
X1427176Y800866D1*
X1426056Y797874D1*
X1424773Y794882D1*
X1423468Y791890D1*
X1422297Y788898D1*
X1421247Y785906D1*
X1420093Y782913D1*
X1418785Y779921D1*
X1417381Y776929D1*
X1415920Y773937D1*
X1414442Y770945D1*
X1412949Y767953D1*
X1411445Y764961D1*
X1409854Y761969D1*
X1408073Y758976D1*
X1406145Y755984D1*
X1404313Y752992D1*
X1402620Y750000D1*
X1400927Y747008D1*
X1399014Y744016D1*
X1396784Y741024D1*
X1394506Y738031D1*
X1392379Y735039D1*
X1390214Y732047D1*
X1387779Y729055D1*
X1385177Y726063D1*
X1382696Y723071D1*
X1380474Y720079D1*
X1378270Y717087D1*
X1375807Y714094D1*
X1373095Y711102D1*
X1370242Y708110D1*
X1367408Y705118D1*
X1364806Y702126D1*
X1362433Y699134D1*
X1359829Y696142D1*
X1356643Y693150D1*
X1353161Y690157D1*
X1349774Y687165D1*
X1346557Y684173D1*
X1343447Y681181D1*
X1340304Y678189D1*
X1336913Y675197D1*
X1333186Y672205D1*
X1329320Y669213D1*
X1325412Y666220D1*
X1321320Y663228D1*
X1317041Y660236D1*
X1312641Y657244D1*
X1308097Y654252D1*
X1303340Y651260D1*
X1298414Y648268D1*
X1293475Y645276D1*
X1288304Y642283D1*
X1282521Y639291D1*
X1276109Y636299D1*
X1269376Y633307D1*
X1262427Y630315D1*
X1254960Y627323D1*
X1246746Y624331D1*
X1237558Y621339D1*
X1226709Y618346D1*
X1213121Y615354D1*
X1196079Y612362D1*
X1176118Y609370D1*
X1154882Y606378D1*
X1382283Y1195827D2*
X1374009Y1192835D1*
X1366670Y1189843D1*
X1360518Y1186850D1*
X1355313Y1183858D1*
X1350867Y1180866D1*
X1347164Y1177874D1*
X1344162Y1174882D1*
X1341742Y1171890D1*
X1339571Y1168898D1*
X1337402Y1165906D1*
X1349393Y1162913D1*
X1364230Y1159921D1*
X1381662Y1156929D1*
X1400236Y1153937D1*
X1403228Y1195827D2*
X1411628Y1192835D1*
X1419477Y1189843D1*
X1426928Y1186850D1*
X1434445Y1183858D1*
X1442126Y1180866D1*
X1068110Y1189843D2*
X1062126Y1186850D1*
X1056142Y1183858D1*
X1074094Y1180866D1*
X1110000Y1183858D2*
X1092047Y1180866D1*
X1127953Y1183858D2*
X1134844Y1180866D1*
X1140829Y1177874D1*
X1145964Y1174882D1*
X1150288Y1171890D1*
X1153630Y1168898D1*
X1156009Y1165906D1*
X1157874Y1162913D1*
X1561811Y1177874D2*
X1549395Y1174882D1*
X1539961Y1171890D1*
X1532947Y1168898D1*
X1527125Y1165906D1*
X1521341Y1162913D1*
X1514882Y1159921D1*
X1507953Y1156929D1*
X1576772Y1177874D2*
X1582642Y1174882D1*
X1588231Y1171890D1*
X1593440Y1168898D1*
X1598743Y1165906D1*
X1605478Y1162913D1*
X1615226Y1159921D1*
X1628165Y1156929D1*
X1642598Y1153937D1*
X1127953Y1171890D2*
X1114078Y1168898D1*
X1101443Y1165906D1*
X1090639Y1162913D1*
X1081800Y1159921D1*
X1074094Y1156929D1*
X1080079Y1153937D1*
X1086051Y1150945D1*
X1091930Y1147953D1*
X1097510Y1144961D1*
X1102549Y1141969D1*
X1106834Y1138976D1*
X1110205Y1135984D1*
X1112992Y1132992D1*
Y1171890D2*
X1126853Y1168898D1*
X1139713Y1165906D1*
X1151890Y1162913D1*
X1017244Y1168898D2*
X1011260Y1165906D1*
X1005276Y1162913D1*
X1014252Y1159921D1*
X1023228Y1156929D1*
X1029213Y1168898D2*
X1040594Y1165906D1*
X1051331Y1162913D1*
X1061378Y1159921D1*
X1071102Y1156929D1*
X1442126Y1162913D2*
X1431550Y1159921D1*
X1420506Y1156929D1*
X1409213Y1153937D1*
X1472047Y1162913D2*
X1480837Y1159921D1*
X1490000Y1156929D1*
X1660551Y1153937D2*
X1660107Y1150945D1*
X1658538Y1147953D1*
X1654394Y1144961D1*
X1648470Y1141969D1*
X1640717Y1138976D1*
X1631527Y1135984D1*
X1621654Y1132992D1*
X1552835Y1147953D2*
X1547324Y1144961D1*
X1542199Y1141969D1*
X1537476Y1138976D1*
X1533116Y1135984D1*
X1528927Y1132992D1*
X1524533Y1130000D1*
X1519921Y1127008D1*
X1564803Y1147953D2*
X1573180Y1144961D1*
X1580800Y1141969D1*
X1587327Y1138976D1*
X1592798Y1135984D1*
X1597717Y1132992D1*
X1074094Y1141969D2*
X1059134Y1138976D1*
X1044173Y1135984D1*
X1068110Y1141969D2*
X1080629Y1138976D1*
X1093647Y1135984D1*
X1107008Y1132992D1*
X1005276Y1135984D2*
X1002283Y1132992D1*
X927480D2*
X953183Y1130000D1*
X974142Y1127008D1*
X989913Y1124016D1*
X1002727Y1121024D1*
X1014573Y1118031D1*
X1026220Y1115039D1*
X1472047Y1132992D2*
X1460781Y1130000D1*
X1450450Y1127008D1*
X1441305Y1124016D1*
X1433120Y1121024D1*
X1425775Y1118031D1*
X1419380Y1115039D1*
X1413948Y1112047D1*
X1409493Y1109055D1*
X1406052Y1106063D1*
X1403228Y1103071D1*
X1408312Y1100079D1*
X1413863Y1097087D1*
X1420257Y1094094D1*
X1427165Y1091102D1*
X1460079Y1132992D2*
X1475039Y1130000D1*
X1490000Y1127008D1*
X1077087Y1118031D2*
X1056142Y1115039D1*
X1083071Y1118031D2*
X1078352Y1115039D1*
X1072325Y1112047D1*
X1065254Y1109055D1*
X1057126Y1106063D1*
X1047704Y1103071D1*
X1037198Y1100079D1*
X1026220Y1097087D1*
X1466063Y1106063D2*
X1460643Y1103071D1*
X1455673Y1100079D1*
X1450751Y1097087D1*
X1445204Y1094094D1*
X1439134Y1091102D1*
X1484016Y1106063D2*
X1491504Y1103071D1*
X1498815Y1100079D1*
X1506280Y1097087D1*
X1513937Y1094094D1*
X1570787Y1103071D2*
X1561811Y1100079D1*
X1552835Y1097087D1*
X1543858Y1094094D1*
X1594724Y1103071D2*
X1603578Y1100079D1*
X1612090Y1097087D1*
X1620043Y1094094D1*
X1627638Y1091102D1*
X969370Y1103071D2*
X953433Y1100079D1*
X940207Y1097087D1*
X930655Y1094094D1*
X924176Y1091102D1*
X919508Y1088110D1*
X915512Y1085118D1*
X966378Y1103071D2*
X969370Y1100079D1*
X1011260D2*
X1014252Y1097087D1*
X1678504D2*
X1660364Y1094094D1*
X1642598Y1091102D1*
X1690472Y1097087D2*
X1688748Y1094094D1*
X1686220Y1091102D1*
X1682828Y1088110D1*
X1678763Y1085118D1*
X1674113Y1082126D1*
X1668891Y1079134D1*
X1663267Y1076142D1*
X1657331Y1073150D1*
X1650949Y1070157D1*
X1643967Y1067165D1*
X1636614Y1064173D1*
X948425Y1085118D2*
X990315D2*
X1002529Y1082126D1*
X1015427Y1079134D1*
X1029442Y1076142D1*
X1044173Y1073150D1*
X1086063Y1082126D2*
X1074645Y1079134D1*
X1063726Y1076142D1*
X1053150Y1073150D1*
X1124961Y1082126D2*
X1134229Y1079134D1*
X1142031Y1076142D1*
X1148898Y1073150D1*
X1126043Y1070157D1*
X1108415Y1067165D1*
X1096296Y1064173D1*
X1088040Y1061181D1*
X1081902Y1058189D1*
X1076816Y1055197D1*
X1072122Y1052205D1*
X1066976Y1049213D1*
X1060527Y1046220D1*
X1053150Y1043228D1*
X1585748Y1079134D2*
X1576307Y1076142D1*
X1566564Y1073150D1*
X1556689Y1070157D1*
X1546850Y1067165D1*
X1594724Y1079134D2*
X1603575Y1076142D1*
X1612052Y1073150D1*
X1619823Y1070157D1*
X1626886Y1067165D1*
X1633622Y1064173D1*
X1487008Y1076142D2*
X1478745Y1073150D1*
X1471511Y1070157D1*
X1465740Y1067165D1*
X1461252Y1064173D1*
X1457561Y1061181D1*
X1454264Y1058189D1*
X1451102Y1055197D1*
X1484016Y1076142D2*
X1495434Y1073150D1*
X1506353Y1070157D1*
X1516929Y1067165D1*
X1469055Y1058189D2*
X1460079Y1055197D1*
X1487008Y1058189D2*
X1492751Y1055197D1*
X1497356Y1052205D1*
X1500837Y1049213D1*
X1503510Y1046220D1*
X1506008Y1043228D1*
X1509035Y1040236D1*
X1512974Y1037244D1*
X1517755Y1034252D1*
X1522913Y1031260D1*
X990315Y1055197D2*
X981915Y1052205D1*
X974076Y1049213D1*
X966696Y1046220D1*
X959393Y1043228D1*
X951933Y1040236D1*
X944116Y1037244D1*
X935748Y1034252D1*
X926846Y1031260D1*
X917688Y1028268D1*
X908736Y1025276D1*
X900145Y1022283D1*
X891943Y1019291D1*
X884563Y1016299D1*
X878566Y1013307D1*
X874149Y1010315D1*
X870630Y1007323D1*
X878186Y1004331D1*
X885081Y1001339D1*
X890821Y998346D1*
X895260Y995354D1*
X898427Y992362D1*
X900728Y989370D1*
X902576Y986378D1*
X904209Y983386D1*
X905749Y980394D1*
X907167Y977402D1*
X908396Y974409D1*
X909580Y971417D1*
X911251Y968425D1*
X913881Y965433D1*
X917661Y962441D1*
X922447Y959449D1*
X927868Y956457D1*
X933612Y953465D1*
X939503Y950472D1*
X945440Y947480D1*
X951295Y944488D1*
X956777Y941496D1*
X961545Y938504D1*
X965550Y935512D1*
X969053Y932520D1*
X972362Y929528D1*
X966378Y926535D1*
X996299Y1055197D2*
X1008513Y1052205D1*
X1021411Y1049213D1*
X1035426Y1046220D1*
X1050157Y1043228D1*
X1555827Y1037244D2*
X1546850Y1034252D1*
X1537874Y1031260D1*
X1576772Y1037244D2*
X1585283Y1034252D1*
X1593493Y1031260D1*
X1601571Y1028268D1*
X1609685Y1025276D1*
X1645591Y1028268D2*
X1633622Y1025276D1*
X1675512Y1028268D2*
X1682403Y1025276D1*
X1688388Y1022283D1*
X1693546Y1019291D1*
X1698089Y1016299D1*
X1702273Y1013307D1*
X1706373Y1010315D1*
X1710289Y1007323D1*
X1713742Y1004331D1*
X1716425Y1001339D1*
X1718383Y998346D1*
X1718124Y995354D1*
X1717402Y992362D1*
X999291Y1022283D2*
X991926Y1019291D1*
X985094Y1016299D1*
X978792Y1013307D1*
X973113Y1010315D1*
X968265Y1007323D1*
X964233Y1004331D1*
X960754Y1001339D1*
X957653Y998346D1*
X954968Y995354D1*
X952778Y992362D1*
X951039Y989370D1*
X949771Y986378D1*
X948985Y983386D1*
X948425Y980394D1*
X1035197Y1022283D2*
X1040707Y1019291D1*
X1045844Y1016299D1*
X1050661Y1013307D1*
X1055299Y1010315D1*
X1059857Y1007323D1*
X1064487Y1004331D1*
X1069480Y1001339D1*
X1075176Y998346D1*
X1081540Y995354D1*
X1088141Y992362D1*
X1094575Y989370D1*
X1100697Y986378D1*
X1106302Y983386D1*
X1111121Y980394D1*
X1115154Y977402D1*
X1118735Y974409D1*
X1122216Y971417D1*
X1125617Y968425D1*
X1128574Y965433D1*
X1130846Y962441D1*
X1132488Y959449D1*
X1133730Y956457D1*
X1134861Y953465D1*
X1135807Y950472D1*
X1136411Y947480D1*
X1136821Y944488D1*
X1137339Y941496D1*
X1138111Y938504D1*
X1138899Y935512D1*
X1139429Y932520D1*
X1139709Y929528D1*
X1139837Y926535D1*
X1139890Y923543D1*
X1139910Y920551D1*
X1139917Y917559D1*
X1139920Y914567D1*
X1139921Y911575D1*
X1139933Y908583D1*
X1140038Y905591D1*
X1140419Y902598D1*
X1141136Y899606D1*
X1141903Y896614D1*
X1142425Y893622D1*
X1142703Y890630D1*
X1142818Y887638D1*
X1142742Y884646D1*
X1142452Y881654D1*
X1140957Y878661D1*
X1137674Y875669D1*
X1133937Y872677D1*
X1283543Y1016299D2*
X1275132Y1013307D1*
X1267164Y1010315D1*
X1259193Y1007323D1*
X1250421Y1004331D1*
X1240878Y1001339D1*
X1231504Y998346D1*
X1223017Y995354D1*
X1215321Y992362D1*
X1208086Y989370D1*
X1201454Y986378D1*
X1195685Y983386D1*
X1190753Y980394D1*
X1186758Y977402D1*
X1183797Y974409D1*
X1181582Y971417D1*
X1179779Y968425D1*
X1178252Y965433D1*
X1176993Y962441D1*
X1175922Y959449D1*
X1174861Y956457D1*
X1173942Y953465D1*
X1173359Y950472D1*
X1173058Y947480D1*
X1172923Y944488D1*
X1172868Y941496D1*
X1172846Y938504D1*
X1172839Y935512D1*
X1172836Y932520D1*
X1172835Y929528D1*
Y926535D1*
Y923543D1*
Y920551D1*
Y917559D1*
Y914567D1*
Y911575D1*
Y908583D1*
Y905591D1*
Y902598D1*
Y899606D1*
Y896614D1*
Y893622D1*
Y890630D1*
Y887638D1*
X1172846Y884646D1*
X1172952Y881654D1*
X1173333Y878661D1*
X1174049Y875669D1*
X1174828Y872677D1*
X1175455Y869685D1*
X1176114Y866693D1*
X1176969Y863701D1*
X1177903Y860709D1*
X1178910Y857717D1*
X1180233Y854724D1*
X1181811Y851732D1*
X1325433Y1016299D2*
X1331292Y1013307D1*
X1336776Y1010315D1*
X1341556Y1007323D1*
X1345663Y1004331D1*
X1349537Y1001339D1*
X1353562Y998346D1*
X1357774Y995354D1*
X1361920Y992362D1*
X1365458Y989370D1*
X1368258Y986378D1*
X1369157Y983386D1*
X1368642Y980394D1*
X1367596Y977402D1*
X1366096Y974409D1*
X1364331Y971417D1*
X1014252Y1013307D2*
X1005978Y1010315D1*
X998639Y1007323D1*
X992486Y1004331D1*
X987282Y1001339D1*
X982824Y998346D1*
X979004Y995354D1*
X975502Y992362D1*
X971843Y989370D1*
X967579Y986378D1*
X962647Y983386D1*
X957402Y980394D1*
X1014252Y1013307D2*
X1019762Y1010315D1*
X1024888Y1007323D1*
X1029599Y1004331D1*
X1033856Y1001339D1*
X1037709Y998346D1*
X1041712Y995354D1*
X1046891Y992362D1*
X1054276Y989370D1*
X1063800Y986378D1*
X1073772Y983386D1*
X1082321Y980394D1*
X1088924Y977402D1*
X1094122Y974409D1*
X1098567Y971417D1*
X1102295Y968425D1*
X1105229Y965433D1*
X1107781Y962441D1*
X1110396Y959449D1*
X1113157Y956457D1*
X1115939Y953465D1*
X1118494Y950472D1*
X1120647Y947480D1*
X1122472Y944488D1*
X1124107Y941496D1*
X1125555Y938504D1*
X1126683Y935512D1*
X1127364Y932520D1*
X1127705Y929528D1*
X1127856Y926535D1*
X1127917Y923543D1*
X1127940Y920551D1*
X1127948Y917559D1*
X1127940Y914567D1*
X1127835Y911575D1*
X1127443Y908583D1*
X1126621Y905591D1*
X1125473Y902598D1*
X1124222Y899606D1*
X1123073Y896614D1*
X1122043Y893622D1*
X1121008Y890630D1*
X1120199Y887638D1*
X1119755Y884646D1*
X1120477Y881654D1*
X1121627Y878661D1*
X1123172Y875669D1*
X1124961Y872677D1*
X1475039Y1013307D2*
X1472161Y1010315D1*
X1469564Y1007323D1*
X1467406Y1004331D1*
X1465680Y1001339D1*
X1464424Y998346D1*
X1463715Y995354D1*
X1463342Y992362D1*
X1463951Y989370D1*
X1466259Y986378D1*
X1471315Y983386D1*
X1478105Y980394D1*
X1486617Y977402D1*
X1495984Y974409D1*
X1472047Y1013307D2*
X1485908Y1010315D1*
X1498769Y1007323D1*
X1510945Y1004331D1*
X1555827Y1010315D2*
X1537874Y1007323D1*
X1519921Y1004331D1*
X1558819Y1010315D2*
X1567105Y1007323D1*
X1574568Y1004331D1*
X1581277Y1001339D1*
X1587903Y998346D1*
X1594724Y995354D1*
X1304488Y1007323D2*
X1296214Y1004331D1*
X1288851Y1001339D1*
X1282454Y998346D1*
X1276136Y995354D1*
X1268750Y992362D1*
X1259775Y989370D1*
X1249529Y986378D1*
X1238916Y983386D1*
X1228983Y980394D1*
X1220449Y977402D1*
X1213510Y974409D1*
X1208057Y971417D1*
X1203765Y968425D1*
X1200183Y965433D1*
X1197055Y962441D1*
X1194451Y959449D1*
X1192532Y956457D1*
X1191127Y953465D1*
X1189918Y950472D1*
X1188938Y947480D1*
X1188332Y944488D1*
X1188023Y941496D1*
X1187885Y938504D1*
X1187817Y935512D1*
X1187690Y932520D1*
X1187301Y929528D1*
X1186582Y926535D1*
X1185814Y923543D1*
X1185292Y920551D1*
X1185014Y917559D1*
X1184887Y914567D1*
X1184835Y911575D1*
X1184814Y908583D1*
X1184807Y905591D1*
X1184804Y902598D1*
Y899606D1*
X1184803Y896614D1*
Y893622D1*
Y890630D1*
Y887638D1*
X1184815Y884646D1*
X1184920Y881654D1*
X1185301Y878661D1*
X1186018Y875669D1*
X1186785Y872677D1*
X1187307Y869685D1*
X1187584Y866693D1*
X1187711Y863701D1*
X1187764Y860709D1*
X1187784Y857717D1*
X1187792Y854724D1*
X1187795Y851732D1*
X1301496Y1007323D2*
X1309770Y1004331D1*
X1317109Y1001339D1*
X1323262Y998346D1*
X1328466Y995354D1*
X1332924Y992362D1*
X1336733Y989370D1*
X1340117Y986378D1*
X1343291Y983386D1*
X1346465Y980394D1*
X1349944Y977402D1*
X1353969Y974409D1*
X1358346Y971417D1*
X1663543Y1007323D2*
X1654444Y1004331D1*
X1645003Y1001339D1*
X1635003Y998346D1*
X1624646Y995354D1*
X1654567Y1007323D2*
X1665947Y1004331D1*
X1676674Y1001339D1*
X1686655Y998346D1*
X1696141Y995354D1*
X1705433Y992362D1*
X1546850D2*
X1539959Y989370D1*
X1533951Y986378D1*
X1528576Y983386D1*
X1523204Y980394D1*
X1517301Y977402D1*
X1510945Y974409D1*
X1555827Y992362D2*
X1563639Y989370D1*
X1570248Y986378D1*
X1575742Y983386D1*
X1580921Y980394D1*
X1586315Y977402D1*
X1591979Y974409D1*
X1597815Y971417D1*
X1603736Y968425D1*
X1609685Y965433D1*
X1672520Y977402D2*
X1665361Y974409D1*
X1656913Y971417D1*
X1647086Y968425D1*
X1636614Y965433D1*
X1684488Y977402D2*
X1690484Y974409D1*
X1696597Y971417D1*
X1703150Y968425D1*
X1710379Y965433D1*
X1717568Y962441D1*
X1723986Y959449D1*
X1727127Y956457D1*
X1728098Y953465D1*
X1727131Y950472D1*
X1724015Y947480D1*
X1720394Y944488D1*
X1029213Y974409D2*
X1016029Y971417D1*
X1002283Y968425D1*
X1005276Y965433D1*
X1047165Y974409D2*
X1056461Y971417D1*
X1064196Y968425D1*
X1070344Y965433D1*
X1075256Y962441D1*
X1079164Y959449D1*
X1082249Y956457D1*
X1084713Y953465D1*
X1086911Y950472D1*
X1089018Y947480D1*
X1090921Y944488D1*
X1092630Y941496D1*
X1094227Y938504D1*
X1095762Y935512D1*
X1097266Y932520D1*
X1098688Y929528D1*
X1099937Y926535D1*
X1101024Y923543D1*
X1253622Y974409D2*
X1246382Y971417D1*
X1240039Y968425D1*
X1234835Y965433D1*
X1230640Y962441D1*
X1227094Y959449D1*
X1223966Y956457D1*
X1221272Y953465D1*
X1219067Y950472D1*
X1217223Y947480D1*
X1215570Y944488D1*
X1214014Y941496D1*
X1212504Y938504D1*
X1211107Y935512D1*
X1209998Y932520D1*
X1209323Y929528D1*
X1208967Y926535D1*
X1208740Y923543D1*
X1280551Y974409D2*
X1289528Y971417D1*
X1301496D2*
X1304488D2*
X1301496Y968425D1*
X987323D2*
X988923Y965433D1*
X990990Y962441D1*
X993307Y959449D1*
X990315Y968425D2*
X996299Y965433D1*
X1316457Y968425D2*
X1319449D2*
X1317507Y965433D1*
X1315532Y962441D1*
X1313465Y959449D1*
X1047165Y965433D2*
X1050146Y962441D1*
X1053021Y959449D1*
X1055515Y956457D1*
X1057292Y953465D1*
X1058302Y950472D1*
X1058791Y947480D1*
X1058990Y944488D1*
X1058960Y941496D1*
X1058529Y938504D1*
X1057517Y935512D1*
X1056142Y932520D1*
X1047165Y965433D2*
X1054966Y962441D1*
X1061458Y959449D1*
X1066454Y956457D1*
X1070418Y953465D1*
X1073819Y950472D1*
X1076861Y947480D1*
X1079419Y944488D1*
X1081229Y941496D1*
X1082316Y938504D1*
X1083071Y935512D1*
X1071102Y932520D1*
X1253622Y965433D2*
X1248112Y962441D1*
X1242986Y959449D1*
X1238287Y956457D1*
X1234146Y953465D1*
X1230815Y950472D1*
X1228295Y947480D1*
X1226410Y944488D1*
X1225082Y941496D1*
X1224272Y938504D1*
X1223701Y935512D1*
X1241654Y932520D1*
X1259606Y965433D2*
X1256626Y962441D1*
X1253751Y959449D1*
X1251257Y956457D1*
X1249479Y953465D1*
X1248469Y950472D1*
X1247993Y947480D1*
X1247887Y944488D1*
X1248187Y941496D1*
X1248897Y938504D1*
X1249776Y935512D1*
X1250630Y932520D1*
X972362Y959449D2*
X974331Y956457D1*
X976425Y953465D1*
X978804Y950472D1*
X981339Y947480D1*
X978346Y959449D2*
X1280551Y962441D2*
X1277559Y959449D1*
X1280551Y962441D2*
X1283543Y959449D1*
X1289528Y962441D2*
X1292394Y959449D1*
X1294886Y956457D1*
X1296663Y953465D1*
X1297673Y950472D1*
X1298161Y947480D1*
X1298372Y944488D1*
X1298456Y941496D1*
X1298488Y938504D1*
X1298504Y935512D1*
X1295512Y962441D2*
X1298618Y959449D1*
X1302005Y956457D1*
X1305808Y953465D1*
X1309837Y950472D1*
X1313633Y947480D1*
X1316786Y944488D1*
X1319449Y941496D1*
X1313465Y938504D1*
X1307480Y935512D1*
X1325433Y959449D2*
X1331417D2*
X1330367Y956457D1*
X1329350Y953465D1*
X1328425Y950472D1*
X1008268Y959449D2*
X1005162Y956457D1*
X1001786Y953465D1*
X998076Y950472D1*
X994309Y947480D1*
X990750Y944488D1*
X987323Y941496D1*
X992268Y938504D1*
X997692Y935512D1*
X1003094Y932520D1*
X1008268Y929528D1*
X1017244Y959449D2*
X1014378Y956457D1*
X1011886Y953465D1*
X1010109Y950472D1*
X1009099Y947480D1*
X1008623Y944488D1*
X1008529Y941496D1*
X1008942Y938504D1*
X1010115Y935512D1*
X1012017Y932520D1*
X1014252Y929528D1*
X1026220Y959449D2*
X1023228Y956457D1*
X1026220Y959449D2*
X1029213Y956457D1*
X963386Y953465D2*
X964997Y950472D1*
X967130Y947480D1*
X969698Y944488D1*
X972603Y941496D1*
X975910Y938504D1*
X979694Y935512D1*
X983848Y932520D1*
X988308Y929528D1*
X993339Y926535D1*
X999390Y923543D1*
X1006556Y920551D1*
X1014252Y917559D1*
X1340394Y953465D2*
X1334409Y950472D1*
X1343386Y953465D2*
X1341775Y950472D1*
X1339642Y947480D1*
X1337085Y944488D1*
X1334274Y941496D1*
X1331243Y938504D1*
X1327771Y935512D1*
X1323469Y932520D1*
X1318082Y929528D1*
X1311529Y926535D1*
X1303594Y923543D1*
X1294060Y920551D1*
X1283543Y917559D1*
X1555827Y956457D2*
X1549956Y953465D1*
X1544356Y950472D1*
X1539089Y947480D1*
X1533872Y944488D1*
X1528409Y941496D1*
X1522691Y938504D1*
X1516728Y935512D1*
X1510415Y932520D1*
X1503735Y929528D1*
X1496990Y926535D1*
X1490485Y923543D1*
X1484208Y920551D1*
X1478031Y917559D1*
X1555827Y956457D2*
X1564215Y953465D1*
X1571949Y950472D1*
X1578947Y947480D1*
X1585534Y944488D1*
X1592250Y941496D1*
X1599761Y938504D1*
X1608680Y935512D1*
X1619202Y932520D1*
X1630630Y929528D1*
X969370Y950472D2*
X975354Y947480D1*
X885591Y950472D2*
X877226Y947480D1*
X869714Y944488D1*
X863618Y941496D1*
X859197Y938504D1*
X855851Y935512D1*
X854145Y932520D1*
X853604Y929528D1*
X854246Y926535D1*
X855395Y923543D1*
X857189Y920551D1*
X859934Y917559D1*
X863885Y914567D1*
X869156Y911575D1*
X875585Y908583D1*
X882598Y905591D1*
X873622Y950472D2*
X881999Y947480D1*
X889628Y944488D1*
X896221Y941496D1*
X901893Y938504D1*
X907164Y935512D1*
X912891Y932520D1*
X919770Y929528D1*
X927480Y926535D1*
X1675512Y944488D2*
X1669528Y941496D1*
X1663543Y938504D1*
X1657559Y935512D1*
X1651575Y932520D1*
X1645591Y929528D1*
X1038189Y938504D2*
X1035197Y935512D1*
X1038189Y938504D2*
X1041181Y935512D1*
X1268583Y938504D2*
X1265591Y935512D1*
X1268583Y938504D2*
X1271575Y935512D1*
X1065118Y923543D2*
X1056142Y920551D1*
X1047165Y917559D1*
X1244646Y923543D2*
X1253622Y920551D1*
X1262598Y917559D1*
X1561811Y920551D2*
Y917559D1*
X1579764Y920551D2*
X1589522Y917559D1*
X1598022Y914567D1*
X1605173Y911575D1*
X1611558Y908583D1*
X1617973Y905591D1*
X1624646Y902598D1*
X1693465Y911575D2*
X1682546Y908583D1*
X1671595Y905591D1*
X1660551Y902598D1*
X1708425Y911575D2*
X1716139Y908583D1*
X1723341Y905591D1*
X1729794Y902598D1*
X1735494Y899606D1*
X1740317Y896614D1*
X1744291Y893622D1*
X1745848Y890630D1*
X1746740Y887638D1*
X1747323Y884646D1*
X912520Y908583D2*
X900551Y905591D1*
X933465Y908583D2*
X940716Y905591D1*
X947176Y902598D1*
X952878Y899606D1*
X958288Y896614D1*
X963828Y893622D1*
X969576Y890630D1*
X975558Y887638D1*
X981956Y884646D1*
X988944Y881654D1*
X996299Y878661D1*
X1582756Y893622D2*
X1574379Y890630D1*
X1566750Y887638D1*
X1560145Y884646D1*
X1554380Y881654D1*
X1548813Y878661D1*
X1542499Y875669D1*
X1534223Y872677D1*
X1522678Y869685D1*
X1507594Y866693D1*
X1490200Y863701D1*
X1472047Y860709D1*
X1474925Y857717D1*
X1477546Y854724D1*
X1479934Y851732D1*
X1482614Y848740D1*
X1486062Y845748D1*
X1490000Y842756D1*
X1582756Y893622D2*
X1591144Y890630D1*
X1598878Y887638D1*
X1605865Y884646D1*
X1612336Y881654D1*
X1618538Y878661D1*
X1624646Y875669D1*
X1041181Y887638D2*
X1033047Y884646D1*
X1023945Y881654D1*
X1014252Y878661D1*
X1044173Y887638D2*
X1043585Y884646D1*
X1042331Y881654D1*
X1040224Y878661D1*
X1037208Y875669D1*
X1033095Y872677D1*
X1027707Y869685D1*
X1021039Y866693D1*
X1013371Y863701D1*
X1005276Y860709D1*
X1690472Y890630D2*
X1681496Y887638D1*
X1672520Y884646D1*
X1663543Y881654D1*
X1654567Y878661D1*
X1645591Y875669D1*
X1699449Y890630D2*
X1723386Y887638D1*
X1747323Y884646D1*
X936457Y875669D2*
X925778Y872677D1*
X916654Y869685D1*
X909126Y866693D1*
X901742Y863701D1*
X892819Y860709D1*
X882396Y857717D1*
X872641Y854724D1*
X864579Y851732D1*
X861248Y848740D1*
X858661Y845748D1*
X918504Y875669D2*
X929896Y872677D1*
X940737Y869685D1*
X951180Y866693D1*
X961689Y863701D1*
X972362Y860709D1*
X1540866D2*
X1533963Y857717D1*
X1527861Y854724D1*
X1522217Y851732D1*
X1516566Y848740D1*
X1510795Y845748D1*
X1504961Y842756D1*
X1552835Y860709D2*
X1557796Y857717D1*
X1562890Y854724D1*
X1568304Y851732D1*
X1573980Y848740D1*
X1579764Y845748D1*
X1624646Y851732D2*
X1614080Y848740D1*
X1603701Y845748D1*
X1645591Y851732D2*
X1655246Y848740D1*
X1663456Y845748D1*
X1670160Y842756D1*
X1676049Y839764D1*
X1681764Y836772D1*
X1687480Y833780D1*
X912520Y845748D2*
X918748Y842756D1*
X924318Y839764D1*
X929453Y836772D1*
X934569Y833780D1*
X939975Y830787D1*
X945641Y827795D1*
X951417Y824803D1*
X1115984Y842756D2*
X1113118Y839764D1*
X1110614Y836772D1*
X1108732Y833780D1*
X1107341Y830787D1*
X1106136Y827795D1*
X1105158Y824803D1*
X1104564Y821811D1*
X1104369Y818819D1*
X1104693Y815827D1*
X1105658Y812835D1*
X1107008Y809843D1*
X1104478Y806850D1*
X1102228Y803858D1*
X1100022Y800866D1*
X1097659Y797874D1*
X1095329Y794882D1*
X1093206Y791890D1*
X1091158Y788898D1*
X1089055Y785906D1*
X1118976Y842756D2*
X1122050Y839764D1*
X1123329Y836772D1*
X1122646Y833780D1*
X1120320Y830787D1*
X1117937Y827795D1*
X1115933Y824803D1*
X1114499Y821811D1*
X1113688Y818819D1*
X1113393Y815827D1*
X1113612Y812835D1*
X1114376Y809843D1*
X1115614Y806850D1*
X1117333Y803858D1*
X1119537Y800866D1*
X1121969Y797874D1*
X1112663Y794882D1*
X1104823Y791890D1*
X1098209Y788898D1*
X1092047Y785906D1*
X1711417Y836772D2*
X1696457Y833780D1*
X1717402Y836772D2*
X1715791Y833780D1*
X1713658Y830787D1*
X1711089Y827795D1*
X1708184Y824803D1*
X1704889Y821811D1*
X1701210Y818819D1*
X1697461Y815827D1*
X1693949Y812835D1*
X1690665Y809843D1*
X1687480Y806850D1*
X1011260Y830787D2*
X984331Y827795D1*
X957402Y824803D1*
X1017244Y830787D2*
X1018693Y827795D1*
X1016704Y824803D1*
X1012523Y821811D1*
X1007515Y818819D1*
X1001863Y815827D1*
X995541Y812835D1*
X988184Y809843D1*
X979321Y806850D1*
X968819Y803858D1*
X957402Y800866D1*
X1127953Y824803D2*
X1126572Y821811D1*
X1125712Y818819D1*
X1125289Y815827D1*
X1125210Y812835D1*
X1125594Y809843D1*
X1126587Y806850D1*
X1127953Y803858D1*
X1133937Y824803D2*
X1135906Y821811D1*
X1138008Y818819D1*
X1140444Y815827D1*
X1143257Y812835D1*
X1146580Y809843D1*
X1150539Y806850D1*
X1154882Y803858D1*
X1184803Y824803D2*
X1183192Y821811D1*
X1181048Y818819D1*
X1178385Y815827D1*
X1175203Y812835D1*
X1171547Y809843D1*
X1167694Y806850D1*
X1163858Y803858D1*
X1190787Y824803D2*
X1192169Y821811D1*
X1193028Y818819D1*
X1193451Y815827D1*
X1193530Y812835D1*
X1193146Y809843D1*
X1192153Y806850D1*
X1190787Y803858D1*
X1642598Y827795D2*
X1636491Y824803D1*
X1630043Y821811D1*
X1623035Y818819D1*
X1615669Y815827D1*
X1645591Y827795D2*
X1651101Y824803D1*
X1656238Y821811D1*
X1661078Y818819D1*
X1665935Y815827D1*
X1671328Y812835D1*
X1677636Y809843D1*
X1684488Y806850D1*
X1570787Y824803D2*
X1561588Y821811D1*
X1552754Y818819D1*
X1544935Y815827D1*
X1538173Y812835D1*
X1531830Y809843D1*
X1525323Y806850D1*
X1518308Y803858D1*
X1510945Y800866D1*
X1567795Y824803D2*
X1577872Y821811D1*
X1588948Y818819D1*
X1600709Y815827D1*
X1208740Y809843D2*
X1206665Y806850D1*
X1203768Y803858D1*
X1200335Y800866D1*
X1196772Y797874D1*
X1203767Y794882D1*
X1210528Y791890D1*
X1216619Y788898D1*
X1221890Y785906D1*
X1226693Y782913D1*
X1211732Y809843D2*
X1213332Y806850D1*
X1215359Y803858D1*
X1217523Y800866D1*
X1219501Y797874D1*
X1221255Y794882D1*
X1222864Y791890D1*
X1224330Y788898D1*
X1225597Y785906D1*
X1226693Y782913D1*
X891575Y806850D2*
X886190Y803858D1*
X881562Y800866D1*
X878027Y797874D1*
X875549Y794882D1*
X873622Y791890D1*
X882598Y806850D2*
X906535Y803858D1*
X930472Y800866D1*
X1133937Y806850D2*
X1130945Y803858D1*
X1139921Y806850D2*
X1142913Y803858D1*
X1181811Y806850D2*
X1178819Y803858D1*
X1451102D2*
X1453518Y800866D1*
X1455385Y797874D1*
X1456873Y794882D1*
X1458469Y791890D1*
X1460280Y788898D1*
X1462151Y785906D1*
X1464208Y782913D1*
X1466720Y779921D1*
X1469868Y776929D1*
X1473741Y773937D1*
X1478031Y770945D1*
X1469055Y803858D2*
X1472047Y800866D1*
X909528Y797874D2*
X898962Y794882D1*
X888583Y791890D1*
X915512Y797874D2*
X922301Y794882D1*
X928007Y791890D1*
X932818Y788898D1*
X937217Y785906D1*
X941370Y782913D1*
X945437Y779921D1*
X950050Y776929D1*
X956407Y773937D1*
X965690Y770945D1*
X977268Y767953D1*
X988666Y764961D1*
X998055Y761969D1*
X1005171Y758976D1*
X1010428Y755984D1*
X1014222Y752992D1*
X1017244Y750000D1*
X1002283Y747008D1*
X987323Y744016D1*
X1157874Y797874D2*
X1155470Y794882D1*
X1153720Y791890D1*
X1152718Y788898D1*
X1152232Y785906D1*
X1152034Y782913D1*
X1152064Y779921D1*
X1152495Y776929D1*
X1153506Y773937D1*
X1154882Y770945D1*
X1160866Y794882D2*
X1163270Y791890D1*
X1165020Y788898D1*
X1166022Y785906D1*
X1166496Y782913D1*
X1166593Y779921D1*
X1166214Y776929D1*
X1165223Y773937D1*
X1163858Y770945D1*
X1558819Y785906D2*
X1548896Y782913D1*
X1538709Y779921D1*
X1527879Y776929D1*
X1516529Y773937D1*
X1504961Y770945D1*
X1576772Y785906D2*
X1581619Y782913D1*
X1586329Y779921D1*
X1591029Y776929D1*
X1595944Y773937D1*
X1601224Y770945D1*
X1606693Y767953D1*
X1654567Y782913D2*
X1648685Y779921D1*
X1642972Y776929D1*
X1637268Y773937D1*
X1631152Y770945D1*
X1624646Y767953D1*
X1669528Y782913D2*
X1680401Y779921D1*
X1690412Y776929D1*
X1698259Y773937D1*
X1703484Y770945D1*
X1707239Y767953D1*
X1703061Y764961D1*
X1697816Y761969D1*
X1691447Y758976D1*
X1684488Y755984D1*
X1139921Y770945D2*
X1129003Y767953D1*
X1119019Y764961D1*
X1109827Y761969D1*
X1101005Y758976D1*
X1092618Y755984D1*
X1085128Y752992D1*
X1079076Y750000D1*
X1074636Y747008D1*
X1071102Y744016D1*
X1083071Y741024D1*
X1095039Y738031D1*
X1145906Y767953D2*
X1148898Y764961D1*
X1151890Y761969D1*
X1178819Y767953D2*
X1172835Y764961D1*
X1166850Y761969D1*
X1187795Y767953D2*
X1197120Y764961D1*
X1206455Y761969D1*
X1215477Y758976D1*
X1224070Y755984D1*
X1232077Y752992D1*
X1238774Y750000D1*
X1243713Y747008D1*
X1247638Y744016D1*
X1234080Y741024D1*
X1220709Y738031D1*
X1660551Y761969D2*
X1652751Y758976D1*
X1646259Y755984D1*
X1641263Y752992D1*
X1637287Y750000D1*
X1633761Y747008D1*
X1630138Y744016D1*
X1626059Y741024D1*
X1621654Y738031D1*
X1654567Y761969D2*
X1666535Y758976D1*
X1678504Y755984D1*
X924488D2*
X921034Y752992D1*
X917300Y750000D1*
X913533Y747008D1*
X910014Y744016D1*
X906729Y741024D1*
X903543Y738031D1*
X914492Y735039D1*
X928742Y732047D1*
X945511Y729055D1*
X963293Y726063D1*
X981339Y723071D1*
X921496Y755984D2*
X927603Y752992D1*
X934052Y750000D1*
X941060Y747008D1*
X948425Y744016D1*
X1552835Y755984D2*
X1546862Y752992D1*
X1540983Y750000D1*
X1535368Y747008D1*
X1529984Y744016D1*
X1524269Y741024D1*
X1517605Y738031D1*
X1510000Y735039D1*
X1501969Y732047D1*
X1570787Y755984D2*
X1576298Y752992D1*
X1581446Y750000D1*
X1586386Y747008D1*
X1591565Y744016D1*
X1597388Y741024D1*
X1603701Y738031D1*
X1436142Y752992D2*
Y750000D1*
Y747008D1*
X1436153Y744016D1*
X1436259Y741024D1*
X1436652Y738031D1*
X1437497Y735039D1*
X1438879Y732047D1*
X1441126Y729055D1*
X1444752Y726063D1*
X1450204Y723071D1*
X1458132Y720079D1*
X1468814Y717087D1*
X1481024Y714094D1*
X1442126Y752992D2*
X1445706Y750000D1*
X1449952Y747008D1*
X1455063Y744016D1*
X1461173Y741024D1*
X1468613Y738031D1*
X1477448Y735039D1*
X1487008Y732047D1*
X1130945Y744016D2*
X1118976Y741024D1*
X1107008Y738031D1*
X1142913Y744016D2*
X1145906Y741024D1*
X1178819Y744016D2*
X1175827Y741024D1*
X1187795Y744016D2*
X1199764Y741024D1*
X1211732Y738031D1*
X1026220Y735039D2*
X1016763Y732047D1*
X1007358Y729055D1*
X997515Y726063D1*
X987323Y723071D1*
X1038189Y735039D2*
X1042562Y732047D1*
X1046425Y729055D1*
X1049958Y726063D1*
X1053524Y723071D1*
X1057311Y720079D1*
X1061100Y717087D1*
X1064624Y714094D1*
X1067898Y711102D1*
X1071006Y708110D1*
X1073946Y705118D1*
X1076565Y702126D1*
X1078734Y699134D1*
X1080491Y696142D1*
X1081894Y693150D1*
X1083071Y690157D1*
X1127953Y723071D2*
X1126790Y720079D1*
X1127106Y717087D1*
X1128851Y714094D1*
X1130641Y711102D1*
X1132120Y708110D1*
X1131927Y705118D1*
X1131147Y702126D1*
X1129982Y699134D1*
X1128629Y696142D1*
X1127264Y693150D1*
X1126037Y690157D1*
X1124961Y687165D1*
X1136929Y720079D2*
X1145906Y717087D1*
X1193780Y720079D2*
X1178819Y717087D1*
X1202756Y720079D2*
X1201271Y717087D1*
X1199638Y714094D1*
X1198296Y711102D1*
X1197491Y708110D1*
X1197186Y705118D1*
X1197398Y702126D1*
X1198156Y699134D1*
X1199365Y696142D1*
X1200945Y693150D1*
X1202756Y690157D1*
X1513937Y720079D2*
X1500566Y717087D1*
X1487008Y714094D1*
X1540866Y720079D2*
X1547399Y717087D1*
X1553427Y714094D1*
X1558822Y711102D1*
X1563859Y708110D1*
X1568922Y705118D1*
X1574262Y702126D1*
X1579764Y699134D1*
X1618661Y711102D2*
X1612677Y708110D1*
X1606693Y705118D1*
X1600709Y702126D1*
X1594724Y699134D1*
X1636614Y711102D2*
X1647285Y708110D1*
X1656326Y705118D1*
X1663428Y702126D1*
X1669528Y699134D1*
X1659334Y696142D1*
X1648544Y693150D1*
X1638373Y690157D1*
X1630141Y687165D1*
X1624119Y684173D1*
X1619439Y681181D1*
X1614890Y678189D1*
X1609593Y675197D1*
X1603701Y672205D1*
X1026220Y705118D2*
X1020350Y702126D1*
X1014752Y699134D1*
X1009510Y696142D1*
X1004416Y693150D1*
X999291Y690157D1*
X1023228Y705118D2*
X1035095Y702126D1*
X1046791Y699134D1*
X1058480Y696142D1*
X1070581Y693150D1*
X1083071Y690157D1*
X1169843Y702126D2*
X1159513Y699134D1*
X1150770Y696142D1*
X1143558Y693150D1*
X1137125Y690157D1*
X1130945Y687165D1*
X1175827Y702126D2*
X1181811Y699134D1*
X1187795Y696142D1*
X1193780Y693150D1*
X1199764Y690157D1*
X1525906Y696142D2*
X1513569Y693150D1*
X1500207Y690157D1*
X1485168Y687165D1*
X1469055Y684173D1*
X1525906Y696142D2*
X1531878Y693150D1*
X1537745Y690157D1*
X1543243Y687165D1*
X1548141Y684173D1*
X1552755Y681181D1*
X1557903Y678189D1*
X1564050Y675197D1*
X1570787Y672205D1*
X972362Y693150D2*
X965162Y690157D1*
X959811Y687165D1*
X955824Y684173D1*
X956448Y681181D1*
X957402Y678189D1*
X987323Y693150D2*
X990315Y690157D1*
X1448110Y684173D2*
X1418189Y681181D1*
X1388268Y678189D1*
X1395400Y675197D1*
X1402776Y672205D1*
X1410542Y669213D1*
X1418799Y666220D1*
X1427402Y663228D1*
X1436142Y660236D1*
X981339Y678189D2*
X987323D2*
Y675197D1*
X1044173D2*
X1058304Y672205D1*
X1070632Y669213D1*
X1080971Y666220D1*
X1089490Y663228D1*
X1096392Y660236D1*
X1102012Y657244D1*
X1107008Y654252D1*
X1481024Y666220D2*
X1467466Y663228D1*
X1454094Y660236D1*
X1513937Y666220D2*
X1517517Y663228D1*
X1521763Y660236D1*
X1526859Y657244D1*
X1532819Y654252D1*
X1539609Y651260D1*
X1546850Y648268D1*
X1026220Y657244D2*
X1020359Y654252D1*
X1014839Y651260D1*
X1009878Y648268D1*
X1005276Y645276D1*
X1011260Y642283D1*
X1017256Y639291D1*
X1023345Y636299D1*
X1029734Y633307D1*
X1036657Y630315D1*
X1044300Y627323D1*
X1052866Y624331D1*
X1062515Y621339D1*
X1073599Y618346D1*
X1086886Y615354D1*
X1102816Y612362D1*
X1120903Y609370D1*
X1139921Y606378D1*
X1083071Y657244D2*
X1086063Y654252D1*
X1573780Y651260D2*
X1561811Y648268D1*
X1576772Y651260D2*
X1601501Y648268D1*
X1624230Y645276D1*
X1645591Y642283D1*
X1643380Y639291D1*
X1639888Y636299D1*
X1634842Y633307D1*
X1628322Y630315D1*
X1620648Y627323D1*
X1612299Y624331D1*
X1603701Y621339D1*
X1495984Y642283D2*
X1482788Y639291D1*
X1471542Y636299D1*
X1462438Y633307D1*
X1454530Y630315D1*
X1446870Y627323D1*
X1439134Y624331D1*
X1475039Y642283D2*
X1486420Y639291D1*
X1497134Y636299D1*
X1507008Y633307D1*
X1516087Y630315D1*
X1524531Y627323D1*
X1532703Y624331D1*
X1540866Y621339D1*
X1403228Y636299D2*
X1382432Y633307D1*
X1362215Y630315D1*
X1343400Y627323D1*
X1326414Y624331D1*
X1310472Y621339D1*
X1317850Y618346D1*
X1324798Y615354D1*
X1331601Y612362D1*
X1338520Y609370D1*
X1345475Y606378D1*
X1352362Y603386D1*
X1388268Y636299D2*
X1396657Y633307D1*
X1404402Y630315D1*
X1411456Y627323D1*
X1418189Y624331D1*
X1564803Y630315D2*
X1558269Y627323D1*
X1551235Y624331D1*
X1543858Y621339D1*
X1567795Y630315D2*
X1576772Y627323D1*
X1585748Y624331D1*
X1594724Y621339D1*
X1409213Y612362D2*
X1398844Y609370D1*
X1388943Y606378D1*
X1379291Y603386D1*
X1427165Y612362D2*
X1434519Y609370D1*
X1441258Y606378D1*
X1447295Y603386D1*
X1452744Y600394D1*
X1457934Y597402D1*
X1463138Y594409D1*
X1469051Y591417D1*
X1477861Y588425D1*
X1491653Y585433D1*
X1509375Y582441D1*
X1528169Y579449D1*
X1546850Y576457D1*
X1544640Y573465D1*
X1541148Y570472D1*
X1536102Y567480D1*
X1529570Y564488D1*
X1521778Y561496D1*
X1512942Y558504D1*
X1503204Y555512D1*
X1492992Y552520D1*
X1032205Y597402D2*
X1032679Y594409D1*
X1033526Y591417D1*
X1034694Y588425D1*
X1036039Y585433D1*
X1037478Y582441D1*
X1038960Y579449D1*
X1040544Y576457D1*
X1042322Y573465D1*
X1044249Y570472D1*
X1046080Y567480D1*
X1047762Y564488D1*
X1049350Y561496D1*
X1050881Y558504D1*
X1052394Y555512D1*
X1053894Y552520D1*
X1055394Y549528D1*
X1056888Y546535D1*
X1058375Y543543D1*
X1059764Y540551D1*
X1060878Y537559D1*
X1061601Y534567D1*
X1062126Y531575D1*
X1047165Y597402D2*
X1049683Y594409D1*
X1051828Y591417D1*
X1053653Y588425D1*
X1055299Y585433D1*
X1056865Y582441D1*
X1058480Y579449D1*
X1060269Y576457D1*
X1062200Y573465D1*
X1064033Y570472D1*
X1065726Y567480D1*
X1067419Y564488D1*
X1069344Y561496D1*
X1071679Y558504D1*
X1074338Y555512D1*
X1077194Y552520D1*
X1080231Y549528D1*
X1083593Y546535D1*
X1087411Y543543D1*
X1091665Y540551D1*
X1096393Y537559D1*
X1101644Y534567D1*
X1107279Y531575D1*
X1113222Y528583D1*
X1119640Y525591D1*
X1126804Y522598D1*
X1134693Y519606D1*
X1142913Y516614D1*
X1232677Y594409D2*
X1235669Y591417D1*
X1238661Y588425D1*
X1241654Y585433D1*
X1244657Y582441D1*
X1247766Y579449D1*
X1251268Y576457D1*
X1255581Y573465D1*
X1260936Y570472D1*
X1267137Y567480D1*
X1273549Y564488D1*
X1279368Y561496D1*
X1284002Y558504D1*
X1287403Y555512D1*
X1290165Y552520D1*
X1292865Y549528D1*
X1295682Y546535D1*
X1298695Y543543D1*
X1302109Y540551D1*
X1306108Y537559D1*
X1310472Y534567D1*
X1229685Y594409D2*
X1245096Y591417D1*
X1260682Y588425D1*
X1275907Y585433D1*
X1290049Y582441D1*
X1302702Y579449D1*
X1313701Y576457D1*
X1323348Y573465D1*
X1332606Y570472D1*
X1342296Y567480D1*
X1352362Y564488D1*
X1095039Y585433D2*
Y582441D1*
X1095051Y579449D1*
X1095156Y576457D1*
X1095538Y573465D1*
X1096254Y570472D1*
X1097033Y567480D1*
X1097672Y564488D1*
X1098447Y561496D1*
X1099789Y558504D1*
X1101824Y555512D1*
X1104348Y552520D1*
X1107136Y549528D1*
X1110059Y546535D1*
X1113126Y543543D1*
X1116500Y540551D1*
X1120310Y537559D1*
X1124461Y534567D1*
X1128796Y531575D1*
X1133214Y528583D1*
X1137572Y525591D1*
X1141670Y522598D1*
X1145382Y519606D1*
X1148898Y516614D1*
X1098031Y585433D2*
X1104466Y582441D1*
X1111076Y579449D1*
X1117336Y576457D1*
X1122630Y573465D1*
X1126899Y570472D1*
X1130389Y567480D1*
X1133146Y564488D1*
X1135040Y561496D1*
X1136194Y558504D1*
X1137089Y555512D1*
X1138126Y552520D1*
X1139372Y549528D1*
X1140747Y546535D1*
X1142196Y543543D1*
X1143683Y540551D1*
X1145279Y537559D1*
X1147175Y534567D1*
X1149609Y531575D1*
X1152724Y528583D1*
X1156583Y525591D1*
X1160866Y522598D1*
X1163858Y582441D2*
X1164321Y579449D1*
X1165074Y576457D1*
X1165966Y573465D1*
X1166976Y570472D1*
X1168364Y567480D1*
X1170080Y564488D1*
X1171815Y561496D1*
X1173468Y558504D1*
X1175145Y555512D1*
X1177075Y552520D1*
X1179548Y549528D1*
X1182927Y546535D1*
X1187865Y543543D1*
X1194687Y540551D1*
X1202687Y537559D1*
X1210587Y534567D1*
X1217495Y531575D1*
X1223235Y528583D1*
X1227980Y525591D1*
X1231921Y522598D1*
X1235360Y519606D1*
X1238531Y516614D1*
X1241485Y513622D1*
X1244043Y510630D1*
X1246022Y507638D1*
X1247638Y504646D1*
X1166850Y582441D2*
X1169843Y579449D1*
X1172835Y576457D1*
X1175827Y573465D1*
X1178819Y570472D1*
X1181811Y567480D1*
X1184815Y564488D1*
X1187912Y561496D1*
X1191297Y558504D1*
X1195135Y555512D1*
X1199532Y552520D1*
X1205016Y549528D1*
X1212666Y546535D1*
X1223206Y543543D1*
X1235715Y540551D1*
X1247638Y537559D1*
X1257100Y534567D1*
X1264164Y531575D1*
X1269604Y528583D1*
X1274166Y525591D1*
X1278414Y522598D1*
X1282397Y519606D1*
X1286010Y516614D1*
X1289425Y513622D1*
X1293018Y510630D1*
X1297091Y507638D1*
X1301496Y504646D1*
X1409213Y579449D2*
X1400813Y576457D1*
X1392964Y573465D1*
X1385513Y570472D1*
X1377996Y567480D1*
X1370315Y564488D1*
X1412205Y579449D2*
X1421169Y576457D1*
X1430041Y573465D1*
X1438636Y570472D1*
X1446884Y567480D1*
X1454988Y564488D1*
X1463059Y561496D1*
X1471015Y558504D1*
X1478969Y555512D1*
X1487008Y552520D1*
X1340394Y543543D2*
X1333017Y540551D1*
X1326108Y537559D1*
X1319449Y534567D1*
X1367323Y543543D2*
X1376299Y540551D1*
X1385276Y537559D1*
X1436142Y540551D2*
X1409213Y537559D1*
X1451102Y540551D2*
X1449480Y537559D1*
X1447230Y534567D1*
X1444163Y531575D1*
X1440032Y528583D1*
X1434639Y525591D1*
X1427969Y522598D1*
X1420300Y519606D1*
X1412205Y516614D1*
X1190787Y525591D2*
X1187795Y522598D1*
Y525591D2*
X1200980Y522598D1*
X1212097Y519606D1*
X1220601Y516614D1*
X1226943Y513622D1*
X1232042Y510630D1*
X1236826Y507638D1*
X1241654Y504646D1*
X1364331Y522598D2*
X1358821Y519606D1*
X1353683Y516614D1*
X1348857Y513622D1*
X1344141Y510630D1*
X1339341Y507638D1*
X1334409Y504646D1*
X1364331Y522598D2*
X1373307Y519606D1*
X1382283Y516614D1*
X788284Y1168027D2*
D70*
Y1155127D1*
X786824Y1150816D1*
X785398Y1149357D1*
X782547Y1147931D1*
X779661D1*
X776810Y1149357D1*
X775350Y1150816D1*
X773924Y1155127D1*
Y1168027D1*
X804068D1*
X788284Y1157979D2*
X804068Y1147931D1*
Y1132931D2*
X773958Y1118572D1*
Y1138668D1*
X658284Y1168814D2*
Y1155914D1*
X656824Y1151603D1*
X655398Y1150144D1*
X652547Y1148718D1*
X649661D1*
X646810Y1150144D1*
X645350Y1151603D1*
X643924Y1155914D1*
Y1168814D1*
X674068D1*
X658284Y1158766D2*
X674068Y1148718D1*
X643958Y1132291D2*
X645384Y1136569D1*
X648235Y1138028D1*
X651121D1*
X653972Y1136569D1*
X655432Y1133717D1*
X656858Y1127980D1*
X658283Y1123669D1*
X661169Y1120817D1*
X664020Y1119391D1*
X668331D1*
X671183Y1120817D1*
X672642Y1122243D1*
X674068Y1126554D1*
Y1132291D1*
X672643Y1136569D1*
X671183Y1138028D1*
X668332Y1139454D1*
X664020D1*
X661169Y1138028D1*
X658284Y1135143D1*
X656858Y1130865D1*
X655432Y1125128D1*
X653972Y1122243D1*
X651121Y1120817D1*
X648235D1*
X645384Y1122243D1*
X643958Y1126554D1*
Y1132291D1*
X2104555Y768926D2*
Y756026D1*
X2103096Y751715D1*
X2101670Y750256D1*
X2098818Y748830D1*
X2095933D1*
X2093081Y750256D1*
X2091622Y751715D1*
X2090196Y756026D1*
Y768926D1*
X2120340D1*
X2104555Y758878D2*
X2120340Y748830D1*
X2108866Y739567D2*
Y722356D1*
X2105981D1*
X2103096Y723782D1*
X2101670Y725208D1*
X2100244Y728093D1*
Y732404D1*
X2101670Y735256D1*
X2104555Y738141D1*
X2108866Y739567D1*
X2111718D1*
X2116029Y738141D1*
X2118881Y735256D1*
X2120340Y732404D1*
Y728093D1*
X2118881Y725208D1*
X2116029Y722356D1*
X2100244Y713092D2*
X2120340Y704470D1*
X2100244Y695881D1*
X2120340Y634476D2*
X2090196Y645983D1*
X2120340Y657457D1*
X2110292Y653146D2*
Y638787D1*
X2086699Y1170564D2*
X2109647D1*
X2113958Y1171990D1*
X2115384Y1173449D1*
X2116843Y1176301D1*
Y1179186D1*
X2115384Y1182038D1*
X2113958Y1183464D1*
X2109647Y1184923D1*
X2106795D1*
X2086699Y1141204D2*
X2116843D1*
X2086699Y1161300D1*
X2116843D1*
Y1108960D2*
X2086699Y1120467D1*
X2116843Y1131941D1*
X2106795Y1127630D2*
Y1113271D1*
X2086699Y1099696D2*
X2116843Y1088222D1*
X2086699Y1076748D1*
X2116843Y1044504D2*
X2086699Y1056011D1*
X2116843Y1067485D1*
X2106795Y1063174D2*
Y1048815D1*
X2101058Y1035240D2*
Y1022340D1*
X2099599Y1018029D1*
X2098173Y1016570D1*
X2095321Y1015144D1*
X2092436D1*
X2089584Y1016570D1*
X2088125Y1018029D1*
X2086699Y1022340D1*
Y1035240D1*
X2116843D1*
X2101058Y1025192D2*
X2116843Y1015144D1*
X2101058Y1005881D2*
Y992981D1*
X2099599Y988670D1*
X2098173Y987211D1*
X2095321Y985785D1*
X2092436D1*
X2089584Y987211D1*
X2088125Y988670D1*
X2086699Y992981D1*
Y1005881D1*
X2116843D1*
X2101058Y995833D2*
X2116843Y985785D1*
X2086699Y967899D2*
X2088125Y970784D1*
X2091010Y973636D1*
X2093862Y975095D1*
X2098173Y976521D1*
X2105369D1*
X2109647Y975095D1*
X2112532Y973636D1*
X2115384Y970784D1*
X2116843Y967899D1*
Y962162D1*
X2115384Y959310D1*
X2112532Y956425D1*
X2109647Y954999D1*
X2105369Y953573D1*
X2098173D1*
X2093862Y954999D1*
X2091010Y956425D1*
X2088125Y959310D1*
X2086699Y962162D1*
Y967899D1*
M02*
