M48
INCH
T01C0.012
T02C0.0157
T03C0.0354
T04C0.126
%
T01
X+006824Y+012657
X+005194Y+011597
X+006964Y+010017
X+007474Y+010077
X+007104Y+009047
X+006224Y+008877
X+004844Y+008197
X+004474Y+009167
X+009034Y+009867
X+009779Y+009962
X+010214Y+009947
X+010584Y+009977
X+010584Y+008777
X+010354Y+008447
X+010794Y+008077
X+009704Y+007837
X+009094Y+010687
X+010504Y+011597
X+010534Y+012497
X+009564Y+012447
X+012382Y+011857
X+013324Y+011887
X+013409Y+011342
X+013064Y+011187
X+013814Y+011367
X+013824Y+010857
X+015014Y+009697
X+015914Y+009357
X+015984Y+010717
X+016014Y+011697
X+016944Y+012027
X+016254Y+012687
X+014624Y+012477
X+017264Y+009087
X+015644Y+007467
X+015814Y+007097
X+015274Y+007277
X+013454Y+007207
X+013904Y+006017
X+016634Y+005407
X+018174Y+005747
X+020014Y+009507
X+019964Y+010047
T02
X+012744Y+008637
X+012064Y+009307
X+012754Y+009957
X+013424Y+009317
T03
X+018234Y+013537
X+017234Y+013537
X+016234Y+013537
X+015234Y+013537
X+014234Y+013537
X+013234Y+013537
X+012234Y+013537
X+011234Y+013537
X+010234Y+013537
X+009234Y+013537
X+008234Y+013537
X+007234Y+013537
X+007234Y+004537
X+008234Y+004537
X+009234Y+004537
X+010234Y+004537
X+011234Y+004537
X+012234Y+004537
X+013234Y+004537
X+014234Y+004537
X+015234Y+004537
X+016234Y+004537
X+017234Y+004537
X+018234Y+004537
T04
X+020550Y+005137
X+020550Y+013037
X+005034Y+013037
X+005034Y+005137
T00
M30
