G04 DipTrace 3.1.0.0*
G04 Top.gbr*
%MOIN*%
G04 #@! TF.FileFunction,Copper,L1,Top*
G04 #@! TF.Part,Single*
%AMOUTLINE0*
4,1,16,
0.018096,0.009744,
0.019493,0.011969,
0.019787,0.01458,
0.01892,0.017062,
0.017062,0.01892,
0.01458,0.019787,
0.011969,0.019493,
0.009744,0.018096,
-0.018096,-0.009744,
-0.019493,-0.011969,
-0.019787,-0.01458,
-0.01892,-0.017062,
-0.017062,-0.01892,
-0.01458,-0.019787,
-0.011969,-0.019493,
-0.009744,-0.018096,
0.018096,0.009744,
0*%
%AMOUTLINE3*
4,1,16,
0.009744,-0.018096,
0.011969,-0.019493,
0.01458,-0.019787,
0.017062,-0.01892,
0.01892,-0.017062,
0.019787,-0.01458,
0.019493,-0.011969,
0.018096,-0.009744,
-0.009744,0.018096,
-0.011969,0.019493,
-0.01458,0.019787,
-0.017062,0.01892,
-0.01892,0.017062,
-0.019787,0.01458,
-0.019493,0.011969,
-0.018096,0.009744,
0.009744,-0.018096,
0*%
%AMOUTLINE6*5,1,4,0,0,0.250549,-179.999999*%
%AMOUTLINE9*
4,1,4,
-0.031496,-0.035432,
-0.031496,0.035432,
0.031496,0.035432,
0.031496,-0.035432,
-0.031496,-0.035432,
0*%
%AMOUTLINE12*
4,1,4,
-0.004176,-0.048718,
-0.048718,-0.004176,
0.004176,0.048718,
0.048718,0.004176,
-0.004176,-0.048718,
0*%
G04 #@! TA.AperFunction,Conductor*
%ADD10C,0.01*%
%ADD14C,0.007*%
G04 #@! TA.AperFunction,CopperBalancing*
%ADD15C,0.025*%
%ADD16C,0.012992*%
%ADD17R,0.035433X0.027559*%
%ADD18R,0.027559X0.035433*%
G04 #@! TA.AperFunction,ComponentPad*
%ADD19R,0.059055X0.059055*%
%ADD20C,0.059055*%
%ADD22R,0.094488X0.029134*%
%ADD23R,0.047244X0.03937*%
%ADD24R,0.023228X0.028346*%
%ADD26R,0.025591X0.041339*%
%ADD28R,0.051181X0.059055*%
%ADD30R,0.066929X0.031496*%
%ADD33R,0.013583X0.043307*%
G04 #@! TA.AperFunction,ViaPad*
%ADD35C,0.028*%
%ADD37C,0.031496*%
%ADD73OUTLINE0*%
%ADD76OUTLINE3*%
%ADD79OUTLINE6*%
%ADD82OUTLINE9*%
%ADD85OUTLINE12*%
%FSLAX26Y26*%
G04*
G70*
G90*
G75*
G01*
G04 Top*
%LPD*%
X968386Y1132701D2*
D14*
X864386D1*
X853386Y1143701D1*
X1823386Y1353701D2*
D10*
Y1207898D1*
X1818787Y1203299D1*
X1919843Y1003701D2*
Y1102244D1*
X1818787Y1203299D1*
X1823386Y1353701D2*
Y1371701D1*
X1798386Y1396701D1*
X663386D1*
X655386Y1388701D1*
Y1292701D1*
X682386Y1265701D1*
X1314081Y792067D2*
Y792005D1*
X1390386Y715701D1*
Y601701D1*
X1382386Y1085701D2*
D14*
Y1081701D1*
X1360386Y1059701D1*
Y1057185D1*
X1341642Y1038441D1*
X968386Y1132701D2*
D10*
Y1232701D1*
X956386Y1244701D1*
X780583Y743701D2*
D14*
Y836504D1*
X771386Y845701D1*
X723386D1*
Y891701D1*
X710386Y904701D1*
X474567Y763701D2*
Y729385D1*
X481251Y722701D1*
X723386D1*
X743386Y742701D1*
X779583D1*
X780583Y743701D1*
X423386Y763701D2*
Y729701D1*
X430386Y722701D1*
X481251D1*
X448976Y868031D2*
Y836291D1*
X423386Y810701D1*
Y763701D1*
X1382386Y1085701D2*
X1385386D1*
Y1098701D1*
X1432386Y1145701D1*
X1445386D1*
X1506386Y1206701D1*
Y1251701D1*
X1522386Y1267701D1*
X1624386D1*
X1625386Y1268701D1*
X1123386Y903701D2*
X994567D1*
X993386Y902520D1*
Y806701D1*
X970386Y783701D1*
X1591386Y935701D2*
X1634386D1*
X1716386Y1017701D1*
Y1091701D1*
X1654386Y1153701D1*
Y1322701D1*
X1623386Y1353701D1*
X993386Y902520D2*
X894567D1*
X893386Y903701D1*
X803386D1*
X1248382Y1080478D2*
Y1114697D1*
X1297386Y1163701D1*
X1440386D1*
X1488386Y1211701D1*
Y1318701D1*
X1523386Y1353701D1*
X1137306Y889781D2*
X1136466D1*
X1104386Y857701D1*
X1078386D1*
X1058386Y877701D1*
Y997701D2*
X1060386D1*
Y1077701D1*
X1132386Y1149701D1*
Y1247701D1*
X1082386Y1297701D1*
X879386D1*
X823386Y1353701D1*
X723386D2*
Y1318701D1*
X762386Y1279701D1*
X1072386D1*
X1116386Y1235701D1*
Y1159701D1*
X1043386Y1086701D1*
Y1016701D1*
X1021386Y994701D1*
X1035386Y844701D2*
X1082386D1*
X1091386Y835701D1*
X1111063D1*
X1151224Y875862D1*
X1165144Y861942D2*
Y861459D1*
X1106386Y802701D1*
Y616701D1*
X1024386Y534701D1*
X804404D1*
X723386Y453682D1*
X1179063Y848022D2*
Y846378D1*
X1123386Y790701D1*
Y611701D1*
X1032386Y520701D1*
X890404D1*
X823386Y453682D1*
X1192983Y834104D2*
Y833298D1*
X1138386Y778701D1*
Y600701D1*
X1040386Y502701D1*
X972404D1*
X923386Y453682D1*
X1206903Y820184D2*
Y819218D1*
X1164386Y776701D1*
Y594682D1*
X1023386Y453682D1*
X1220822Y806265D2*
Y806136D1*
X1184386Y769701D1*
Y514682D1*
X1123386Y453682D1*
X1234741Y792345D2*
Y791056D1*
X1207386Y763701D1*
Y469682D1*
X1223386Y453682D1*
X1323386D2*
Y703699D1*
X1248660Y778425D1*
X1397598Y875584D2*
Y875488D1*
X1476386Y796701D1*
X1574386D1*
X1591386Y779701D1*
Y719701D1*
X1581386Y709701D1*
X2073386Y903701D2*
X2010386D1*
X2004386Y897701D1*
Y724701D1*
X1933386Y653701D1*
X1600386D1*
X1582386Y671701D1*
Y709701D1*
X1581386D1*
X1289386Y1212701D2*
X1379205D1*
X1379795Y1212110D1*
X1234463Y1066558D2*
Y1066623D1*
X1210386Y1090701D1*
Y1100701D1*
X1288386Y1178701D1*
Y1211701D1*
X1289386Y1212701D1*
X1523386Y453682D2*
Y610602D1*
X1328001Y805987D1*
X2073386Y803701D2*
Y678701D1*
X2058386Y663701D1*
X1981386D1*
X1882386Y564701D1*
X1827386D1*
X1817386Y574701D1*
X1623386Y453682D2*
X1596404D1*
X1547386Y502701D1*
Y614441D1*
X1341921Y819906D1*
X2073386Y953701D2*
X2004386D1*
X2001386Y950701D1*
X1723386Y453682D2*
Y481701D1*
X1696386Y508701D1*
X1577386D1*
X1567386Y518701D1*
Y622280D1*
X1355840Y833825D1*
X1723386Y480701D2*
X1663386Y540701D1*
X1996386Y1004701D2*
X2072386D1*
X2073386Y1003701D1*
X1369760Y847744D2*
Y847327D1*
X1636386Y580701D1*
X1696367D1*
X1823386Y453682D1*
X2073386Y853701D2*
X2140386D1*
X2146386Y847701D1*
Y664701D1*
X2119386Y637701D1*
X1982386D1*
X1934386Y589701D1*
Y491701D1*
X1895386Y452701D1*
X1824367D1*
X1823386Y453682D1*
X1423386Y1353701D2*
Y1256701D1*
X1410386Y1243701D1*
X1218386D1*
X1207386Y1232701D1*
Y1118701D1*
X1162386Y1073701D1*
Y1055118D1*
X1192705Y1024799D1*
X1178785Y1010881D2*
X1177206D1*
X1144386Y1043701D1*
Y1076701D1*
X1191386Y1123701D1*
Y1240701D1*
X1209386Y1258701D1*
X1312386D1*
X1322386Y1268701D1*
Y1352701D1*
X1323386Y1353701D1*
X1023386D2*
X1057386D1*
X1147386Y1263701D1*
Y1143701D1*
X1095386Y1091701D1*
Y1010762D1*
X1137026Y969122D1*
X1300163Y778147D2*
X1304386D1*
Y761701D1*
X1345386Y720701D1*
X977886Y996201D2*
X998386Y1016701D1*
X1012386D1*
X1030386Y1034701D1*
Y1097701D1*
X1102386Y1169701D1*
Y1200701D1*
X1053386Y1249701D1*
X623386Y845701D2*
X573386D1*
X532386Y804701D1*
X459386D1*
X448386Y793701D1*
Y764291D1*
X448976Y763701D1*
X1919843Y803701D2*
X1854386D1*
X1843386Y814701D1*
Y891701D1*
X1854386Y902701D1*
X1918843D1*
X1919843Y903701D1*
Y953701D1*
X1369482Y1010602D2*
X1369287D1*
X1346386Y987701D1*
X1332661D1*
X1274273Y929312D1*
X1592567Y1219701D2*
X1625386D1*
X1634386Y1210701D1*
Y1107701D1*
X1598386Y1071701D1*
X1723386Y1353701D2*
Y1308701D1*
X1781386Y1250701D1*
Y865211D1*
X1752874Y836699D1*
X1658386Y726465D2*
Y682701D1*
X1671386Y669701D1*
X1808386D1*
X1812386Y673701D1*
Y777188D1*
X1752874Y836699D1*
X1919843Y953701D2*
X1869875D1*
X1752874Y836699D1*
X453386Y1157559D2*
D10*
X517244D1*
X519386Y1159701D1*
X634567Y1153701D2*
Y1172520D1*
X619386Y1187701D1*
X547386D1*
X519386Y1159701D1*
X623386Y845701D2*
Y886701D1*
X622386Y887701D1*
X803205Y1023701D2*
Y955063D1*
X803386Y954882D1*
X893386D1*
Y976701D1*
X903386Y986701D1*
X802205Y1143701D2*
X644567D1*
X634567Y1153701D1*
X1238205Y1212701D2*
Y1185701D1*
X1546567Y771701D2*
Y764520D1*
X1564386Y746701D1*
X1274273Y929312D2*
D14*
X1288192D1*
X1369482Y1010602D1*
X1752874Y836699D2*
Y882213D1*
X1726386Y908701D1*
X1274273Y929312D2*
Y994588D1*
X1275386Y995701D1*
X448976Y763701D2*
Y784291D1*
X484386Y819701D1*
X447386Y916701D2*
X432386D1*
X420386Y904701D1*
Y871031D1*
X423386Y868031D1*
X1411518Y889503D2*
X1413584D1*
X1487386Y815701D1*
X1578386D1*
X1611386Y782701D1*
X1696636D1*
X1752874Y726463D1*
X1123108Y955202D2*
X994887D1*
X993386Y953701D1*
X953386D1*
X947386Y959701D1*
Y1032961D1*
X968386Y1053961D1*
X854386Y1023701D2*
X938126D1*
X968386Y1053961D1*
X1425159Y954924D2*
X1486609D1*
X1501386Y969701D1*
X1079386Y807701D2*
X1042386D1*
X978386Y743701D1*
X855386D1*
X1355562Y1024521D2*
X1410386Y1079345D1*
X1413030D1*
X1425386Y1091701D1*
X1743984Y1203299D2*
X1694984D1*
X1694386Y1202701D1*
X1340886Y1134201D2*
X1347386Y1127701D1*
X1332386Y1112701D1*
Y1084862D1*
X1313803Y1066280D1*
X600205Y649701D2*
X514567D1*
X1658386Y836701D2*
X1492159D1*
X1425437Y903423D1*
X1411239Y968844D2*
X1411529D1*
X1466386Y1023701D1*
X1635386D1*
X1640386Y1028701D1*
X1397320Y982762D2*
X1397448D1*
X1460386Y1045701D1*
X1490352D1*
X1556869Y1112218D1*
X817984Y653150D2*
X808835D1*
X805386Y649701D1*
X651386D1*
X453386Y1023701D2*
X563386D1*
X583386Y1043701D1*
Y1153701D2*
Y1043701D1*
X1299885Y1080199D2*
Y1112199D1*
X1306386Y1118701D1*
X909386Y1068701D2*
X796386D1*
X759386Y1031701D1*
X678386D1*
X664386Y1017701D1*
X609386D1*
X583386Y1043701D1*
X634567D2*
Y1048701D1*
X746386D1*
X791386Y1093701D1*
X994386D1*
X1046386Y1145701D1*
Y1155701D1*
X1050386Y1159701D1*
X1332386Y1188701D2*
X1407567D1*
X1430976Y1212110D1*
X1463181Y1091701D2*
Y1141496D1*
X1541386Y1219701D1*
X1383678Y861664D2*
X1384423D1*
X1473386Y772701D1*
X1495386D1*
Y771701D1*
Y759701D1*
X1527386Y727701D1*
X1601386Y1169701D2*
X1591386D1*
X1541386Y1219701D1*
X1327723Y1052360D2*
X1328045D1*
X1354386Y1078701D1*
Y1094701D1*
X1358386Y1098701D1*
Y1113701D1*
X1381386Y1136701D1*
X1383400Y996682D2*
Y997715D1*
X1447386Y1061701D1*
X1477386D1*
X1492386Y1076701D1*
Y1134701D1*
X1539386Y1181701D1*
Y1217701D1*
X1541386Y1219701D1*
X1430976Y1212110D2*
Y1216291D1*
X1462386Y1247701D1*
X723386Y794520D2*
X623386D1*
X553205D1*
X523386Y764701D1*
X501157D1*
X500157Y763701D1*
X1223386Y1353701D2*
Y1283701D1*
X1216386Y1276701D1*
X1206386D1*
X1177386Y1247701D1*
Y1129701D1*
X1129386Y1081701D1*
Y1032441D1*
X1164866Y996961D1*
X500157Y868031D2*
Y924472D1*
X553386Y977701D1*
X717386D1*
X747386Y1007701D1*
X1123386Y1353701D2*
Y1311701D1*
X1163386Y1271701D1*
Y1137701D1*
X1110386Y1084701D1*
Y1023601D1*
X1150946Y983041D1*
X696386Y1001701D2*
X554386D1*
X475386Y922701D1*
Y868850D1*
X474567Y868031D1*
D35*
X682386Y1265701D3*
X1390386Y601701D3*
X1382386Y1085701D3*
X956386Y1244701D3*
X682386Y1265701D3*
X710386Y904701D3*
X1625386Y1268701D3*
X1382386Y1085701D3*
X970386Y783701D3*
X1591386Y935701D3*
X1058386Y877701D3*
Y997701D3*
X1021386Y994701D3*
X1035386Y844701D3*
X1581386Y709701D3*
X1817386Y574701D3*
X2001386Y950701D3*
X1663386Y540701D3*
X1996386Y1004701D3*
X1345386Y720701D3*
X977886Y996201D3*
X1053386Y1249701D3*
X1598386Y1071701D3*
X519386Y1159701D3*
X622386Y887701D3*
X903386Y986701D3*
X1238205Y1185701D3*
X1564386Y746701D3*
X1726386Y908701D3*
X1564386Y746701D3*
X484386Y819701D3*
X447386Y916701D3*
X1501386Y969701D3*
X1079386Y807701D3*
X1694386Y1202701D3*
X1340886Y1134201D3*
X1306386Y1118701D3*
X909386Y1068701D3*
X1050386Y1159701D3*
X1332386Y1188701D3*
X1527386Y727701D3*
X1601386Y1169701D3*
X1381386Y1136701D3*
X1462386Y1247701D3*
X747386Y1007701D3*
X696386Y1001701D3*
D37*
X1274386Y863701D3*
X1275386Y995701D3*
X1206386Y930701D3*
X1342386Y931701D3*
X600035Y1362631D2*
D15*
X627408D1*
X1875913D2*
X1958413D1*
X611608Y1337762D2*
X627408D1*
X1875913D2*
X1946841D1*
X616539Y1312894D2*
X627413D1*
X683385D2*
X691932D1*
X765612D2*
X791959D1*
X1158629D2*
X1191959D1*
X1254820D2*
X1291959D1*
X1354820D2*
X1391959D1*
X1554820D2*
X1591959D1*
X1680894D2*
X1691961D1*
X1754820D2*
X1770864D1*
X1875913D2*
X1941861D1*
X615807Y1288025D2*
X627840D1*
X1249888D2*
X1295913D1*
X1348864D2*
X1396890D1*
X1449888D2*
X1461881D1*
X1680894D2*
X1795377D1*
X1851353D2*
X1942593D1*
X609264Y1263156D2*
X645474D1*
X719273D2*
X742496D1*
X1680894D2*
X1795377D1*
X1851353D2*
X1949136D1*
X595640Y1238287D2*
X658951D1*
X705845D2*
X919986D1*
X995738D2*
X1018325D1*
X1680894D2*
X1695352D1*
X1867369D2*
X1962808D1*
X427623Y1213419D2*
X436232D1*
X570543D2*
X939322D1*
X996373D2*
X1053238D1*
X1867369D2*
X1987857D1*
X2122203D2*
X2134573D1*
X509849Y1188550D2*
X940396D1*
X996373D2*
X1028971D1*
X1872056D2*
X2134585D1*
X509849Y1163681D2*
X542692D1*
X675280D2*
X761490D1*
X894077D2*
X921744D1*
X1680894D2*
X1695352D1*
X1896959D2*
X2134585D1*
X509849Y1138812D2*
X542692D1*
X675280D2*
X761490D1*
X1619273D2*
X1633105D1*
X1705699D2*
X1844741D1*
X1921812D2*
X2134585D1*
X427623Y1113944D2*
X556900D1*
X609849D2*
X761490D1*
X1628404D2*
X1657730D1*
X1730552D2*
X1869596D1*
X1945005D2*
X2134585D1*
X427623Y1089075D2*
X556900D1*
X609849D2*
X750357D1*
X1609752D2*
X1624723D1*
X1664390D2*
X1682584D1*
X1742857D2*
X1891861D1*
X1947837D2*
X2134585D1*
X427623Y1064206D2*
X542692D1*
X1584849D2*
X1599869D1*
X1742857D2*
X1891861D1*
X1947837D2*
X2134585D1*
X1742857Y1039337D2*
X1891861D1*
X1947837D2*
X2134585D1*
X1742661Y1014469D2*
X1849576D1*
X1532066Y989600D2*
X1595133D1*
X1724693D2*
X1849576D1*
X427623Y964731D2*
X480972D1*
X740856D2*
X766617D1*
X840172D2*
X856642D1*
X1538024D2*
X1570230D1*
X1612535D2*
X1620039D1*
X1699840D2*
X1849576D1*
X427623Y939862D2*
X456119D1*
X551988D2*
X766617D1*
X840172D2*
X856642D1*
X1521226D2*
X1554654D1*
X1674986D2*
X1849576D1*
X427623Y914993D2*
X448892D1*
X527085D2*
X674967D1*
X745836D2*
X766617D1*
X1453697D2*
X1561295D1*
X1649009D2*
X1849576D1*
X529967Y890125D2*
X676627D1*
X749888D2*
X766617D1*
X1475181D2*
X1614615D1*
X1796665D2*
X1843619D1*
X529967Y865256D2*
X586588D1*
X660142D2*
X686588D1*
X787780D2*
X956608D1*
X1500035D2*
X1603921D1*
X1807360D2*
X1843619D1*
X529967Y840387D2*
X586588D1*
X660142D2*
X686588D1*
X806773D2*
X966909D1*
X1807360D2*
X1843619D1*
X464635Y815518D2*
X539127D1*
X807066D2*
X954556D1*
X1807360D2*
X1843619D1*
X807066Y790650D2*
X934097D1*
X1804381D2*
X1849576D1*
X560875Y765781D2*
X586588D1*
X660142D2*
X686588D1*
X1036900D2*
X1079898D1*
X1806969D2*
X1977896D1*
X2030894D2*
X2046878D1*
X2099888D2*
X2119888D1*
X1011997Y740912D2*
X1079898D1*
X1807360D2*
X1977896D1*
X2030894D2*
X2046878D1*
X2099888D2*
X2119888D1*
X891197Y716043D2*
X1079898D1*
X1233873D2*
X1274625D1*
X1807360D2*
X1959293D1*
X2029234D2*
X2046913D1*
X2099888D2*
X2119888D1*
X427623Y691175D2*
X782193D1*
X853795D2*
X1079898D1*
X1233873D2*
X1296890D1*
X1807360D2*
X1934440D1*
X2007261D2*
X2046890D1*
X2099888D2*
X2119888D1*
X853795Y666306D2*
X1079898D1*
X1233873D2*
X1296890D1*
X1349888D2*
X1362417D1*
X1418394D2*
X1431241D1*
X2096421D2*
X2111588D1*
X853795Y641437D2*
X1079898D1*
X1233873D2*
X1296890D1*
X1349888D2*
X1362417D1*
X1418394D2*
X1456119D1*
X692125Y616568D2*
X782193D1*
X853795D2*
X1069840D1*
X1233873D2*
X1296890D1*
X1424009D2*
X1481021D1*
X1636949D2*
X1897818D1*
X584948Y591699D2*
X1044986D1*
X1233873D2*
X1296890D1*
X1425913D2*
X1496890D1*
X1721812D2*
X1784879D1*
X1849888D2*
X1872965D1*
X603404Y566831D2*
X1020084D1*
X1233873D2*
X1296890D1*
X1349888D2*
X1496890D1*
X1593883D2*
X1613833D1*
X1746665D2*
X1781314D1*
X613268Y541962D2*
X775260D1*
X1148081D2*
X1157871D1*
X1233873D2*
X1296890D1*
X1349888D2*
X1496890D1*
X1593883D2*
X1626432D1*
X1771520D2*
X1804020D1*
X1892516D2*
X1907937D1*
X616881Y517093D2*
X750357D1*
X1123228D2*
X1150357D1*
X1233873D2*
X1296890D1*
X1349888D2*
X1496890D1*
X1796421D2*
X1907877D1*
X614829Y492224D2*
X688980D1*
X1257799D2*
X1288980D1*
X1357799D2*
X1388980D1*
X1457799D2*
X1488980D1*
X1875913D2*
X1898501D1*
X606822Y467356D2*
X672769D1*
X591100Y442487D2*
X672135D1*
X1921617D2*
X1967301D1*
X827669Y1177980D2*
X891602D1*
Y1156642D1*
X924298Y1156701D1*
X924264Y1172886D1*
X942867D1*
X942886Y1212925D1*
X936108Y1216790D1*
X931991Y1220306D1*
X928475Y1224423D1*
X925646Y1229038D1*
X923575Y1234039D1*
X922311Y1239303D1*
X921886Y1244701D1*
X922311Y1250098D1*
X923702Y1255710D1*
X760503Y1255774D1*
X754970Y1256875D1*
X749845Y1259238D1*
X745190Y1262974D1*
X705136Y1303114D1*
X701820Y1308199D1*
X702001Y1307804D1*
X700673Y1309126D1*
X693980Y1313227D1*
X688010Y1318325D1*
X682912Y1324295D1*
X680875Y1327345D1*
X680886Y1303202D1*
X684017Y1300133D1*
X690440Y1299248D1*
X695588Y1297575D1*
X700412Y1295117D1*
X704791Y1291934D1*
X708619Y1288106D1*
X711802Y1283727D1*
X714260Y1278903D1*
X715933Y1273755D1*
X716780Y1268408D1*
Y1262993D1*
X715933Y1257647D1*
X714260Y1252499D1*
X711802Y1247675D1*
X708619Y1243295D1*
X704791Y1239467D1*
X700412Y1236285D1*
X695588Y1233827D1*
X690440Y1232154D1*
X685093Y1231307D1*
X679678D1*
X674332Y1232154D1*
X669184Y1233827D1*
X664360Y1236285D1*
X659980Y1239467D1*
X656152Y1243295D1*
X652970Y1247675D1*
X650512Y1252499D1*
X648839Y1257647D1*
X647949Y1264104D1*
X634756Y1277713D1*
X631827Y1282942D1*
X630199Y1288711D1*
X629886Y1292701D1*
Y1387538D1*
X576249Y1387500D1*
X587833Y1375827D1*
X593232Y1368978D1*
X598077Y1361727D1*
X602337Y1354119D1*
X605988Y1346201D1*
X609007Y1338020D1*
X611374Y1329626D1*
X613075Y1321073D1*
X614100Y1312415D1*
X614442Y1303701D1*
X614100Y1294987D1*
X613075Y1286328D1*
X611374Y1277776D1*
X609007Y1269382D1*
X605988Y1261201D1*
X602337Y1253282D1*
X598077Y1245675D1*
X593232Y1238424D1*
X587833Y1231575D1*
X581915Y1225172D1*
X575512Y1219253D1*
X568663Y1213854D1*
X561412Y1209009D1*
X553804Y1204749D1*
X545886Y1201098D1*
X537705Y1198080D1*
X529311Y1195713D1*
X520759Y1194012D1*
X507369Y1192801D1*
X507350Y1121311D1*
X425094D1*
X425100Y1059941D1*
X507350Y1059949D1*
Y1047693D1*
X545134Y1047701D1*
X545169Y1077980D1*
X559378D1*
X559102Y1119421D1*
X545169D1*
Y1187980D1*
X672783D1*
Y1119421D1*
X607394D1*
X607669Y1077980D1*
X672783D1*
Y1072657D1*
X736459Y1072701D1*
X772921Y1109421D1*
X763988D1*
Y1177980D1*
X840421Y1177970D1*
X859155Y989421D2*
X837661D1*
X837665Y927709D1*
X859106Y927984D1*
Y989429D1*
X838921Y989421D1*
X837665Y879759D2*
Y865484D1*
X784980D1*
X790196Y860832D1*
X799999Y850610D1*
X802756Y845689D1*
X804287Y840259D1*
X804583Y836504D1*
Y784892D1*
X813878Y784870D1*
Y702531D1*
X747287D1*
Y712639D1*
X737492Y703285D1*
X732571Y700528D1*
X727140Y698996D1*
X723386Y698701D1*
X428503Y698774D1*
X426206Y699081D1*
X425098Y698076D1*
Y592461D1*
X431260Y598148D1*
X438109Y603547D1*
X445360Y608392D1*
X459000Y615433D1*
X425169Y615421D1*
Y683980D1*
X552783D1*
Y673677D1*
X561988Y677921D1*
Y683980D1*
X689602D1*
Y673677D1*
X784735Y673701D1*
X784689Y694319D1*
X851280D1*
Y611980D1*
X784689D1*
Y625701D1*
X689614D1*
X689602Y615421D1*
X561988D1*
Y625724D1*
X552783Y621480D1*
Y615421D1*
X547950D1*
X561412Y608392D1*
X568663Y603547D1*
X575512Y598148D1*
X581915Y592230D1*
X587833Y585827D1*
X593232Y578978D1*
X598077Y571727D1*
X602337Y564119D1*
X605988Y556201D1*
X609007Y548020D1*
X611374Y539626D1*
X613075Y531073D1*
X614100Y522415D1*
X614442Y513701D1*
X614100Y504987D1*
X613075Y496328D1*
X611374Y487776D1*
X609007Y479382D1*
X605988Y471201D1*
X602337Y463282D1*
X598077Y455675D1*
X593232Y448424D1*
X587833Y441575D1*
X581915Y435172D1*
X575512Y429253D1*
X568125Y423495D1*
X683516Y423524D1*
X678811Y430970D1*
X675807Y438223D1*
X673974Y445857D1*
X673358Y453682D1*
X673974Y461508D1*
X675807Y469142D1*
X678811Y476395D1*
X682912Y483088D1*
X688010Y489058D1*
X693980Y494156D1*
X700673Y498257D1*
X707927Y501261D1*
X715560Y503094D1*
X723386Y503710D1*
X731211Y503094D1*
X737442Y501657D1*
X788818Y552950D1*
X793508Y556085D1*
X798802Y558038D1*
X804735Y558688D1*
X1014512Y558701D1*
X1082373Y626629D1*
X1082386Y773293D1*
X1076678Y773307D1*
X1071332Y774154D1*
X1066184Y775827D1*
X1061360Y778285D1*
X1056980Y781467D1*
X1054386Y783701D1*
X1052277D1*
X993972Y725451D1*
X989282Y722316D1*
X983988Y720364D1*
X978055Y719714D1*
X888689Y719701D1*
X888681Y702531D1*
X822091D1*
Y784870D1*
X888681D1*
Y767731D1*
X939810Y767701D1*
X937575Y773039D1*
X936311Y778303D1*
X935886Y783701D1*
X936311Y789098D1*
X937575Y794362D1*
X939646Y799364D1*
X942475Y803979D1*
X945991Y808096D1*
X950108Y811612D1*
X954723Y814441D1*
X959724Y816512D1*
X964988Y817776D1*
X969403Y818163D1*
X969386Y864269D1*
X959106Y864303D1*
Y878512D1*
X927713Y878520D1*
X927665Y865484D1*
X859106D1*
Y879693D1*
X837673Y879701D1*
X769106Y869732D2*
Y980894D1*
X763049Y976961D1*
X758047Y974890D1*
X752783Y973626D1*
X746825Y973223D1*
X731492Y958285D1*
X726571Y955528D1*
X721140Y953996D1*
X717386Y953701D1*
X563333D1*
X524125Y914499D1*
X524157Y910165D1*
X527449Y910185D1*
Y825878D1*
X472866Y825927D1*
X470361Y825395D1*
X467226Y820705D1*
X452448Y805820D1*
X527449Y805854D1*
Y802681D1*
X539098Y813936D1*
X544020Y816693D1*
X549450Y818224D1*
X553205Y818520D1*
X589106Y818803D1*
Y883917D1*
X657665D1*
Y818528D1*
X689106Y818803D1*
Y877552D1*
X684152Y882295D1*
X680970Y886675D1*
X678512Y891499D1*
X676839Y896647D1*
X675992Y901993D1*
Y907408D1*
X676839Y912755D1*
X678512Y917903D1*
X680970Y922727D1*
X684152Y927106D1*
X687980Y930934D1*
X692360Y934117D1*
X697184Y936575D1*
X702332Y938248D1*
X707678Y939094D1*
X713093D1*
X718440Y938248D1*
X723588Y936575D1*
X728412Y934117D1*
X732791Y930934D1*
X736619Y927106D1*
X739802Y922727D1*
X742260Y917903D1*
X743933Y912755D1*
X744780Y907408D1*
X744799Y902512D1*
X746723Y897303D1*
X747386Y891701D1*
Y883937D1*
X757665Y883917D1*
Y869709D1*
X769130Y869701D1*
X1990272Y423495D2*
X1982885Y429253D1*
X1976482Y435172D1*
X1970563Y441575D1*
X1965164Y448424D1*
X1960319Y455675D1*
X1956059Y463282D1*
X1951169Y474556D1*
X1909492Y433285D1*
X1904571Y430528D1*
X1899140Y428996D1*
X1895386Y428701D1*
X1873413Y428710D1*
Y423486D1*
X1990156Y423524D1*
X2137109Y1228999D2*
X2127168Y1219253D1*
X2120319Y1213854D1*
X2113068Y1209009D1*
X2105461Y1204749D1*
X2097542Y1201098D1*
X2089361Y1198080D1*
X2080967Y1195713D1*
X2072415Y1194012D1*
X2063756Y1192987D1*
X2055042Y1192644D1*
X2046328Y1192987D1*
X2037669Y1194012D1*
X2029117Y1195713D1*
X2020723Y1198080D1*
X2012542Y1201098D1*
X2004623Y1204749D1*
X1997016Y1209009D1*
X1989765Y1213854D1*
X1982916Y1219253D1*
X1976513Y1225172D1*
X1970594Y1231575D1*
X1965196Y1238424D1*
X1960350Y1245675D1*
X1956091Y1253282D1*
X1952440Y1261201D1*
X1949421Y1269382D1*
X1947054Y1277776D1*
X1945353Y1286328D1*
X1944328Y1294987D1*
X1943986Y1303701D1*
X1944328Y1312415D1*
X1945353Y1321073D1*
X1947054Y1329626D1*
X1949421Y1338020D1*
X1952440Y1346201D1*
X1956091Y1354119D1*
X1960350Y1361727D1*
X1965196Y1368978D1*
X1970594Y1375827D1*
X1976513Y1382230D1*
X1982241Y1387525D1*
X1873417Y1387499D1*
X1873413Y1303673D1*
X1848853D1*
X1848886Y1253360D1*
X1864878Y1253327D1*
Y1193219D1*
X1939232Y1118804D1*
X1942563Y1113822D1*
X1944638Y1108197D1*
X1945329Y1101908D1*
X1945343Y1038719D1*
X1987587Y1038768D1*
Y1038035D1*
X1993678Y1039094D1*
X1999093D1*
X2005652Y1037906D1*
X2005642Y1038768D1*
X2137156D1*
X2137106Y1228912D1*
X487738Y1193807D2*
X477461Y1195713D1*
X469067Y1198080D1*
X460886Y1201098D1*
X452967Y1204749D1*
X445360Y1209009D1*
X438109Y1213854D1*
X431260Y1219253D1*
X425083Y1224965D1*
X425100Y1193828D1*
X487361Y1193807D1*
X1797877Y1303673D2*
X1773358D1*
X1773164Y1348709D1*
X1771860Y1341331D1*
X1769469Y1334230D1*
X1766043Y1327564D1*
X1761661Y1321487D1*
X1756421Y1316131D1*
X1750440Y1311619D1*
X1743850Y1308050D1*
X1736803Y1305507D1*
X1729454Y1304042D1*
X1721969Y1303693D1*
X1714516Y1304466D1*
X1707262Y1306343D1*
X1700370Y1309282D1*
X1693993Y1313218D1*
X1688277Y1318062D1*
X1683348Y1323706D1*
X1679318Y1330022D1*
X1676274Y1336870D1*
X1674289Y1344094D1*
X1673392Y1352248D1*
X1672798Y1345875D1*
X1671361Y1339644D1*
X1674849Y1335240D1*
X1677211Y1330117D1*
X1678312Y1324584D1*
X1678386Y1233297D1*
X1683724Y1235512D1*
X1688988Y1236776D1*
X1694386Y1237201D1*
X1697902Y1236999D1*
X1697894Y1253327D1*
X1797941D1*
X1797886Y1303650D1*
X1630404Y1304193D2*
X1623386Y1303673D1*
X1615560Y1304289D1*
X1607927Y1306122D1*
X1600673Y1309126D1*
X1593980Y1313227D1*
X1588010Y1318325D1*
X1582912Y1324295D1*
X1578811Y1330988D1*
X1575807Y1338241D1*
X1573974Y1345875D1*
X1573402Y1352612D1*
X1572798Y1345875D1*
X1570965Y1338241D1*
X1567961Y1330988D1*
X1563860Y1324295D1*
X1558761Y1318325D1*
X1552791Y1313227D1*
X1546098Y1309126D1*
X1538845Y1306122D1*
X1531211Y1304289D1*
X1523386Y1303673D1*
X1515560Y1304289D1*
X1512385Y1304921D1*
X1512386Y1289550D1*
X1518631Y1291406D1*
X1534886Y1291701D1*
X1599681D1*
X1605108Y1296612D1*
X1609723Y1299441D1*
X1614724Y1301512D1*
X1619988Y1302776D1*
X1625386Y1303201D1*
X1630394Y1302822D1*
X1630386Y1304140D1*
X1475411Y1339644D2*
X1473974Y1345875D1*
X1473402Y1352612D1*
X1472798Y1345875D1*
X1470965Y1338241D1*
X1468429Y1332007D1*
X1471415Y1335672D1*
X1475386Y1339642D1*
X1461427Y1321210D1*
X1455877Y1315660D1*
X1449525Y1311046D1*
X1447370Y1309839D1*
X1447386Y1278749D1*
X1454332Y1281248D1*
X1459678Y1282094D1*
X1464406Y1282122D1*
X1464681Y1322455D1*
X1465711Y1326525D1*
X1399402Y1309839D2*
X1393980Y1313227D1*
X1388010Y1318325D1*
X1382912Y1324295D1*
X1378811Y1330988D1*
X1375807Y1338241D1*
X1373974Y1345875D1*
X1373402Y1352612D1*
X1372798Y1345875D1*
X1370965Y1338241D1*
X1367961Y1330988D1*
X1363860Y1324295D1*
X1358761Y1318325D1*
X1352791Y1313227D1*
X1346379Y1309283D1*
X1346369Y1268266D1*
X1355886Y1267701D1*
X1399391D1*
X1399386Y1309777D1*
X1298411Y1310392D2*
X1290895Y1315660D1*
X1285345Y1321210D1*
X1280731Y1327562D1*
X1277167Y1334556D1*
X1274740Y1342022D1*
X1273513Y1349776D1*
X1273402Y1352612D1*
X1272798Y1345875D1*
X1270965Y1338241D1*
X1267961Y1330988D1*
X1263860Y1324295D1*
X1258761Y1318325D1*
X1252791Y1313227D1*
X1247370Y1309839D1*
X1247369Y1283266D1*
X1271886Y1282701D1*
X1298399D1*
X1298386Y1310352D1*
X1199402Y1309839D2*
X1193980Y1313227D1*
X1188010Y1318325D1*
X1182912Y1324295D1*
X1178811Y1330988D1*
X1175807Y1338241D1*
X1173974Y1345875D1*
X1173402Y1352612D1*
X1172798Y1345875D1*
X1170965Y1338241D1*
X1167961Y1330988D1*
X1163860Y1324295D1*
X1158761Y1318325D1*
X1154466Y1314549D1*
X1181904Y1286946D1*
X1190799Y1294950D1*
X1195490Y1298085D1*
X1199387Y1299644D1*
X1199386Y1309824D1*
X1197201Y1298874D1*
X1198970Y1299526D1*
X837442Y1305726D2*
X831211Y1304289D1*
X823769Y1303688D1*
X815560Y1304289D1*
X807927Y1306122D1*
X800673Y1309126D1*
X793980Y1313227D1*
X788010Y1318325D1*
X782912Y1324295D1*
X778811Y1330988D1*
X775807Y1338241D1*
X773974Y1345875D1*
X773402Y1352612D1*
X772798Y1345875D1*
X770965Y1338241D1*
X767961Y1330988D1*
X763860Y1324295D1*
X758209Y1317815D1*
X772362Y1303665D1*
X839486Y1303701D1*
X1807294Y503710D2*
X1873413D1*
Y476707D1*
X1885451Y476701D1*
X1910421Y501677D1*
X1910386Y558741D1*
X1896492Y545285D1*
X1891571Y542528D1*
X1886140Y540996D1*
X1882386Y540701D1*
X1825071Y540825D1*
X1817386Y540201D1*
X1811988Y540626D1*
X1806724Y541890D1*
X1801723Y543961D1*
X1797108Y546790D1*
X1792991Y550306D1*
X1789475Y554423D1*
X1786646Y559038D1*
X1784575Y564039D1*
X1783311Y569303D1*
X1782886Y574701D1*
X1783311Y580098D1*
X1784575Y585362D1*
X1786646Y590364D1*
X1789475Y594979D1*
X1792991Y599096D1*
X1797108Y602612D1*
X1801723Y605441D1*
X1806724Y607512D1*
X1811988Y608776D1*
X1817386Y609201D1*
X1822783Y608776D1*
X1828047Y607512D1*
X1833049Y605441D1*
X1837664Y602612D1*
X1841781Y599096D1*
X1845297Y594979D1*
X1848900Y588681D1*
X1872454Y588701D1*
X1913442Y629698D1*
X1621325Y629701D1*
X1646337Y604692D1*
X1700122Y604406D1*
X1705552Y602874D1*
X1710474Y600117D1*
X1713339Y597672D1*
X1807285Y503724D1*
X1473402Y454772D2*
X1473974Y461508D1*
X1475807Y469142D1*
X1478811Y476395D1*
X1482912Y483088D1*
X1488010Y489058D1*
X1493980Y494156D1*
X1499402Y497545D1*
X1499386Y600703D1*
X1415852Y684196D1*
X1415886Y624929D1*
X1419802Y619727D1*
X1422260Y614903D1*
X1423933Y609755D1*
X1424780Y604408D1*
Y598993D1*
X1423933Y593647D1*
X1422260Y588499D1*
X1419802Y583675D1*
X1416619Y579295D1*
X1412791Y575467D1*
X1408412Y572285D1*
X1403588Y569827D1*
X1398440Y568154D1*
X1393093Y567307D1*
X1387678D1*
X1382332Y568154D1*
X1377184Y569827D1*
X1372360Y572285D1*
X1367980Y575467D1*
X1364152Y579295D1*
X1360970Y583675D1*
X1358512Y588499D1*
X1356839Y593647D1*
X1355992Y598993D1*
Y604408D1*
X1356839Y609755D1*
X1358512Y614903D1*
X1360970Y619727D1*
X1364891Y624907D1*
X1364886Y692277D1*
X1358588Y688827D1*
X1353440Y687154D1*
X1347364Y686278D1*
X1347386Y497596D1*
X1352791Y494156D1*
X1358761Y489058D1*
X1363860Y483088D1*
X1367961Y476395D1*
X1370965Y469142D1*
X1372798Y461508D1*
X1373370Y454772D1*
X1373974Y461508D1*
X1375807Y469142D1*
X1378811Y476395D1*
X1382912Y483088D1*
X1388010Y489058D1*
X1393980Y494156D1*
X1400673Y498257D1*
X1407927Y501261D1*
X1415560Y503094D1*
X1423386Y503710D1*
X1431211Y503094D1*
X1438845Y501261D1*
X1446098Y498257D1*
X1452791Y494156D1*
X1458761Y489058D1*
X1463860Y483088D1*
X1467961Y476395D1*
X1470965Y469142D1*
X1472798Y461508D1*
X1473370Y454772D1*
X1102917Y499291D2*
X1111707Y502328D1*
X1119461Y503555D1*
X1127311D1*
X1135064Y502328D1*
X1137442Y501657D1*
X1160413Y524651D1*
X1160386Y556723D1*
X1103016Y499371D1*
X2122429Y768634D2*
X2097331D1*
X2097312Y676818D1*
X2096211Y671285D1*
X2093849Y666160D1*
X2090322Y661696D1*
X2109495Y661701D1*
X2122407Y674663D1*
X2122386Y768656D1*
X2049382Y768634D2*
X2028386D1*
X2028091Y720946D1*
X2026559Y715516D1*
X2023802Y710594D1*
X2021357Y707730D1*
X2001297Y687671D1*
X2048427Y687701D1*
X2049386Y691201D1*
Y768593D1*
X993844Y1172886D2*
X1012508D1*
X1012770Y1146026D1*
X1017155Y1150412D1*
X1015992Y1156993D1*
Y1162408D1*
X1016839Y1167755D1*
X1018512Y1172903D1*
X1020970Y1177727D1*
X1024152Y1182106D1*
X1027980Y1185934D1*
X1032360Y1189117D1*
X1037184Y1191575D1*
X1042332Y1193248D1*
X1047678Y1194094D1*
X1053093D1*
X1058440Y1193248D1*
X1063588Y1191575D1*
X1068412Y1189117D1*
X1072791Y1185934D1*
X1076619Y1182106D1*
X1078396Y1179829D1*
X1078386Y1190745D1*
X1053962Y1215184D1*
X1047988Y1215626D1*
X1042724Y1216890D1*
X1037723Y1218961D1*
X1033108Y1221790D1*
X1028991Y1225306D1*
X1025475Y1229423D1*
X1022646Y1234038D1*
X1020575Y1239039D1*
X1019311Y1244303D1*
X1018886Y1249701D1*
X1019432Y1255710D1*
X989134Y1255701D1*
X990461Y1250098D1*
X991106Y1244278D1*
X993181Y1238654D1*
X993886Y1232701D1*
Y1172886D1*
X723046Y756303D2*
X689106D1*
Y770512D1*
X657665Y770236D1*
Y756303D1*
X589106D1*
Y770512D1*
X563083Y770520D1*
X540038Y747436D1*
X543751Y746701D1*
X713428D1*
X723022Y756278D1*
X506227Y987453D2*
X425075D1*
X425100Y910136D1*
X451421Y910185D1*
X451681Y926455D1*
X453213Y931886D1*
X455970Y936807D1*
X458415Y939672D1*
X502609Y983866D1*
X1606390Y860693D2*
X1606642Y875340D1*
X1607950Y879978D1*
X1610304Y884182D1*
X1613576Y887720D1*
X1617583Y890398D1*
X1622104Y892066D1*
X1626890Y892633D1*
X1693089Y892381D1*
X1697727Y891072D1*
X1701932Y888718D1*
X1705630Y885244D1*
X1709328Y888717D1*
X1713533Y891071D1*
X1718171Y892379D1*
X1723878Y892631D1*
X1787577Y892379D1*
X1792215Y891071D1*
X1796420Y888717D1*
X1799958Y885445D1*
X1802635Y881438D1*
X1804303Y876917D1*
X1804870Y872131D1*
X1804618Y798060D1*
X1803310Y793423D1*
X1800955Y789218D1*
X1797684Y785680D1*
X1793677Y783003D1*
X1790251Y781643D1*
X1795081Y779374D1*
X1798866Y776391D1*
X1801849Y772606D1*
X1803866Y768230D1*
X1804807Y763504D1*
Y689423D1*
X1803866Y684697D1*
X1801849Y680320D1*
X1799929Y677685D1*
X1923482Y677701D1*
X1980394Y734650D1*
X1980390Y768634D1*
X1852098D1*
X1852067Y812642D1*
X1846106D1*
Y894760D1*
X1852098Y894757D1*
Y1038768D1*
X1894335D1*
X1894343Y1091676D1*
X1832723Y1153301D1*
X1697894Y1153272D1*
Y1168360D1*
X1691678Y1168307D1*
X1686332Y1169154D1*
X1681184Y1170827D1*
X1678382Y1172152D1*
X1680196Y1161832D1*
X1735802Y1105807D1*
X1738559Y1100886D1*
X1740091Y1095455D1*
X1740386Y1091701D1*
X1740091Y1013946D1*
X1738559Y1008516D1*
X1735802Y1003594D1*
X1733357Y1000730D1*
X1648492Y916285D1*
X1643571Y913528D1*
X1638140Y911996D1*
X1634386Y911701D1*
X1616173D1*
X1611664Y907790D1*
X1607049Y904961D1*
X1602047Y902890D1*
X1596783Y901626D1*
X1591386Y901201D1*
X1585988Y901626D1*
X1580724Y902890D1*
X1575723Y904961D1*
X1571108Y907790D1*
X1566991Y911306D1*
X1563475Y915423D1*
X1560646Y920038D1*
X1558575Y925039D1*
X1557311Y930303D1*
X1556886Y935701D1*
X1557311Y941098D1*
X1558575Y946362D1*
X1560646Y951364D1*
X1563475Y955979D1*
X1566991Y960096D1*
X1571108Y963612D1*
X1575723Y966441D1*
X1580724Y968512D1*
X1585988Y969776D1*
X1591386Y970201D1*
X1596783Y969776D1*
X1602047Y968512D1*
X1607049Y966441D1*
X1611664Y963612D1*
X1616161Y959684D1*
X1624442Y959701D1*
X1626634Y961890D1*
X1622896Y964395D1*
X1587499Y999703D1*
X1518442Y999701D1*
X1523791Y995934D1*
X1527619Y992106D1*
X1530802Y987727D1*
X1533260Y982903D1*
X1534933Y977755D1*
X1535780Y972408D1*
Y966993D1*
X1534933Y961647D1*
X1533260Y956499D1*
X1530802Y951675D1*
X1527619Y947295D1*
X1523791Y943467D1*
X1519412Y940285D1*
X1514588Y937827D1*
X1509440Y936154D1*
X1504093Y935307D1*
X1500318Y935243D1*
X1495794Y932751D1*
X1490364Y931219D1*
X1474109Y930924D1*
X1438513D1*
X1439028Y927176D1*
X1460118Y905728D1*
X1463781Y899510D1*
X1463596Y899930D1*
X1462874Y901369D1*
X1464056Y898745D1*
X1502071Y860701D1*
X1606367D1*
X1606642Y875340D1*
X1607950Y879978D1*
X1610304Y884182D1*
X1613576Y887720D1*
X1617583Y890398D1*
X1622104Y892066D1*
X1626890Y892633D1*
X1790251Y781520D2*
X1795081Y779374D1*
X1798866Y776391D1*
X1801849Y772606D1*
X1803866Y768230D1*
X1804807Y763504D1*
Y689423D1*
X1803866Y684697D1*
X1801849Y680320D1*
X1799958Y677718D1*
X1585839Y1047686D2*
X1632512Y1094004D1*
X1636717Y1096358D1*
X1641354Y1097667D1*
X1646171Y1097856D1*
X1650896Y1096915D1*
X1655273Y1094898D1*
X1659058Y1091915D1*
X1686449Y1064504D1*
X1692386Y1067701D1*
Y1081773D1*
X1634970Y1139594D1*
X1632213Y1144516D1*
X1630630Y1150378D1*
X1630681Y1149946D1*
X1630630Y1150378D1*
X1627619Y1147295D1*
X1623791Y1143467D1*
X1619412Y1140285D1*
X1613526Y1137436D1*
X1622172Y1128444D1*
X1624526Y1124239D1*
X1625835Y1119601D1*
X1626024Y1114785D1*
X1625084Y1110059D1*
X1623066Y1105682D1*
X1620083Y1101898D1*
X1565726Y1047690D1*
X1585869Y1047701D1*
X1589563Y1051392D1*
X1583129Y1064944D1*
X1582883Y1064718D1*
X683983Y1300138D2*
X690440Y1299248D1*
X695588Y1297575D1*
X700412Y1295117D1*
X704791Y1291934D1*
X708619Y1288106D1*
X711802Y1283727D1*
X714260Y1278903D1*
X715933Y1273755D1*
X716780Y1268408D1*
Y1262993D1*
X715933Y1257647D1*
X714260Y1252499D1*
X711802Y1247675D1*
X708619Y1243295D1*
X704791Y1239467D1*
X700412Y1236285D1*
X695588Y1233827D1*
X690440Y1232154D1*
X685093Y1231307D1*
X679678D1*
X674332Y1232154D1*
X669184Y1233827D1*
X664360Y1236285D1*
X659980Y1239467D1*
X656152Y1243295D1*
X652970Y1247675D1*
X650512Y1252499D1*
X648839Y1257647D1*
X647949Y1264104D1*
X634756Y1277713D1*
X631827Y1282942D1*
X630199Y1288711D1*
X629886Y1292701D1*
X1231386Y738360D2*
X1231378Y503062D1*
X1238845Y501261D1*
X1246098Y498257D1*
X1252791Y494156D1*
X1258761Y489058D1*
X1263860Y483088D1*
X1267961Y476395D1*
X1270965Y469142D1*
X1272798Y461508D1*
X1273402Y454772D1*
X1273974Y461508D1*
X1275807Y469142D1*
X1278811Y476395D1*
X1282912Y483088D1*
X1288010Y489058D1*
X1293980Y494156D1*
X1299402Y497545D1*
X1299386Y693770D1*
X1249823Y742971D1*
X1244748Y740081D1*
X1240125Y738722D1*
X1233157Y738159D1*
X1231552Y738307D1*
X1236839Y738324D1*
X1232020Y738241D1*
X1591399Y532701D2*
X1629778D1*
X1628886Y540701D1*
X1629311Y546098D1*
X1630575Y551362D1*
X1632982Y556963D1*
X1627201Y558528D1*
X1622280Y561285D1*
X1619415Y563730D1*
X1591345Y591801D1*
X1591386Y532680D1*
X802205Y1177932D2*
D16*
Y1143701D1*
X764037D2*
X802205D1*
X769155Y954882D2*
X837617D1*
X634567Y1187932D2*
Y1119470D1*
Y1153701D2*
X672735D1*
X463386Y683932D2*
Y615470D1*
X425218Y649701D2*
X463386D1*
X1723386Y1353701D2*
Y1303722D1*
X1673407Y1353701D2*
X1773365D1*
X1852147Y953701D2*
X1919843D1*
X1852147Y903701D2*
X1919843D1*
Y803701D2*
Y768682D1*
X1852147Y803701D2*
X1919843D1*
X859155Y954882D2*
X893386D1*
X623386Y883869D2*
Y845701D1*
X589155D2*
X657617D1*
X453386Y1193759D2*
Y1121360D1*
Y1157559D2*
X507302D1*
X423386Y910136D2*
Y868031D1*
X1752874Y892575D2*
Y836699D1*
X1804814D1*
D17*
X1541386Y1219701D3*
X1592567D3*
X1495386Y771701D3*
X1546567D3*
X853386Y1143701D3*
X802205D3*
X854386Y1023701D3*
X803205D3*
D18*
X803386Y903701D3*
Y954882D3*
D17*
X583386Y1153701D3*
X634567D3*
X1289386Y1212701D3*
X1238205D3*
X463386Y649701D3*
X514567D3*
D19*
X1823386Y1353701D3*
D20*
X1723386D3*
X1623386D3*
X1523386D3*
X1423386D3*
X1323386D3*
X1223386D3*
X1123386D3*
X1023386D3*
X923386D3*
X823386D3*
X723386D3*
D19*
X1823386Y453682D3*
D20*
X1723386D3*
X1623386D3*
X1523386D3*
X1423386D3*
X1323386D3*
X1223386D3*
X1123386D3*
X1023386D3*
X923386D3*
X823386D3*
X723386D3*
D22*
X1919843Y1003701D3*
Y953701D3*
Y903701D3*
Y853701D3*
Y803701D3*
X2073386D3*
Y853701D3*
Y903701D3*
Y953701D3*
Y1003701D3*
D23*
X968386Y1132701D3*
Y1053961D3*
D24*
X1425386Y1091701D3*
X1463181D3*
D26*
X855386Y743701D3*
X780583D3*
X817984Y653150D3*
D18*
X993386Y953701D3*
Y902520D3*
X893386Y903701D3*
Y954882D3*
D17*
X1430976Y1212110D3*
X1379795D3*
D18*
X723386Y845701D3*
Y794520D3*
D17*
X651386Y649701D3*
X600205D3*
D18*
X623386Y794520D3*
Y845701D3*
D17*
X634567Y1043701D3*
X583386D3*
D28*
X1818787Y1203299D3*
X1743984D3*
D30*
X453386Y1023701D3*
Y1157559D3*
D73*
X1123386Y903701D3*
X1137306Y889781D3*
X1151224Y875862D3*
X1165144Y861942D3*
X1179063Y848022D3*
X1192983Y834104D3*
X1206903Y820184D3*
X1220822Y806265D3*
X1234741Y792345D3*
X1248660Y778425D3*
D76*
X1300163Y778147D3*
X1314081Y792067D3*
X1328001Y805987D3*
X1341921Y819906D3*
X1355840Y833825D3*
X1369760Y847744D3*
X1383678Y861664D3*
X1397598Y875584D3*
X1411518Y889503D3*
X1425437Y903423D3*
D73*
X1425159Y954924D3*
X1411239Y968844D3*
X1397320Y982762D3*
X1383400Y996682D3*
X1369482Y1010602D3*
X1355562Y1024521D3*
X1341642Y1038441D3*
X1327723Y1052360D3*
X1313803Y1066280D3*
X1299885Y1080199D3*
D76*
X1248382Y1080478D3*
X1234463Y1066558D3*
X1220543Y1052638D3*
X1206623Y1038719D3*
X1192705Y1024799D3*
X1178785Y1010881D3*
X1164866Y996961D3*
X1150946Y983041D3*
X1137026Y969122D3*
X1123108Y955202D3*
D79*
X1274273Y929312D3*
D33*
X423386Y763701D3*
X448976D3*
X474567D3*
X500157D3*
Y868031D3*
X474567D3*
X448976D3*
X423386D3*
D82*
X1658386Y836701D3*
Y726465D3*
X1752874Y726463D3*
Y836699D3*
D85*
X1640386Y1028701D3*
X1556869Y1112218D3*
M02*
