G04 DipTrace 3.1.0.0*
G04 TopDimension.gbr*
%MOIN*%
G04 #@! TF.FileFunction,Drawing,Top*
G04 #@! TF.Part,Single*
%ADD13C,0.0015*%
%ADD72C,0.006176*%
%FSLAX26Y26*%
G04*
G70*
G90*
G75*
G01*
G04 TopDimension*
%LPD*%
X723386Y1353701D2*
D13*
Y-23622D1*
Y453682D2*
Y-23622D1*
Y-3937D2*
D3*
X664331D2*
X684016D1*
G36*
X723386D2*
X684016Y-11811D1*
Y3937D1*
X723386Y-3937D1*
G37*
X782441D2*
D13*
X762756D1*
G36*
X723386D2*
X762756Y3937D1*
Y-11811D1*
X723386Y-3937D1*
G37*
X789551D2*
D13*
X723386D1*
Y1353701D2*
X-316299D1*
X723386Y453682D2*
X-316299D1*
X-296614Y903692D2*
Y1314331D1*
G36*
Y1353701D2*
X-288740Y1314331D1*
X-304488D1*
X-296614Y1353701D1*
G37*
Y903692D2*
D13*
Y493052D1*
G36*
Y453682D2*
X-304488Y493052D1*
X-288740D1*
X-296614Y453682D1*
G37*
X503386Y513701D2*
D13*
Y278016D1*
X511811Y393701D2*
Y278016D1*
X503386Y297701D2*
X511811D1*
X444331D2*
X464016D1*
G36*
X503386D2*
X464016Y289827D1*
Y305575D1*
X503386Y297701D1*
G37*
X570866D2*
D13*
X551181D1*
G36*
X511811D2*
X551181Y305575D1*
Y289827D1*
X511811Y297701D1*
G37*
X655266D2*
D13*
X511811D1*
X2055042Y1303701D2*
X2573071D1*
X2055010Y513701D2*
X2573071D1*
X2553386Y908701D2*
Y1264331D1*
G36*
Y1303701D2*
X2561260Y1264331D1*
X2545512D1*
X2553386Y1303701D1*
G37*
Y908701D2*
D13*
Y553071D1*
G36*
Y513701D2*
X2545512Y553071D1*
X2561260D1*
X2553386Y513701D1*
G37*
X503386Y1303701D2*
D13*
X-20299D1*
X503386Y513701D2*
X-20299D1*
X-614Y908701D2*
Y1264331D1*
G36*
Y1303701D2*
X7260Y1264331D1*
X-8488D1*
X-614Y1303701D1*
G37*
Y908701D2*
D13*
Y553071D1*
G36*
Y513701D2*
X-8488Y553071D1*
X7260D1*
X-614Y513701D1*
G37*
X783516Y48422D2*
D72*
X777767Y46520D1*
X773921Y40772D1*
X772019Y31222D1*
Y25474D1*
X773921Y15923D1*
X777767Y10175D1*
X783516Y8274D1*
X787318D1*
X793066Y10175D1*
X796869Y15923D1*
X798814Y25474D1*
Y31222D1*
X796869Y40772D1*
X793066Y46520D1*
X787318Y48422D1*
X783516D1*
X796869Y40772D2*
X773921Y15923D1*
X-339422Y829504D2*
X-341323D1*
X-345170Y831406D1*
X-347071Y833307D1*
X-348973Y837154D1*
Y844803D1*
X-347071Y848605D1*
X-345170Y850507D1*
X-341323Y852452D1*
X-337521D1*
X-333674Y850507D1*
X-327970Y846704D1*
X-308825Y827559D1*
Y854353D1*
X-339422Y868650D2*
X-341323D1*
X-345170Y870552D1*
X-347071Y872453D1*
X-348973Y876300D1*
Y883949D1*
X-347071Y887751D1*
X-345170Y889653D1*
X-341323Y891598D1*
X-337521D1*
X-333674Y889653D1*
X-327970Y885850D1*
X-308825Y866705D1*
Y893500D1*
X-312672Y907752D2*
X-310726Y905851D1*
X-308825Y907752D1*
X-310726Y909698D1*
X-312672Y907752D1*
X-348973Y931600D2*
X-347071Y925896D1*
X-343269Y923950D1*
X-339422D1*
X-335620Y925896D1*
X-333674Y929698D1*
X-331773Y937348D1*
X-329872Y943096D1*
X-326025Y946898D1*
X-322222Y948800D1*
X-316474D1*
X-312672Y946898D1*
X-310726Y944997D1*
X-308825Y939249D1*
Y931600D1*
X-310726Y925896D1*
X-312672Y923950D1*
X-316474Y922049D1*
X-322222D1*
X-326025Y923950D1*
X-329872Y927797D1*
X-331773Y933501D1*
X-333674Y941150D1*
X-335620Y944997D1*
X-339422Y946898D1*
X-343269D1*
X-347071Y944997D1*
X-348973Y939249D1*
Y931600D1*
X-343269Y984099D2*
X-347071Y982198D1*
X-348973Y976450D1*
Y972647D1*
X-347071Y966899D1*
X-341323Y963052D1*
X-331773Y961151D1*
X-322222D1*
X-314573Y963052D1*
X-310726Y966899D1*
X-308825Y972647D1*
Y974548D1*
X-310726Y980252D1*
X-314573Y984099D1*
X-320321Y986000D1*
X-322222D1*
X-327970Y984099D1*
X-331773Y980252D1*
X-333674Y974548D1*
Y972647D1*
X-331773Y966899D1*
X-327970Y963052D1*
X-322222Y961151D1*
X571941Y350059D2*
X566193Y348158D1*
X562346Y342410D1*
X560445Y332859D1*
Y327111D1*
X562346Y317561D1*
X566193Y311813D1*
X571941Y309912D1*
X575743D1*
X581491Y311813D1*
X585294Y317561D1*
X587239Y327111D1*
Y332859D1*
X585294Y342410D1*
X581491Y348158D1*
X575743Y350059D1*
X571941D1*
X585294Y342410D2*
X562346Y317561D1*
X601492Y313758D2*
X599591Y311813D1*
X601492Y309912D1*
X603437Y311813D1*
X601492Y313758D1*
X617734Y340509D2*
Y342410D1*
X619636Y346257D1*
X621537Y348158D1*
X625384Y350059D1*
X633033D1*
X636836Y348158D1*
X638737Y346257D1*
X640682Y342410D1*
Y338607D1*
X638737Y334761D1*
X634934Y329057D1*
X615789Y309912D1*
X642584D1*
X654935Y342410D2*
X658782Y344356D1*
X664530Y350059D1*
Y309912D1*
X2596194Y983883D2*
X2598095D1*
X2601942Y981982D1*
X2603843Y980080D1*
X2605744Y976234D1*
Y968584D1*
X2603843Y964782D1*
X2601942Y962881D1*
X2598095Y960935D1*
X2594293D1*
X2590446Y962881D1*
X2584742Y966683D1*
X2565597Y985828D1*
Y959034D1*
X2605744Y935186D2*
X2603843Y940934D1*
X2598095Y944781D1*
X2588544Y946682D1*
X2582796D1*
X2573246Y944781D1*
X2567498Y940934D1*
X2565597Y935186D1*
Y931384D1*
X2567498Y925636D1*
X2573246Y921833D1*
X2582796Y919888D1*
X2588544D1*
X2598095Y921833D1*
X2603843Y925636D1*
X2605744Y931384D1*
Y935186D1*
X2598095Y921833D2*
X2573246Y944781D1*
X2569443Y905635D2*
X2567498Y907536D1*
X2565597Y905635D1*
X2567498Y903690D1*
X2569443Y905635D1*
X2605744Y879842D2*
X2603843Y885590D1*
X2598095Y889437D1*
X2588544Y891338D1*
X2582796D1*
X2573246Y889437D1*
X2567498Y885590D1*
X2565597Y879842D1*
Y876040D1*
X2567498Y870292D1*
X2573246Y866489D1*
X2582796Y864543D1*
X2588544D1*
X2598095Y866489D1*
X2603843Y870292D1*
X2605744Y876040D1*
Y879842D1*
X2598095Y866489D2*
X2573246Y889437D1*
X2565597Y844543D2*
X2605744Y825397D1*
Y852192D1*
X-43422Y833519D2*
X-45323D1*
X-49170Y835420D1*
X-51071Y837321D1*
X-52973Y841168D1*
Y848817D1*
X-51071Y852620D1*
X-49170Y854521D1*
X-45323Y856467D1*
X-41521D1*
X-37674Y854521D1*
X-31970Y850718D1*
X-12825Y831573D1*
Y858368D1*
X-52973Y882215D2*
X-51071Y876467D1*
X-45323Y872620D1*
X-35773Y870719D1*
X-30025D1*
X-20474Y872620D1*
X-14726Y876467D1*
X-12825Y882215D1*
Y886018D1*
X-14726Y891766D1*
X-20474Y895568D1*
X-30025Y897514D1*
X-35773D1*
X-45323Y895568D1*
X-51071Y891766D1*
X-52973Y886018D1*
Y882215D1*
X-45323Y895568D2*
X-20474Y872620D1*
X-16672Y911767D2*
X-14726Y909865D1*
X-12825Y911767D1*
X-14726Y913712D1*
X-16672Y911767D1*
X-52973Y937559D2*
X-51071Y931811D1*
X-45323Y927965D1*
X-35773Y926063D1*
X-30025D1*
X-20474Y927965D1*
X-14726Y931811D1*
X-12825Y937559D1*
Y941362D1*
X-14726Y947110D1*
X-20474Y950913D1*
X-30025Y952858D1*
X-35773D1*
X-45323Y950913D1*
X-51071Y947110D1*
X-52973Y941362D1*
Y937559D1*
X-45323Y950913D2*
X-20474Y927965D1*
X-12825Y972859D2*
X-52973Y992004D1*
Y965209D1*
M02*
