G04 DipTrace 3.1.0.0*
G04 TopMask.gbr*
%MOIN*%
G04 #@! TF.FileFunction,Soldermask,Top*
G04 #@! TF.Part,Single*
%AMOUTLINE1*
4,1,16,
0.021193,0.007274,
0.023305,0.010635,
0.0238,0.015032,
0.02234,0.01921,
0.01921,0.02234,
0.015032,0.0238,
0.010635,0.023305,
0.007274,0.021193,
-0.021193,-0.007274,
-0.023305,-0.010635,
-0.0238,-0.015032,
-0.02234,-0.01921,
-0.01921,-0.02234,
-0.015032,-0.0238,
-0.010635,-0.023305,
-0.007274,-0.021193,
0.021193,0.007274,
0*%
%AMOUTLINE4*
4,1,16,
0.007274,-0.021193,
0.010635,-0.023305,
0.015032,-0.0238,
0.01921,-0.02234,
0.02234,-0.01921,
0.0238,-0.015032,
0.023305,-0.010635,
0.021193,-0.007274,
-0.007274,0.021193,
-0.010635,0.023305,
-0.015032,0.0238,
-0.01921,0.02234,
-0.02234,0.01921,
-0.0238,0.015032,
-0.023305,0.010635,
-0.021193,0.007274,
0.007274,-0.021193,
0*%
%AMOUTLINE7*5,1,4,0,0,0.261684,-179.999999*%
%AMOUTLINE10*
4,1,4,
-0.035433,-0.039369,
-0.035433,0.039369,
0.035433,0.039369,
0.035433,-0.039369,
-0.035433,-0.039369,
0*%
%AMOUTLINE13*
4,1,4,
-0.004176,-0.054286,
-0.054286,-0.004176,
0.004176,0.054286,
0.054286,0.004176,
-0.004176,-0.054286,
0*%
%ADD39C,0.125984*%
%ADD46R,0.021457X0.051181*%
%ADD48R,0.074803X0.03937*%
%ADD50R,0.059055X0.066929*%
%ADD54R,0.033465X0.049213*%
%ADD56R,0.031102X0.03622*%
%ADD58R,0.055118X0.047244*%
%ADD60R,0.102362X0.037008*%
%ADD62C,0.066929*%
%ADD64R,0.066929X0.066929*%
%ADD66R,0.035433X0.043307*%
%ADD68R,0.043307X0.035433*%
%ADD74OUTLINE1*%
%ADD77OUTLINE4*%
%ADD80OUTLINE7*%
%ADD83OUTLINE10*%
%ADD86OUTLINE13*%
%FSLAX26Y26*%
G04*
G70*
G90*
G75*
G01*
G04 TopMask*
%LPD*%
D68*
X1541386Y1219701D3*
X1592567D3*
X1495386Y771701D3*
X1546567D3*
X853386Y1143701D3*
X802205D3*
X854386Y1023701D3*
X803205D3*
D66*
X803386Y903701D3*
Y954882D3*
D68*
X583386Y1153701D3*
X634567D3*
X1289386Y1212701D3*
X1238205D3*
X463386Y649701D3*
X514567D3*
D39*
X2055010Y513701D3*
X503386D3*
X2055042Y1303701D3*
X503386D3*
D64*
X1823386Y1353701D3*
D62*
X1723386D3*
X1623386D3*
X1523386D3*
X1423386D3*
X1323386D3*
X1223386D3*
X1123386D3*
X1023386D3*
X923386D3*
X823386D3*
X723386D3*
D64*
X1823386Y453682D3*
D62*
X1723386D3*
X1623386D3*
X1523386D3*
X1423386D3*
X1323386D3*
X1223386D3*
X1123386D3*
X1023386D3*
X923386D3*
X823386D3*
X723386D3*
D60*
X1919843Y1003701D3*
Y953701D3*
Y903701D3*
Y853701D3*
Y803701D3*
X2073386D3*
Y853701D3*
Y903701D3*
Y953701D3*
Y1003701D3*
D58*
X968386Y1132701D3*
Y1053961D3*
D56*
X1425386Y1091701D3*
X1463181D3*
D54*
X855386Y743701D3*
X780583D3*
X817984Y653150D3*
D66*
X993386Y953701D3*
Y902520D3*
X893386Y903701D3*
Y954882D3*
D68*
X1430976Y1212110D3*
X1379795D3*
D66*
X723386Y845701D3*
Y794520D3*
D68*
X651386Y649701D3*
X600205D3*
D66*
X623386Y794520D3*
Y845701D3*
D68*
X634567Y1043701D3*
X583386D3*
D50*
X1818787Y1203299D3*
X1743984D3*
D48*
X453386Y1023701D3*
Y1157559D3*
D74*
X1123386Y903701D3*
X1137306Y889781D3*
X1151224Y875862D3*
X1165144Y861942D3*
X1179063Y848022D3*
X1192983Y834104D3*
X1206903Y820184D3*
X1220822Y806265D3*
X1234741Y792345D3*
X1248660Y778425D3*
D77*
X1300163Y778147D3*
X1314081Y792067D3*
X1328001Y805987D3*
X1341921Y819906D3*
X1355840Y833825D3*
X1369760Y847744D3*
X1383678Y861664D3*
X1397598Y875584D3*
X1411518Y889503D3*
X1425437Y903423D3*
D74*
X1425159Y954924D3*
X1411239Y968844D3*
X1397320Y982762D3*
X1383400Y996682D3*
X1369482Y1010602D3*
X1355562Y1024521D3*
X1341642Y1038441D3*
X1327723Y1052360D3*
X1313803Y1066280D3*
X1299885Y1080199D3*
D77*
X1248382Y1080478D3*
X1234463Y1066558D3*
X1220543Y1052638D3*
X1206623Y1038719D3*
X1192705Y1024799D3*
X1178785Y1010881D3*
X1164866Y996961D3*
X1150946Y983041D3*
X1137026Y969122D3*
X1123108Y955202D3*
D80*
X1274273Y929312D3*
D46*
X423386Y763701D3*
X448976D3*
X474567D3*
X500157D3*
Y868031D3*
X474567D3*
X448976D3*
X423386D3*
D83*
X1658386Y836701D3*
Y726465D3*
X1752874Y726463D3*
Y836699D3*
D86*
X1640386Y1028701D3*
X1556869Y1112218D3*
M02*
