G04 DipTrace 3.1.0.0*
G04 TopPaste.gbr*
%MOIN*%
G04 #@! TF.FileFunction,Paste,Top*
G04 #@! TF.Part,Single*
%AMOUTLINE2*
4,1,16,
0.014998,0.012214,
0.015682,0.013302,
0.015775,0.014128,
0.0155,0.014914,
0.014914,0.0155,
0.014128,0.015775,
0.013302,0.015682,
0.012214,0.014998,
-0.014998,-0.012214,
-0.015682,-0.013302,
-0.015775,-0.014128,
-0.0155,-0.014914,
-0.014914,-0.0155,
-0.014128,-0.015775,
-0.013302,-0.015682,
-0.012214,-0.014998,
0.014998,0.012214,
0*%
%AMOUTLINE5*
4,1,16,
0.012214,-0.014998,
0.013302,-0.015682,
0.014128,-0.015775,
0.014914,-0.0155,
0.0155,-0.014914,
0.015775,-0.014128,
0.015682,-0.013302,
0.014998,-0.012214,
-0.012214,0.014998,
-0.013302,0.015682,
-0.014128,0.015775,
-0.014914,0.0155,
-0.0155,0.014914,
-0.015775,0.014128,
-0.015682,0.013302,
-0.014998,0.012214,
0.012214,-0.014998,
0*%
%AMOUTLINE8*5,1,4,0,0,0.239413,-179.999999*%
%AMOUTLINE11*
4,1,4,
-0.027559,-0.031495,
-0.027559,0.031495,
0.027559,0.031495,
0.027559,-0.031495,
-0.027559,-0.031495,
0*%
%AMOUTLINE14*
4,1,4,
-0.004176,-0.04315,
-0.04315,-0.004176,
0.004176,0.04315,
0.04315,0.004176,
-0.004176,-0.04315,
0*%
%ADD47R,0.005709X0.035433*%
%ADD49R,0.059055X0.023622*%
%ADD51R,0.043307X0.051181*%
%ADD55R,0.017717X0.033465*%
%ADD57R,0.015354X0.020472*%
%ADD59R,0.03937X0.031496*%
%ADD61R,0.086614X0.02126*%
%ADD67R,0.019685X0.027559*%
%ADD69R,0.027559X0.019685*%
%ADD75OUTLINE2*%
%ADD78OUTLINE5*%
%ADD81OUTLINE8*%
%ADD84OUTLINE11*%
%ADD87OUTLINE14*%
%FSLAX26Y26*%
G04*
G70*
G90*
G75*
G01*
G04 TopPaste*
%LPD*%
D69*
X1541386Y1219701D3*
X1592567D3*
X1495386Y771701D3*
X1546567D3*
X853386Y1143701D3*
X802205D3*
X854386Y1023701D3*
X803205D3*
D67*
X803386Y903701D3*
Y954882D3*
D69*
X583386Y1153701D3*
X634567D3*
X1289386Y1212701D3*
X1238205D3*
X463386Y649701D3*
X514567D3*
D61*
X1919843Y1003701D3*
Y953701D3*
Y903701D3*
Y853701D3*
Y803701D3*
X2073386D3*
Y853701D3*
Y903701D3*
Y953701D3*
Y1003701D3*
D59*
X968386Y1132701D3*
Y1053961D3*
D57*
X1425386Y1091701D3*
X1463181D3*
D55*
X855386Y743701D3*
X780583D3*
X817984Y653150D3*
D67*
X993386Y953701D3*
Y902520D3*
X893386Y903701D3*
Y954882D3*
D69*
X1430976Y1212110D3*
X1379795D3*
D67*
X723386Y845701D3*
Y794520D3*
D69*
X651386Y649701D3*
X600205D3*
D67*
X623386Y794520D3*
Y845701D3*
D69*
X634567Y1043701D3*
X583386D3*
D51*
X1818787Y1203299D3*
X1743984D3*
D49*
X453386Y1023701D3*
Y1157559D3*
D75*
X1123386Y903701D3*
X1137306Y889781D3*
X1151224Y875862D3*
X1165144Y861942D3*
X1179063Y848022D3*
X1192983Y834104D3*
X1206903Y820184D3*
X1220822Y806265D3*
X1234741Y792345D3*
X1248660Y778425D3*
D78*
X1300163Y778147D3*
X1314081Y792067D3*
X1328001Y805987D3*
X1341921Y819906D3*
X1355840Y833825D3*
X1369760Y847744D3*
X1383678Y861664D3*
X1397598Y875584D3*
X1411518Y889503D3*
X1425437Y903423D3*
D75*
X1425159Y954924D3*
X1411239Y968844D3*
X1397320Y982762D3*
X1383400Y996682D3*
X1369482Y1010602D3*
X1355562Y1024521D3*
X1341642Y1038441D3*
X1327723Y1052360D3*
X1313803Y1066280D3*
X1299885Y1080199D3*
D78*
X1248382Y1080478D3*
X1234463Y1066558D3*
X1220543Y1052638D3*
X1206623Y1038719D3*
X1192705Y1024799D3*
X1178785Y1010881D3*
X1164866Y996961D3*
X1150946Y983041D3*
X1137026Y969122D3*
X1123108Y955202D3*
D81*
X1274273Y929312D3*
D47*
X423386Y763701D3*
X448976D3*
X474567D3*
X500157D3*
Y868031D3*
X474567D3*
X448976D3*
X423386D3*
D84*
X1658386Y836701D3*
Y726465D3*
X1752874Y726463D3*
Y836699D3*
D87*
X1640386Y1028701D3*
X1556869Y1112218D3*
M02*
